<svg width="18" height="17" viewBox="0 0 18 17" fill="none" xmlns="http://www.w3.org/2000/svg">
<path fill-rule="evenodd" clip-rule="evenodd" d="M0.5 14.5C0.5 12.0147 2.51472 10 5 10H13C15.4853 10 17.5 12.0147 17.5 14.5C17.5 15.8807 16.3807 17 15 17H3C1.61929 17 0.5 15.8807 0.5 14.5ZM5 11C3.067 11 1.5 12.567 1.5 14.5C1.5 15.3284 2.17157 16 3 16H15C15.8284 16 16.5 15.3284 16.5 14.5C16.5 12.567 14.933 11 13 11H5Z" fill="white"/>
<path fill-rule="evenodd" clip-rule="evenodd" d="M9 1C7.61929 1 6.5 2.11929 6.5 3.5C6.5 4.88071 7.61929 6 9 6C10.3807 6 11.5 4.88071 11.5 3.5C11.5 2.11929 10.3807 1 9 1ZM5.5 3.5C5.5 1.567 7.067 0 9 0C10.933 0 12.5 1.567 12.5 3.5C12.5 5.433 10.933 7 9 7C7.067 7 5.5 5.433 5.5 3.5Z" fill="white"/>
</svg>
