<svg xmlns="http://www.w3.org/2000/svg" width="29" height="27" fill="none"><path fill-rule="evenodd" clip-rule="evenodd" d="M5.793 27c-1.47.002-2.953-.592-4.083-1.747A5.982 5.982 0 0 1 0 21.081a5.568 5.568 0 0 1 1.573-3.912l.24-.248L16.304 2.109A6.996 6.996 0 0 1 21.342 0c1.938-.002 3.902.78 5.399 2.31A7.898 7.898 0 0 1 29 7.825c.003 1.868-.683 3.738-2.064 5.149L14.77 25.409l-.906.925-1.81-1.851L25.128 11.12c.876-.895 1.311-2.07 1.313-3.297 0-1.296-.5-2.63-1.51-3.663-1.013-1.035-2.316-1.543-3.588-1.544a4.457 4.457 0 0 0-3.224 1.343L3.384 19.018c-.549.56-.82 1.287-.822 2.063.002.818.313 1.663.96 2.323.645.657 1.47.978 2.271.98a2.804 2.804 0 0 0 2.02-.839l11.112-11.357c.208-.213.31-.482.311-.791 0-.326-.124-.666-.391-.94a1.278 1.278 0 0 0-.918-.398 1.063 1.063 0 0 0-.773.318l-9.45 9.658-1.812-1.848 9.452-9.66a3.58 3.58 0 0 1 2.583-1.086c.986 0 1.978.397 2.73 1.166a3.999 3.999 0 0 1 1.141 2.79 3.771 3.771 0 0 1-1.061 2.64L9.62 25.394A5.323 5.323 0 0 1 5.803 27h-.01" fill="#000"/></svg>