<svg width="20" height="15" viewBox="0 0 20 15" fill="none" xmlns="http://www.w3.org/2000/svg">
<path d="M1.43884 0.0600481C0.872024 0.195211 0.422932 0.557101 0.165685 1.08032L0 1.41168V7.49405V13.5808L0.139524 13.8773C0.396771 14.4223 0.941786 14.8409 1.54348 14.9542C1.86177 15.0153 15.2691 15.0153 15.5918 14.9542C16.1586 14.8496 16.6905 14.4484 16.9347 13.9427C17.096 13.6113 19.0537 7.35453 19.0973 7.03624C19.1802 6.39094 18.8226 5.62356 18.2645 5.25295C17.9157 5.02186 17.58 4.92594 17.1091 4.92594H16.7211V4.14548C16.7211 3.51326 16.708 3.31706 16.6426 3.10777C16.4856 2.60636 16.1455 2.22267 15.6354 1.96978L15.3084 1.80846L12.1473 1.78666C9.20421 1.76485 8.96877 1.7605 8.8118 1.68637C8.71588 1.64277 8.34963 1.32448 7.99646 0.980033C7.3032 0.308575 7.02851 0.129809 6.56634 0.0426073C6.21317 -0.0227947 1.71789 -0.00971413 1.43884 0.0600481ZM6.56634 0.814348C6.77127 0.87975 6.89335 0.980033 7.46453 1.52941C8.17522 2.21831 8.44991 2.39707 8.91208 2.48427C9.05597 2.51044 10.2986 2.52788 12.0775 2.52788C15.3258 2.52788 15.2343 2.51916 15.5787 2.81564C15.679 2.89849 15.8098 3.07725 15.8752 3.21241C15.9886 3.4435 15.9973 3.49582 16.0147 4.18908L16.0365 4.92594H9.77539C3.76714 4.92594 3.50554 4.9303 3.25265 5.00878C3.10877 5.05239 2.90384 5.13959 2.80356 5.20063C2.55067 5.34887 2.2193 5.7064 2.10158 5.96365C2.04926 6.08137 1.70917 7.11036 1.35164 8.25707L0.697619 10.3412L0.684539 6.14242C0.680179 3.25602 0.688899 1.8695 0.72378 1.71253C0.789182 1.38988 0.998467 1.09776 1.28188 0.927711C1.40832 0.85359 1.56528 0.779468 1.63068 0.770747C1.69173 0.762027 2.7774 0.748947 4.03747 0.744587C6.10417 0.740227 6.35705 0.748947 6.56634 0.814348ZM17.7282 5.80669C18.1032 6.02905 18.3474 6.42582 18.3474 6.82259C18.3474 6.98828 18.1119 7.79926 17.3533 10.2235C16.8083 11.9719 16.3199 13.4892 16.272 13.5939C16.2284 13.6941 16.1019 13.8555 15.9973 13.947C15.6179 14.2828 16.1673 14.261 8.48043 14.2479L1.61324 14.2348L1.41704 14.1432C1.16851 14.0255 0.924345 13.777 0.797902 13.5197C0.606057 13.123 0.610417 13.1142 1.72225 9.56947C2.76868 6.22526 2.821 6.09881 3.11749 5.88517C3.43141 5.6628 3.0608 5.67152 10.5515 5.68024L17.5277 5.68896L17.7282 5.80669Z" fill="#E51A83"/>
</svg>
