<svg width="428" height="125" viewBox="0 0 428 125" fill="none" xmlns="http://www.w3.org/2000/svg">
<g clip-path="url(#clip0_2584_18366)">
<rect width="428" height="125" fill="#E51A83"/>
<path opacity="0.5" d="M633.724 -70.8083C630.441 -70.8183 627.218 -69.754 624.396 -67.7287C624.396 -67.9877 624.396 -68.2354 624.396 -68.4944C624.395 -75.058 622.655 -81.4491 619.43 -86.7335C616.205 -92.0178 611.664 -95.9184 606.472 -97.8651C601.28 -99.8117 595.708 -99.7024 590.57 -97.5531C585.433 -95.4039 581 -91.3273 577.919 -85.9192C576.727 -88.9698 575 -91.6708 572.857 -93.8348C570.714 -95.9988 568.207 -97.5738 565.509 -98.4507C562.811 -99.3276 559.988 -99.4853 557.234 -98.9128C554.481 -98.3403 551.864 -97.0514 549.565 -95.1355C546.483 -100.602 542.147 -104.864 537.089 -107.4C532.03 -109.935 526.469 -110.634 521.087 -109.41C515.704 -108.186 510.734 -105.092 506.787 -100.509C502.839 -95.9252 500.085 -90.0506 498.862 -83.6053C491.441 -87.1277 483.267 -87.6069 475.598 -84.9689C467.93 -82.3309 461.192 -76.7222 456.424 -69.0067C451.177 -76.0151 444.509 -81.254 437.076 -84.2082C429.643 -87.1624 421.702 -87.7302 414.032 -85.8556C406.363 -83.9811 399.229 -79.7289 393.334 -73.5172C387.438 -67.3054 382.983 -59.3481 380.408 -50.4277C374.281 -52.3686 367.868 -52.5879 361.66 -51.0688C355.453 -49.5498 349.616 -46.3328 344.599 -41.6651C339.583 -36.9974 335.519 -31.0033 332.721 -24.1434C329.924 -17.2835 328.466 -9.74058 328.46 -2.09425C328.46 -0.405243 328.53 1.21619 328.661 2.83762C326.9 2.46685 325.117 2.2785 323.33 2.27463C318.859 2.2655 314.44 3.43769 310.384 5.70892C307.994 1.14173 304.467 -2.39288 300.308 -4.38651C296.149 -6.38013 291.574 -6.73004 287.24 -5.38591C282.906 -4.04178 279.037 -1.07288 276.189 3.09378C273.342 7.26044 271.662 12.4101 271.392 17.8021C269.586 16.8703 267.642 16.3933 265.679 16.4003C263.528 16.3991 261.403 16.9723 259.456 18.079C257.51 19.1857 255.79 20.7984 254.421 22.8016C249.669 19.488 244.071 18.4075 238.7 19.767C238.668 14.3261 237.58 8.97005 235.522 4.12922C233.464 -0.711609 230.495 -4.90223 226.852 -8.10591C223.209 -11.3096 218.994 -13.437 214.546 -14.3172C210.099 -15.1974 205.542 -14.8059 201.242 -13.1741C201.345 -13.9566 201.471 -14.7392 201.536 -15.5443C202.315 -24.999 200.271 -34.4787 195.771 -42.2739C191.271 -50.0691 184.612 -55.6667 176.995 -58.0573C169.378 -60.448 161.304 -59.4743 154.229 -55.3118C147.154 -51.1493 141.544 -44.072 138.41 -35.3562C134.244 -37.8923 129.521 -38.775 124.915 -37.8782C120.309 -36.9814 116.055 -34.351 112.76 -30.3624C108.622 -32.5666 104.071 -33.3923 99.5788 -32.7537C95.0869 -32.1151 90.8187 -30.0355 87.218 -26.7311C85.5678 -25.9455 84.002 -24.9229 82.5544 -23.6853C81.0364 -31.09 78.0685 -37.9468 73.8999 -43.6794C69.7314 -49.4121 64.4839 -53.8532 58.5986 -56.6295C52.7132 -59.4058 46.3619 -60.4363 40.0782 -59.6344C33.7945 -58.8325 27.762 -56.2216 22.4876 -52.021C22.5745 -52.8557 22.6165 -53.6964 22.6135 -54.5376C22.6126 -58.0987 21.8815 -61.6041 20.4855 -64.7411C19.0895 -67.8781 17.072 -70.5491 14.613 -72.5159C12.1539 -74.4827 9.32986 -75.6841 6.3927 -76.0129C3.45554 -76.3417 0.496628 -75.7877 -2.22004 -74.4002C-2.53764 -80.9979 -4.5839 -87.3029 -8.06332 -92.4051C-11.5427 -97.5072 -16.2753 -101.142 -21.5777 -102.786C-26.88 -104.429 -32.4779 -103.996 -37.5628 -101.548C-42.6478 -99.1001 -46.9569 -94.7647 -49.8678 -89.1677C-56.7318 -93.0054 -64.3939 -94.2593 -71.8565 -92.7662C-79.319 -91.2731 -86.2364 -87.1021 -91.7078 -80.7963C-97.1792 -74.4906 -100.951 -66.3421 -102.533 -57.412C-104.114 -48.4819 -103.432 -39.1838 -100.575 -30.7284C-107.445 -29.2664 -113.669 -24.9276 -118.152 -18.4746C-122.635 -12.0215 -125.09 -3.86732 -125.087 4.55478C-125.087 4.83627 -125.087 5.11777 -125.087 5.39928V132.091H652V-48.7331C652.001 -51.6313 651.528 -54.5013 650.61 -57.1792C649.692 -59.8571 648.346 -62.2904 646.649 -64.3403C644.952 -66.3902 642.937 -68.0164 640.719 -69.1262C638.501 -70.236 636.124 -70.8076 633.724 -70.8083Z" fill="#E51A83"/>
<path opacity="0.1" d="M510.94 -2.41793C507.591 -2.41803 504.256 -1.89824 501.017 -0.871353C498.419 -9.85715 493.796 -17.7907 487.666 -23.7803C481.537 -29.7699 474.144 -33.5782 466.32 -34.7771C458.495 -35.9761 450.548 -34.5182 443.372 -30.5673C436.197 -26.6164 430.076 -20.3291 425.699 -12.4121C423.531 -14.1227 421.081 -15.2455 418.518 -15.7028C415.955 -16.1602 413.341 -15.9412 410.855 -15.0611C408.369 -14.1809 406.071 -12.6606 404.119 -10.6048C402.168 -8.54912 400.609 -6.00701 399.55 -3.15389C395.034 -5.79477 390.048 -7.05721 385.033 -6.83035C380.017 -6.60349 375.124 -4.89427 370.784 -1.85278C366.444 1.1887 362.789 5.46941 360.14 10.6134C357.491 15.7575 355.93 21.6075 355.593 27.6498C351.589 26.8282 347.472 27.5282 343.812 29.6531C340.152 31.7779 337.13 35.2225 335.163 39.5104C332.278 38.1646 329.169 37.6599 326.091 38.0376C323.013 38.4154 320.053 39.6648 317.451 41.6841C314.849 43.7035 312.679 46.4357 311.118 49.6583C309.556 52.881 308.648 56.5029 308.466 60.2293C306.79 59.3637 304.985 58.9208 303.162 58.9281C301.377 58.9288 299.609 59.3538 297.96 60.1788C296.31 61.0038 294.812 62.2128 293.55 63.7366C292.287 65.2604 291.286 67.0692 290.604 69.0597C289.921 71.0503 289.57 73.1836 289.57 75.3378C289.568 75.9777 289.599 76.6172 289.663 77.2524C283.772 72.5653 276.702 70.531 269.692 71.5062C262.682 72.4814 256.18 76.4038 251.328 82.5854C248.048 77.0335 243.396 72.8771 238.038 70.7119C232.68 68.5467 226.891 68.484 221.502 70.5328C221.599 69.7968 221.714 69.0768 221.776 68.3302C222.43 60.4317 220.962 52.4886 217.589 45.6739C214.215 38.8592 209.114 33.5343 203.04 30.4855C196.966 27.4367 190.24 26.8257 183.855 28.7428C177.471 30.6598 171.767 35.0033 167.586 41.1317C165.911 36.4669 163.27 32.4003 159.916 29.3232C156.562 26.246 152.609 24.2617 148.436 23.5611C144.262 22.8604 140.01 23.467 136.087 25.3225C132.165 27.1781 128.704 30.2201 126.037 34.1561C124.791 26.7553 122.059 19.8364 118.081 14.0064C114.102 8.17646 108.999 3.61353 103.218 0.717911C97.4373 -2.17771 91.156 -3.31753 84.9251 -2.60157C78.6942 -1.88561 72.7041 0.664257 67.4803 4.82434C67.5625 4.01578 67.6024 3.20176 67.5996 2.38714C67.6008 -3.15218 65.7784 -8.46527 62.5333 -12.3837C59.2882 -16.3021 54.8861 -18.5049 50.2951 -18.5077C47.9724 -18.5144 45.6728 -17.95 43.5368 -16.8491C43.2224 -23.2333 41.2361 -29.3321 37.8643 -34.2667C34.4924 -39.2012 29.9091 -42.7166 24.7749 -44.3062C19.6407 -45.8958 14.2208 -45.4775 9.29628 -43.1116C4.37178 -40.7457 0.197037 -36.5544 -2.62627 -31.1417C-9.27568 -34.8549 -16.6974 -36.0676 -23.9258 -34.622C-31.1542 -33.1765 -37.8548 -29.1396 -43.1557 -23.0365C-48.4567 -16.9335 -52.1126 -9.04686 -53.6479 -0.402626C-55.1832 8.2416 -54.5268 17.2433 -51.7641 25.4312C-58.4233 26.8444 -64.456 31.0461 -68.8008 37.297C-73.1456 43.5478 -75.524 51.4473 -75.5174 59.6053C-75.5174 59.8773 -75.5174 60.1386 -75.5174 60.4213V170.938H549.868V44.5448C549.865 32.0895 545.763 20.1451 538.463 11.3384C531.163 2.53162 521.263 -2.41652 510.94 -2.41793Z" fill="white"/>
<path opacity="0.2" d="M592.861 -5.59605C589.606 -5.59544 586.365 -5.09024 583.217 -4.09285C580.691 -12.8324 576.196 -20.5483 570.238 -26.3737C564.279 -32.1991 557.093 -35.9029 549.487 -37.0692C541.88 -38.2354 534.155 -36.8178 527.18 -32.9756C520.204 -29.1334 514.254 -23.0188 509.999 -15.3191C507.891 -16.9825 505.509 -18.0741 503.017 -18.5185C500.526 -18.963 497.984 -18.7497 495.567 -17.8933C493.151 -17.037 490.917 -15.558 489.019 -13.5584C487.122 -11.5588 485.607 -9.08619 484.578 -6.31107C480.31 -8.80535 475.61 -10.0346 470.87 -9.89691C466.129 -9.75916 461.484 -8.25836 457.321 -5.51908C453.157 -2.7798 449.594 1.11892 446.929 5.85347C444.263 10.588 442.572 16.0218 441.995 21.7038C437.667 14.5956 431.812 9.05006 425.064 5.66602C418.315 2.28198 410.929 1.18809 403.703 2.50251C396.477 3.81692 389.686 7.48969 384.063 13.1241C378.44 18.7585 374.199 26.1405 371.799 34.4726C366.423 32.7629 360.796 32.544 355.34 33.8323C349.885 35.1207 344.741 37.8828 340.295 41.9117C335.849 45.9407 332.216 51.132 329.668 57.0968C327.12 63.0616 325.723 69.6451 325.582 76.3541C321.332 73.8775 316.681 72.5669 311.962 72.5163C307.243 72.4656 302.573 73.6763 298.287 76.0614C295.82 71.3273 292.172 67.6611 287.868 65.5916C283.564 63.522 278.827 63.156 274.34 64.5463C269.853 65.9366 265.847 69.0113 262.901 73.3272C259.955 77.6431 258.22 82.977 257.947 88.5599C254.95 87.0275 251.624 86.7027 248.463 87.6338C245.301 88.5649 242.473 90.7022 240.398 93.7283C235.483 90.3088 229.698 89.1926 224.145 90.5924C224.112 84.9698 222.986 79.435 220.86 74.4324C218.734 69.4299 215.665 65.0989 211.901 61.7872C208.137 58.4756 203.782 56.2755 199.186 55.3636C194.591 54.4517 189.882 54.8534 185.437 56.5365C185.545 55.7202 185.675 54.9151 185.741 54.0819C186.566 44.293 184.461 34.4709 179.809 26.3923C175.156 18.3137 168.262 12.512 160.373 10.0367C152.485 7.56144 144.123 8.57597 136.801 12.8968C129.478 17.2177 123.679 24.5595 120.451 33.5943C117.748 31.9528 114.803 30.9726 111.785 30.7101C108.768 30.4477 105.737 30.9081 102.867 32.065C99.9975 33.2219 97.3456 35.0524 95.064 37.4511C92.7825 39.8499 90.9164 42.7696 89.5731 46.0422C85.1601 42.1028 79.7252 40.1996 74.251 40.6767C68.7769 41.1537 63.6247 43.9796 59.7262 48.6433C57.1764 42.3496 53.5443 36.7846 49.0721 32.3195C44.5999 27.8544 39.3905 24.5918 33.7913 22.7495C28.192 20.9071 22.3318 20.5272 16.6013 21.6352C10.8709 22.7431 5.40199 25.3135 0.559464 29.1748C0.646347 28.3118 0.6884 27.4431 0.685379 26.5737C0.682907 20.6637 -1.26326 14.9967 -4.72536 10.8182C-8.18745 6.63972 -12.8822 4.2917 -17.7777 4.29021C-20.2555 4.28277 -22.7086 4.88425 -24.9876 6.05803C-25.3199 -0.759369 -27.4369 -7.27326 -31.0335 -12.5445C-34.6301 -17.8157 -39.5203 -21.5719 -44.9993 -23.2715C-50.4782 -24.9711 -56.2627 -24.5263 -61.5187 -22.0012C-66.7747 -19.4762 -71.2307 -15.0013 -74.2442 -9.22177C-81.3419 -13.1873 -89.2641 -14.4811 -96.9795 -12.9349C-104.695 -11.3886 -111.846 -7.07394 -117.501 -0.552551C-123.157 5.96884 -127.055 14.3948 -128.688 23.6283C-130.321 32.8617 -129.614 42.4749 -126.658 51.2162C-133.761 52.7295 -140.195 57.2163 -144.83 63.8884C-149.465 70.5605 -152.003 78.991 -152 87.6986C-152 87.9913 -152 88.2616 -152 88.5712V200H630.711V40.1082C630.712 34.1068 629.734 28.1638 627.832 22.6188C625.931 17.0738 623.143 12.0353 619.628 7.7911C616.113 3.54691 611.94 0.180183 607.348 -2.11681C602.755 -4.4138 597.832 -5.59606 592.861 -5.59605Z" fill="white"/>
<path d="M614.202 98.3171V173.753H-135.677V95.4322C-135.676 88.9649 -134.153 82.5842 -131.226 76.7811C-128.299 70.978 -124.046 65.9073 -118.795 61.959C-113.543 58.0107 -107.433 55.2902 -100.935 54.0069C-94.4359 52.7235 -87.7221 52.9115 -81.3096 54.5564C-78.4183 46.4712 -73.2724 39.3329 -66.4504 33.9437C-59.6283 28.5544 -51.4004 25.1279 -42.6915 24.0491C-33.9826 22.9703 -25.1377 24.282 -17.1511 27.8369C-9.16453 31.3918 -2.35268 37.0489 2.5188 44.1724C4.93315 42.634 7.6609 41.6247 10.5139 41.2142C13.3669 40.8037 16.2772 41.0018 19.0442 41.7947C21.8111 42.5876 24.3688 43.9565 26.5407 45.807C28.7127 47.6575 30.4473 49.9455 31.6248 52.5132C36.653 50.1334 42.2036 48.9945 47.7887 49.1968C53.3739 49.399 58.8226 50.9361 63.6561 53.6731C68.4896 56.4101 72.5599 60.2631 75.5094 64.8936C78.4589 69.5241 80.1973 74.7903 80.5717 80.2295C81.7832 80.0286 83.0097 79.9266 84.2386 79.9246C88.9927 79.9231 93.6171 81.4376 97.4071 84.2372C101.197 87.0368 103.945 90.9681 105.232 95.4322H106.048V96.7973C110.251 95.0657 114.778 94.2086 119.34 94.2807C123.902 94.3528 128.398 95.3525 132.542 97.2159C135.075 93.3057 138.814 90.2795 143.221 88.5723C147.628 86.8651 152.477 86.5649 157.07 87.7148C161.663 88.8646 165.764 91.4054 168.784 94.9718C171.803 98.5383 173.586 102.947 173.875 107.563C175.792 106.765 177.856 106.356 179.94 106.362C181.976 106.363 183.992 106.756 185.873 107.517C187.754 108.278 189.463 109.393 190.902 110.799C192.341 112.204 193.482 113.872 194.261 115.708C195.039 117.543 195.439 119.51 195.438 121.497C195.442 122.085 195.406 122.674 195.33 123.258C201.533 119.265 208.898 117.349 216.315 117.797C223.732 118.245 230.799 121.034 236.449 125.742C236.749 121.353 238.066 117.087 240.302 113.266C242.538 109.445 245.634 106.169 249.356 103.685C253.078 101.201 257.33 99.5734 261.791 98.9249C266.252 98.2764 270.806 98.6241 275.109 99.9416C274.997 99.2863 274.871 98.6356 274.801 97.9622C273.984 90.0537 276.093 82.1208 280.748 75.5967C285.403 69.0725 292.297 64.3874 300.184 62.3878C308.071 60.3882 316.431 61.2059 323.754 64.6933C331.077 68.1807 336.88 74.1077 340.114 81.4035C344.947 79.0261 350.487 78.3958 355.751 79.6243C357.802 75.9338 360.753 72.7926 364.343 70.4782C367.933 68.1637 372.052 66.7471 376.337 66.3536C380.621 65.9601 384.939 66.6017 388.909 68.2217C392.879 69.8418 396.379 72.3905 399.1 75.6427C400.427 69.2537 403.342 63.28 407.588 58.2462C411.834 53.2123 417.283 49.2721 423.455 46.7715C429.627 44.2709 436.334 43.2864 442.987 43.9043C449.64 44.5222 456.036 46.7236 461.613 50.3154C461.526 49.6179 461.484 48.9158 461.487 48.2132C461.486 45.8464 461.963 43.5026 462.891 41.3157C463.818 39.1287 465.178 37.1414 466.893 35.4672C468.609 33.7931 470.645 32.4649 472.886 31.5585C475.128 30.6521 477.53 30.1852 479.957 30.1846C482.435 30.1786 484.889 30.6648 487.169 31.6135C487.505 26.1049 489.625 20.8426 493.225 16.5849C496.824 12.3272 501.716 9.29411 507.196 7.92265C512.676 6.55118 518.461 6.9122 523.717 8.95367C528.973 10.9951 533.429 14.6117 536.443 19.282C543.543 16.0769 551.468 15.0312 559.186 16.2809C566.904 17.5307 574.057 21.0179 579.715 26.2888C585.372 31.5596 589.272 38.3697 590.905 45.8325C592.539 53.2953 591.831 61.065 588.875 68.1301C595.98 69.3531 602.416 72.9796 607.053 78.3722C611.689 83.7648 614.228 90.5786 614.225 97.6164C614.211 97.8484 614.206 98.0805 614.202 98.3171Z" fill="white"/>
</g>
<defs>
<clipPath id="clip0_2584_18366">
<rect width="428" height="125" fill="white"/>
</clipPath>
</defs>
</svg>
