<svg width="428" height="280" viewBox="0 0 428 280" fill="none" xmlns="http://www.w3.org/2000/svg">
<g opacity="0.8" clip-path="url(#clip0_459_19275)">
<path opacity="0.05" d="M1315.19 71.5099C1308.21 71.511 1301.26 72.4084 1294.51 74.1799C1289.09 58.6568 1279.46 44.9517 1266.68 34.6047C1253.9 24.2577 1238.49 17.6788 1222.18 15.6073C1205.87 13.5359 1189.31 16.0539 1174.35 22.8784C1159.39 29.703 1146.63 40.5636 1137.51 54.2399C1132.99 51.2853 1127.88 49.3464 1122.54 48.557C1117.2 47.7676 1111.75 48.1465 1106.56 49.6675C1101.38 51.1885 1096.59 53.8155 1092.52 57.3672C1088.46 60.9189 1085.21 65.3108 1083 70.2399C1073.85 65.8096 1063.77 63.6261 1053.61 63.8708C1043.44 64.1154 1033.48 66.7812 1024.55 71.6467C1015.62 76.5122 1007.99 83.4371 1002.27 91.8466C996.555 100.256 992.928 109.908 991.69 120C982.41 107.374 969.856 97.5244 955.385 91.5136C940.915 85.5029 925.077 83.5599 909.582 85.8946C894.088 88.2293 879.526 94.7529 867.469 104.761C855.412 114.769 846.318 127.88 841.17 142.68C829.643 139.643 817.578 139.254 805.879 141.543C794.181 143.831 783.151 148.737 773.618 155.893C764.085 163.05 756.294 172.27 750.831 182.865C745.367 193.46 742.372 205.153 742.07 217.07C732.956 212.671 722.983 210.343 712.863 210.253C702.744 210.163 692.73 212.314 683.54 216.55C678.251 208.141 670.428 201.629 661.2 197.953C651.971 194.278 641.814 193.627 632.192 196.097C622.57 198.566 613.981 204.028 607.663 211.694C601.346 219.359 597.626 228.834 597.04 238.75C590.615 236.028 583.483 235.451 576.704 237.105C569.925 238.759 563.86 242.555 559.41 247.93C548.872 241.856 536.466 239.874 524.56 242.36C524.488 232.373 522.075 222.542 517.516 213.657C512.956 204.771 506.377 197.078 498.305 191.196C490.234 185.314 480.896 181.406 471.042 179.787C461.187 178.167 451.089 178.88 441.56 181.87C441.79 180.42 442.07 178.99 442.21 177.51C443.979 160.123 439.467 142.677 429.49 128.328C419.513 113.978 404.73 103.674 387.816 99.2769C370.901 94.8803 352.971 96.6823 337.27 104.357C321.568 112.032 309.132 125.072 302.21 141.12C296.415 138.204 290.1 136.463 283.629 135.997C277.159 135.531 270.66 136.349 264.506 138.404C258.353 140.458 252.666 143.71 247.774 147.97C242.882 152.231 238.88 157.417 236 163.23C226.537 156.233 214.883 152.852 203.145 153.7C191.407 154.547 180.36 159.566 172 167.85C166.533 156.671 158.744 146.786 149.155 138.856C139.565 130.925 128.395 125.13 116.388 121.857C104.382 118.585 91.8159 117.91 79.5282 119.878C67.2405 121.846 55.5137 126.412 45.13 133.27C45.3163 131.737 45.4065 130.194 45.4 128.65C45.3947 118.153 41.2216 108.087 33.7979 100.665C26.3742 93.2431 16.3074 89.0726 5.81 89.0699C0.496979 89.0567 -4.76312 90.1251 -9.64999 92.2099C-10.3625 80.1009 -14.902 68.5309 -22.614 59.1681C-30.3261 49.8054 -40.8123 43.1336 -52.5606 40.1148C-64.309 37.096 -76.7125 37.886 -87.9829 42.371C-99.2533 46.8561 -108.808 54.8044 -115.27 65.0699C-130.489 58.0264 -147.477 55.7283 -164.021 58.4747C-180.564 61.2211 -195.898 68.8849 -208.025 80.4682C-220.152 92.0515 -228.511 107.018 -232.013 123.418C-235.515 139.819 -233.998 156.894 -227.66 172.42C-242.891 175.108 -256.688 183.077 -266.626 194.928C-276.564 206.779 -282.007 221.754 -282 237.22C-282 237.74 -282 238.22 -282 238.77V436.69H1396.35V152.69C1396.35 142.03 1394.26 131.474 1390.18 121.625C1386.1 111.776 1380.12 102.827 1372.59 95.2882C1365.05 87.7497 1356.1 81.7697 1346.25 77.6898C1336.41 73.6099 1325.85 71.5099 1315.19 71.5099Z" fill="#E51A83"/>
<path opacity="0.03" d="M1360.86 214.5V380.28H-246.54V208.16C-246.536 193.947 -243.272 179.925 -236.998 167.172C-230.724 154.419 -221.608 143.275 -210.351 134.598C-199.094 125.922 -185.997 119.943 -172.067 117.123C-158.137 114.302 -143.745 114.715 -130 118.33C-123.802 100.562 -112.772 84.8747 -98.1485 73.0311C-83.5251 61.1875 -65.8883 53.6572 -47.2203 51.2864C-28.5523 48.9157 -9.59302 51.7984 7.52663 59.6107C24.6463 67.4231 39.2478 79.8553 49.69 95.5102C54.8653 92.1293 60.7123 89.9113 66.8279 89.0091C72.9434 88.107 79.1818 88.5422 85.1129 90.2847C91.0439 92.0272 96.5264 95.0356 101.182 99.1023C105.838 103.169 109.556 108.197 112.08 113.84C122.858 108.61 134.756 106.107 146.728 106.552C158.7 106.996 170.38 110.374 180.741 116.389C191.101 122.404 199.826 130.871 206.149 141.048C212.471 151.224 216.197 162.797 217 174.75C219.597 174.309 222.226 174.085 224.86 174.08C235.051 174.077 244.963 177.405 253.087 183.558C261.211 189.71 267.101 198.35 269.86 208.16H271.61V211.16C280.619 207.355 290.323 205.471 300.102 205.63C309.881 205.788 319.519 207.985 328.4 212.08C333.83 203.487 341.844 196.836 351.291 193.085C360.738 189.333 371.132 188.673 380.977 191.2C390.823 193.727 399.614 199.311 406.087 207.148C412.559 214.986 416.38 224.674 417 234.82C421.109 233.066 425.532 232.168 430 232.18C434.365 232.183 438.687 233.045 442.719 234.718C446.751 236.391 450.414 238.842 453.498 241.93C456.583 245.019 459.029 248.684 460.697 252.718C462.365 256.752 463.223 261.075 463.22 265.44C463.229 266.734 463.152 268.027 462.99 269.31C476.286 260.537 492.074 256.325 507.972 257.31C523.871 258.295 539.019 264.423 551.13 274.77C551.773 265.124 554.597 255.749 559.389 247.352C564.182 238.956 570.818 231.757 578.797 226.297C586.776 220.838 595.89 217.261 605.452 215.836C615.015 214.411 624.776 215.175 634 218.07C633.76 216.63 633.49 215.2 633.34 213.72C631.587 196.34 636.109 178.907 646.087 164.569C656.065 150.231 670.842 139.935 687.748 135.541C704.655 131.146 722.575 132.943 738.272 140.607C753.969 148.271 766.407 161.297 773.34 177.33C783.7 172.106 795.576 170.72 806.86 173.42C811.255 165.31 817.58 158.407 825.276 153.32C832.972 148.234 841.802 145.121 850.986 144.256C860.17 143.391 869.426 144.801 877.936 148.362C886.446 151.922 893.948 157.523 899.78 164.67C902.624 150.629 908.872 137.502 917.974 126.439C927.076 115.376 938.755 106.717 951.985 101.222C965.215 95.7267 979.592 93.563 993.853 94.9209C1008.11 96.2788 1021.82 101.117 1033.78 109.01C1033.59 107.477 1033.5 105.934 1033.51 104.39C1033.51 99.189 1034.53 94.0382 1036.52 89.232C1038.51 84.4259 1041.42 80.0585 1045.1 76.3793C1048.77 72.7001 1053.14 69.7812 1057.94 67.7893C1062.75 65.7974 1067.9 64.7715 1073.1 64.7702C1078.41 64.757 1083.67 65.8253 1088.56 67.9102C1089.28 55.8043 1093.83 44.2397 1101.54 34.8829C1109.26 25.5262 1119.74 18.8605 1131.49 15.8465C1143.23 12.8325 1155.64 13.6259 1166.9 18.1123C1178.17 22.5987 1187.72 30.5465 1194.18 40.8101C1209.4 33.7666 1226.39 31.4685 1242.93 34.2149C1259.47 36.9614 1274.81 44.6251 1286.94 56.2084C1299.06 67.7917 1307.42 82.7579 1310.92 99.1584C1314.43 115.559 1312.91 132.634 1306.57 148.16C1321.8 150.848 1335.6 158.818 1345.54 170.669C1355.47 182.52 1360.92 197.494 1360.91 212.96C1360.88 213.47 1360.87 213.98 1360.86 214.5Z" fill="#E51A83"/>
</g>
<defs>
<clipPath id="clip0_459_19275">
<rect width="1440" height="414" fill="white" transform="translate(-140 -63.9302)"/>
</clipPath>
</defs>
</svg>
