<svg width="1440" height="295" viewBox="0 0 1440 295" fill="none" xmlns="http://www.w3.org/2000/svg">
<g clip-path="url(#clip0_1046_17445)">
<rect width="1440" height="295" fill="#E51A83"/>
<g clip-path="url(#clip1_1046_17445)">
<path opacity="0.5" d="M1542.81 -50.3899C1535.77 -50.4076 1528.86 -48.5172 1522.81 -44.9199C1522.81 -45.3799 1522.81 -45.8199 1522.81 -46.2799C1522.81 -57.9383 1519.08 -69.2901 1512.16 -78.6762C1505.25 -88.0622 1495.51 -94.9904 1484.38 -98.4481C1473.24 -101.906 1461.29 -101.712 1450.28 -97.8941C1439.26 -94.0765 1429.76 -86.8357 1423.15 -77.2299C1420.59 -82.6484 1416.89 -87.4459 1412.3 -91.2895C1407.7 -95.1332 1402.32 -97.9308 1396.54 -99.4883C1390.75 -101.046 1384.7 -101.326 1378.8 -100.309C1372.89 -99.2923 1367.28 -97.0029 1362.35 -93.5999C1355.74 -103.309 1346.45 -110.88 1335.6 -115.384C1324.75 -119.887 1312.83 -121.128 1301.29 -118.954C1289.74 -116.78 1279.09 -111.285 1270.62 -103.144C1262.16 -95.0024 1256.25 -84.5681 1253.63 -73.1199C1237.72 -79.3764 1220.19 -80.2275 1203.75 -75.5419C1187.3 -70.8564 1172.85 -60.8941 1162.63 -47.1899C1151.38 -59.6381 1137.08 -68.9435 1121.14 -74.1907C1105.21 -79.438 1088.18 -80.4465 1071.73 -77.117C1055.28 -73.7875 1039.99 -66.2346 1027.35 -55.2013C1014.71 -44.168 1005.15 -30.0342 999.63 -14.1899C986.493 -17.6372 972.741 -18.0268 959.431 -15.3286C946.12 -12.6304 933.605 -6.9164 922.848 1.37437C912.09 9.66515 903.377 20.3119 897.378 32.4964C891.378 44.6809 888.252 58.0787 888.24 71.6601C888.24 74.6601 888.39 77.5401 888.67 80.4201C884.896 79.7616 881.072 79.427 877.24 79.4201C867.652 79.4039 858.177 81.4859 849.48 85.5201C844.356 77.4079 836.792 71.1297 827.874 67.5886C818.957 64.0475 809.146 63.426 799.853 65.8135C790.56 68.2009 782.264 73.4743 776.157 80.8751C770.051 88.2759 766.449 97.4228 765.87 107C761.999 105.345 757.83 104.498 753.62 104.51C749.007 104.508 744.45 105.526 740.277 107.492C736.103 109.458 732.416 112.322 729.48 115.88C719.29 109.994 707.287 108.075 695.77 110.49C695.702 100.826 693.368 91.3125 688.955 82.7142C684.543 74.116 678.175 66.6726 670.363 60.9822C662.552 55.2918 653.515 51.5131 643.977 49.9496C634.44 48.3862 624.669 49.0816 615.45 51.9801C615.67 50.5901 615.94 49.2001 616.08 47.7701C617.751 30.9767 613.367 14.1389 603.718 0.293045C594.069 -13.5528 579.79 -23.4953 563.457 -27.7416C547.123 -31.9878 529.81 -30.2583 514.64 -22.8649C499.469 -15.4715 487.439 -2.90086 480.72 12.5801C471.787 8.07553 461.659 6.5078 451.782 8.10068C441.905 9.69356 432.784 14.3656 425.72 21.4501C416.847 17.5351 407.087 16.0685 397.455 17.2028C387.823 18.3371 378.671 22.0309 370.95 27.9001C367.412 29.2955 364.054 31.1119 360.95 33.3101C357.695 20.1578 351.331 7.97881 342.392 -2.20353C333.454 -12.3859 322.202 -20.2741 309.582 -25.2054C296.962 -30.1368 283.343 -31.9671 269.869 -30.5428C256.395 -29.1184 243.46 -24.4809 232.15 -17.0199C232.336 -18.5025 232.427 -19.9956 232.42 -21.4899C232.418 -27.815 230.85 -34.0413 227.857 -39.6132C224.864 -45.1852 220.537 -49.9295 215.265 -53.4229C209.992 -56.9164 203.936 -59.0503 197.638 -59.6343C191.34 -60.2183 184.995 -59.2342 179.17 -56.7699C178.489 -68.4886 174.101 -79.6876 166.64 -88.75C159.179 -97.8125 149.032 -104.269 137.662 -107.188C126.292 -110.107 114.289 -109.337 103.385 -104.989C92.4816 -100.642 83.2418 -92.9413 77 -82.9999C62.2817 -89.8164 45.852 -92.0436 29.8501 -89.3915C13.8482 -86.7394 -0.984444 -79.3309 -12.7167 -68.1306C-24.449 -56.9303 -32.5373 -42.4571 -35.9285 -26.5954C-39.3197 -10.7337 -37.8567 5.78157 -31.73 20.8001C-46.4623 23.3968 -59.8077 31.1035 -69.4206 42.5654C-79.0334 54.0272 -84.2984 68.5108 -84.29 83.4701C-84.29 83.9701 -84.29 84.4701 -84.29 84.9701V310H1582V-11.1799C1582 -16.3277 1580.99 -21.4254 1579.02 -26.1818C1577.05 -30.9383 1574.16 -35.2604 1570.53 -38.9014C1566.89 -42.5424 1562.57 -45.4309 1557.81 -47.4021C1553.05 -49.3733 1547.96 -50.3886 1542.81 -50.3899Z" fill="#E51A83"/>
<path opacity="0.1" d="M1279.53 71.0851C1272.35 71.0849 1265.2 72.0082 1258.25 73.8322C1252.68 57.8716 1242.77 43.78 1229.62 33.1413C1216.48 22.5025 1200.63 15.7382 1183.85 13.6087C1167.07 11.4791 1150.03 14.0686 1134.64 21.0862C1119.26 28.1037 1106.13 39.2712 1096.75 53.3335C1092.1 50.295 1086.85 48.3008 1081.35 47.4884C1075.85 46.6761 1070.25 47.065 1064.92 48.6283C1059.59 50.1917 1054.66 52.8922 1050.47 56.5435C1046.29 60.1949 1042.95 64.7102 1040.68 69.7779C1030.99 65.0872 1020.3 62.8448 1009.55 63.2478C998.793 63.6507 988.301 66.6866 978.995 72.0889C969.688 77.4912 961.851 85.0946 956.171 94.2315C950.491 103.368 947.143 113.759 946.421 124.491C937.835 123.032 929.007 124.275 921.159 128.05C913.311 131.824 906.831 137.942 902.614 145.558C896.426 143.168 889.761 142.271 883.161 142.942C876.561 143.613 870.213 145.832 864.634 149.419C859.054 153.006 854.401 157.859 851.053 163.583C847.706 169.307 845.758 175.74 845.368 182.359C841.774 180.822 837.904 180.035 833.995 180.048C830.166 180.049 826.375 180.804 822.839 182.269C819.302 183.735 816.089 185.882 813.382 188.589C810.676 191.295 808.53 194.508 807.066 198.044C805.602 201.579 804.849 205.369 804.85 209.195C804.845 210.332 804.911 211.467 805.049 212.596C792.418 204.27 777.256 200.657 762.225 202.389C747.193 204.121 733.253 211.088 722.848 222.068C715.815 212.207 705.839 204.824 694.35 200.978C682.861 197.133 670.448 197.021 658.892 200.66C659.1 199.353 659.346 198.074 659.479 196.748C660.883 182.719 657.735 168.61 650.501 156.506C643.267 144.402 632.33 134.943 619.304 129.528C606.279 124.113 591.857 123.028 578.168 126.433C564.478 129.838 552.247 137.553 543.281 148.438C539.69 140.152 534.027 132.929 526.835 127.464C519.644 121.998 511.166 118.473 502.218 117.229C493.269 115.985 484.151 117.062 475.74 120.358C467.329 123.654 459.907 129.057 454.189 136.048C451.518 122.903 445.66 110.613 437.128 100.258C428.597 89.9029 417.654 81.7982 405.259 76.655C392.863 71.5118 379.394 69.4872 366.033 70.7589C352.673 72.0306 339.828 76.5597 328.627 83.9488C328.803 82.5127 328.889 81.0668 328.883 79.6199C328.885 69.7809 324.978 60.3438 318.019 53.384C311.061 46.4241 301.622 42.5114 291.777 42.5064C286.797 42.4946 281.866 43.497 277.286 45.4524C276.611 34.1129 272.352 23.2801 265.122 14.5154C257.892 5.75064 248.064 -0.493408 237.055 -3.31686C226.046 -6.14031 214.424 -5.39734 203.864 -1.19501C193.305 3.00731 184.353 10.4519 178.299 20.0659C164.041 13.4706 148.127 11.3166 132.627 13.8842C117.127 16.4518 102.759 23.6221 91.3926 34.4623C80.0259 45.3025 72.1866 59.3108 68.8945 74.6647C65.6023 90.0186 67.0099 106.007 72.9339 120.551C58.6547 123.061 45.7187 130.524 36.4023 141.627C27.0859 152.73 21.986 166.761 22 181.251C22 181.734 22 182.198 22 182.7V379H1363V154.5C1362.99 132.377 1354.2 111.162 1338.55 95.5191C1322.89 79.8765 1301.66 71.0876 1279.53 71.0851Z" fill="white"/>
<path opacity="0.2" d="M1455.19 65.4401C1448.21 65.4412 1441.26 66.3385 1434.51 68.1101C1429.09 52.5869 1419.46 38.8818 1406.68 28.5348C1393.9 18.1878 1378.49 11.609 1362.18 9.53752C1345.87 7.46604 1329.31 9.98406 1314.35 16.8086C1299.39 23.6332 1286.63 34.4938 1277.51 48.1701C1272.99 45.2155 1267.88 43.2766 1262.54 42.4872C1257.2 41.6978 1251.75 42.0767 1246.56 43.5977C1241.38 45.1187 1236.59 47.7457 1232.52 51.2973C1228.46 54.849 1225.21 59.2409 1223 64.1701C1213.85 59.7398 1203.77 57.5563 1193.61 57.8009C1183.44 58.0456 1173.48 60.7113 1164.55 65.5768C1155.62 70.4423 1147.99 77.3673 1142.27 85.7768C1136.55 94.1863 1132.93 103.838 1131.69 113.93C1122.41 101.305 1109.86 91.4546 1095.39 85.4438C1080.91 79.4331 1065.08 77.4901 1049.58 79.8248C1034.09 82.1595 1019.53 88.683 1007.47 98.6909C995.412 108.699 986.318 121.811 981.17 136.61C969.643 133.573 957.578 133.185 945.879 135.473C934.181 137.761 923.151 142.667 913.618 149.824C904.085 156.98 896.294 166.201 890.831 176.795C885.367 187.39 882.372 199.084 882.07 211C872.956 206.601 862.983 204.273 852.863 204.183C842.744 204.093 832.73 206.244 823.54 210.48C818.251 202.071 810.428 195.56 801.2 191.884C791.971 188.208 781.814 187.558 772.192 190.027C762.57 192.496 753.981 197.958 747.663 205.624C741.346 213.29 737.626 222.764 737.04 232.68C730.615 229.958 723.483 229.381 716.704 231.035C709.925 232.689 703.86 236.485 699.41 241.86C688.872 235.786 676.466 233.804 664.56 236.29C664.488 226.303 662.075 216.472 657.516 207.587C652.956 198.701 646.377 191.009 638.305 185.126C630.234 179.244 620.896 175.336 611.042 173.717C601.187 172.097 591.089 172.811 581.56 175.8C581.79 174.35 582.07 172.92 582.21 171.44C583.979 154.053 579.467 136.607 569.49 122.258C559.513 107.909 544.73 97.6037 527.816 93.2071C510.901 88.8105 492.971 90.6125 477.27 98.2872C461.568 105.962 449.132 119.002 442.21 135.05C436.415 132.134 430.1 130.393 423.629 129.927C417.159 129.461 410.66 130.279 404.506 132.334C398.353 134.389 392.666 137.64 387.774 141.901C382.882 146.161 378.88 151.347 376 157.16C366.537 150.163 354.883 146.782 343.145 147.63C331.407 148.477 320.36 153.496 312 161.78C306.533 150.601 298.744 140.717 289.155 132.786C279.565 124.855 268.395 119.06 256.388 115.787C244.382 112.515 231.816 111.84 219.528 113.808C207.241 115.776 195.514 120.342 185.13 127.2C185.316 125.667 185.406 124.124 185.4 122.58C185.395 112.083 181.222 102.017 173.798 94.5951C166.374 87.1733 156.307 83.0028 145.81 83.0001C140.497 82.9869 135.237 84.0553 130.35 86.1401C129.638 74.0311 125.098 62.4611 117.386 53.0983C109.674 43.7356 99.1877 37.0638 87.4394 34.045C75.691 31.0261 63.2875 31.8162 52.0171 36.3012C40.7467 40.7863 31.1918 48.7346 24.73 59.0001C9.51062 51.9566 -7.47682 49.6585 -24.0206 52.4049C-40.5644 55.1513 -55.8981 62.8151 -68.0252 74.3984C-80.1524 85.9817 -88.5111 100.948 -92.0132 117.348C-95.5152 133.749 -93.9983 150.824 -87.66 166.35C-102.891 169.038 -116.688 177.008 -126.626 188.859C-136.564 200.71 -142.007 215.684 -142 231.15C-142 231.67 -142 232.15 -142 232.7V430.62H1536.35V146.62C1536.35 135.96 1534.26 125.404 1530.18 115.555C1526.1 105.706 1520.12 96.7569 1512.59 89.2184C1505.05 81.6799 1496.1 75.6999 1486.25 71.62C1476.41 67.54 1465.85 65.4401 1455.19 65.4401Z" fill="white"/>
<path d="M1500.95 250.011V384H-107V244.887C-106.996 233.399 -103.731 222.066 -97.4546 211.759C-91.1786 201.451 -82.0594 192.444 -70.7988 185.432C-59.5381 178.419 -46.4363 173.586 -32.5014 171.307C-18.5666 169.027 -4.1702 169.361 9.57987 172.283C15.7796 157.922 26.8138 145.243 41.4422 135.671C56.0707 126.098 73.7135 120.012 92.3879 118.096C111.062 116.18 130.028 118.51 147.154 124.824C164.279 131.138 178.886 141.186 189.331 153.839C194.508 151.106 200.357 149.314 206.475 148.585C212.593 147.855 218.833 148.207 224.766 149.616C230.699 151.024 236.184 153.455 240.841 156.742C245.498 160.029 249.218 164.093 251.743 168.654C262.525 164.427 274.427 162.404 286.403 162.763C298.379 163.122 310.062 165.853 320.427 170.714C330.791 175.576 339.519 182.419 345.844 190.644C352.168 198.869 355.896 208.222 356.699 217.884C359.296 217.527 361.926 217.346 364.561 217.342C374.756 217.339 384.671 220.029 392.798 225.002C400.925 229.975 406.817 236.958 409.577 244.887H411.327V247.311C420.34 244.236 430.047 242.713 439.829 242.841C449.611 242.969 459.252 244.745 468.137 248.055C473.568 241.11 481.585 235.734 491.036 232.702C500.486 229.67 510.883 229.137 520.732 231.179C530.581 233.221 539.375 237.734 545.85 244.069C552.325 250.404 556.147 258.234 556.767 266.434C560.877 265.016 565.302 264.29 569.771 264.3C574.138 264.303 578.461 265 582.495 266.352C586.528 267.704 590.192 269.684 593.278 272.181C596.364 274.677 598.811 277.64 600.479 280.9C602.148 284.16 603.005 287.654 603.003 291.182C603.012 292.228 602.935 293.273 602.773 294.31C616.073 287.219 631.866 283.815 647.771 284.611C663.675 285.407 678.828 290.36 690.943 298.723C691.586 290.926 694.411 283.349 699.205 276.563C703.999 269.777 710.637 263.958 718.619 259.546C726.601 255.133 735.718 252.242 745.284 251.09C754.849 249.939 764.614 250.556 773.841 252.896C773.601 251.732 773.331 250.577 773.181 249.38C771.428 235.333 775.951 221.243 785.932 209.655C795.914 198.067 810.696 189.745 827.608 186.193C844.52 182.641 862.447 184.094 878.149 190.288C893.851 196.482 906.294 207.01 913.229 219.969C923.592 215.746 935.472 214.627 946.76 216.809C951.157 210.254 957.484 204.674 965.183 200.563C972.881 196.452 981.714 193.936 990.901 193.237C1000.09 192.538 1009.35 193.678 1017.86 196.555C1026.37 199.433 1033.88 203.96 1039.71 209.737C1042.56 198.388 1048.81 187.778 1057.91 178.837C1067.02 169.896 1078.7 162.897 1091.94 158.456C1105.17 154.014 1119.55 152.265 1133.82 153.363C1148.08 154.46 1161.8 158.37 1173.76 164.75C1173.57 163.511 1173.48 162.264 1173.49 161.016C1173.49 156.812 1174.51 152.649 1176.5 148.765C1178.49 144.88 1181.4 141.35 1185.08 138.377C1188.76 135.403 1193.12 133.044 1197.93 131.434C1202.74 129.824 1207.89 128.995 1213.09 128.994C1218.41 128.983 1223.67 129.847 1228.56 131.532C1229.28 121.747 1233.82 112.4 1241.54 104.838C1249.26 97.2755 1259.75 91.8881 1271.5 89.4521C1283.25 87.0161 1295.66 87.6573 1306.93 91.2834C1318.2 94.9095 1327.75 101.333 1334.21 109.629C1349.44 103.936 1366.43 102.078 1382.98 104.298C1399.53 106.518 1414.87 112.712 1427 122.074C1439.13 131.436 1447.49 143.532 1451 156.788C1454.5 170.043 1452.98 183.844 1446.64 196.393C1461.88 198.565 1475.68 205.006 1485.62 214.585C1495.56 224.163 1501.01 236.266 1501 248.766C1500.97 249.178 1500.96 249.591 1500.95 250.011Z" fill="white"/>
</g>
</g>
<defs>
<clipPath id="clip0_1046_17445">
<rect width="1440" height="295" fill="white"/>
</clipPath>
<clipPath id="clip1_1046_17445">
<rect width="1440" height="360" fill="white" transform="translate(0 10)"/>
</clipPath>
</defs>
</svg>
