<svg width="1200" height="378" viewBox="0 0 1200 378" fill="none" xmlns="http://www.w3.org/2000/svg">
<g opacity="0.8" clip-path="url(#clip0_448_16952)">
<path opacity="0.05" d="M1315.19 135.51C1308.21 135.511 1301.26 136.408 1294.51 138.18C1289.09 122.657 1279.46 108.952 1266.68 98.6047C1253.9 88.2577 1238.49 81.6788 1222.18 79.6073C1205.87 77.5359 1189.31 80.0539 1174.35 86.8784C1159.39 93.703 1146.63 104.564 1137.51 118.24C1132.99 115.285 1127.88 113.346 1122.54 112.557C1117.2 111.768 1111.75 112.147 1106.56 113.668C1101.38 115.189 1096.59 117.815 1092.52 121.367C1088.46 124.919 1085.21 129.311 1083 134.24C1073.85 129.81 1063.77 127.626 1053.61 127.871C1043.44 128.115 1033.48 130.781 1024.55 135.647C1015.62 140.512 1007.99 147.437 1002.27 155.847C996.555 164.256 992.928 173.908 991.69 184C982.41 171.374 969.856 161.524 955.385 155.514C940.915 149.503 925.077 147.56 909.582 149.895C894.088 152.229 879.526 158.753 867.469 168.761C855.412 178.769 846.318 191.88 841.17 206.68C829.643 203.643 817.578 203.254 805.879 205.543C794.181 207.831 783.151 212.737 773.618 219.893C764.085 227.05 756.294 236.27 750.831 246.865C745.367 257.46 742.372 269.153 742.07 281.07C732.956 276.671 722.983 274.343 712.863 274.253C702.744 274.163 692.73 276.314 683.54 280.55C678.251 272.141 670.428 265.629 661.2 261.953C651.971 258.278 641.814 257.627 632.192 260.097C622.57 262.566 613.981 268.028 607.663 275.694C601.346 283.359 597.626 292.834 597.04 302.75C590.615 300.028 583.483 299.451 576.704 301.105C569.925 302.759 563.86 306.555 559.41 311.93C548.872 305.856 536.466 303.874 524.56 306.36C524.488 296.373 522.075 286.542 517.516 277.657C512.956 268.771 506.377 261.078 498.305 255.196C490.234 249.314 480.896 245.406 471.042 243.787C461.187 242.167 451.089 242.88 441.56 245.87C441.79 244.42 442.07 242.99 442.21 241.51C443.979 224.123 439.467 206.677 429.49 192.328C419.513 177.978 404.73 167.674 387.816 163.277C370.901 158.88 352.971 160.682 337.27 168.357C321.568 176.032 309.132 189.072 302.21 205.12C296.415 202.204 290.1 200.463 283.629 199.997C277.159 199.531 270.66 200.349 264.506 202.404C258.353 204.458 252.666 207.71 247.774 211.97C242.882 216.231 238.88 221.417 236 227.23C226.537 220.233 214.883 216.852 203.145 217.7C191.407 218.547 180.36 223.566 172 231.85C166.533 220.671 158.744 210.786 149.155 202.856C139.565 194.925 128.395 189.13 116.388 185.857C104.382 182.585 91.8159 181.91 79.5282 183.878C67.2405 185.846 55.5137 190.412 45.13 197.27C45.3163 195.737 45.4065 194.194 45.4 192.65C45.3947 182.153 41.2216 172.087 33.7979 164.665C26.3742 157.243 16.3074 153.073 5.81 153.07C0.496979 153.057 -4.76312 154.125 -9.64999 156.21C-10.3625 144.101 -14.902 132.531 -22.614 123.168C-30.3261 113.805 -40.8123 107.134 -52.5606 104.115C-64.309 101.096 -76.7125 101.886 -87.9829 106.371C-99.2533 110.856 -108.808 118.804 -115.27 129.07C-130.489 122.026 -147.477 119.728 -164.021 122.475C-180.564 125.221 -195.898 132.885 -208.025 144.468C-220.152 156.052 -228.511 171.018 -232.013 187.418C-235.515 203.819 -233.998 220.894 -227.66 236.42C-242.891 239.108 -256.688 247.077 -266.626 258.928C-276.564 270.779 -282.007 285.754 -282 301.22C-282 301.74 -282 302.22 -282 302.77V500.69H1396.35V216.69C1396.35 206.03 1394.26 195.474 1390.18 185.625C1386.1 175.776 1380.12 166.827 1372.59 159.288C1365.05 151.75 1356.1 145.77 1346.25 141.69C1336.41 137.61 1325.85 135.51 1315.19 135.51Z" fill="#E51A83"/>
<path opacity="0.03" d="M1360.86 278.5V444.28H-246.54V272.16C-246.536 257.947 -243.272 243.925 -236.998 231.172C-230.724 218.419 -221.608 207.275 -210.351 198.598C-199.094 189.922 -185.997 183.943 -172.067 181.123C-158.137 178.302 -143.745 178.715 -130 182.33C-123.802 164.562 -112.772 148.875 -98.1485 137.031C-83.5251 125.188 -65.8883 117.657 -47.2203 115.286C-28.5523 112.916 -9.59302 115.798 7.52663 123.611C24.6463 131.423 39.2478 143.855 49.69 159.51C54.8653 156.129 60.7123 153.911 66.8279 153.009C72.9434 152.107 79.1818 152.542 85.1129 154.285C91.0439 156.027 96.5264 159.036 101.182 163.102C105.838 167.169 109.556 172.197 112.08 177.84C122.858 172.61 134.756 170.107 146.728 170.552C158.7 170.996 170.38 174.374 180.741 180.389C191.101 186.404 199.826 194.871 206.149 205.048C212.471 215.224 216.197 226.797 217 238.75C219.597 238.309 222.226 238.085 224.86 238.08C235.051 238.077 244.963 241.405 253.087 247.558C261.211 253.71 267.101 262.35 269.86 272.16H271.61V275.16C280.619 271.355 290.323 269.471 300.102 269.63C309.881 269.788 319.519 271.985 328.4 276.08C333.83 267.487 341.844 260.836 351.291 257.085C360.738 253.333 371.132 252.673 380.977 255.2C390.823 257.727 399.614 263.311 406.087 271.148C412.559 278.986 416.38 288.674 417 298.82C421.109 297.066 425.532 296.168 430 296.18C434.365 296.183 438.687 297.045 442.719 298.718C446.751 300.391 450.414 302.842 453.498 305.93C456.583 309.019 459.029 312.684 460.697 316.718C462.365 320.752 463.223 325.075 463.22 329.44C463.229 330.734 463.152 332.027 462.99 333.31C476.286 324.537 492.074 320.325 507.972 321.31C523.871 322.295 539.019 328.423 551.13 338.77C551.773 329.124 554.597 319.749 559.389 311.352C564.182 302.956 570.818 295.757 578.797 290.297C586.776 284.838 595.89 281.261 605.452 279.836C615.015 278.411 624.776 279.175 634 282.07C633.76 280.63 633.49 279.2 633.34 277.72C631.587 260.34 636.109 242.907 646.087 228.569C656.065 214.231 670.842 203.935 687.748 199.541C704.655 195.146 722.575 196.943 738.272 204.607C753.969 212.271 766.407 225.297 773.34 241.33C783.7 236.106 795.576 234.72 806.86 237.42C811.255 229.31 817.58 222.407 825.276 217.32C832.972 212.234 841.802 209.121 850.986 208.256C860.17 207.391 869.426 208.801 877.936 212.362C886.446 215.922 893.948 221.523 899.78 228.67C902.624 214.629 908.872 201.502 917.974 190.439C927.076 179.376 938.755 170.717 951.985 165.222C965.215 159.727 979.592 157.563 993.853 158.921C1008.11 160.279 1021.82 165.117 1033.78 173.01C1033.59 171.477 1033.5 169.934 1033.51 168.39C1033.51 163.189 1034.53 158.038 1036.52 153.232C1038.51 148.426 1041.42 144.059 1045.1 140.379C1048.77 136.7 1053.14 133.781 1057.94 131.789C1062.75 129.797 1067.9 128.771 1073.1 128.77C1078.41 128.757 1083.67 129.825 1088.56 131.91C1089.28 119.804 1093.83 108.24 1101.54 98.8829C1109.26 89.5262 1119.74 82.8605 1131.49 79.8465C1143.23 76.8325 1155.64 77.6259 1166.9 82.1123C1178.17 86.5987 1187.72 94.5465 1194.18 104.81C1209.4 97.7666 1226.39 95.4685 1242.93 98.2149C1259.47 100.961 1274.81 108.625 1286.94 120.208C1299.06 131.792 1307.42 146.758 1310.92 163.158C1314.43 179.559 1312.91 196.634 1306.57 212.16C1321.8 214.848 1335.6 222.818 1345.54 234.669C1355.47 246.52 1360.92 261.494 1360.91 276.96C1360.88 277.47 1360.87 277.98 1360.86 278.5Z" fill="#E51A83"/>
</g>
<defs>
<clipPath id="clip0_448_16952">
<rect width="1440" height="414" fill="white" transform="translate(-140 0.0698242)"/>
</clipPath>
</defs>
</svg>
