<svg width="7" height="5" viewBox="0 0 7 5" fill="none" xmlns="http://www.w3.org/2000/svg">
<path d="M5.283 0.170828C5.39033 0.06255 5.53619 0.00113935 5.68869 1.67031e-05C5.84119 -0.00110595 5.98793 0.0581507 6.09685 0.164836C6.20577 0.271522 6.268 0.416961 6.26995 0.56937C6.2719 0.721778 6.21341 0.868761 6.10726 0.978198L3.03586 4.81575C2.98309 4.87253 2.91942 4.9181 2.84864 4.94974C2.77787 4.98138 2.70144 4.99844 2.62392 4.9999C2.5464 5.00136 2.46938 4.98719 2.39746 4.95825C2.32554 4.9293 2.26019 4.88616 2.20532 4.83141L0.16895 2.79693C0.0607362 2.68873 -3.68247e-05 2.54199 -8.35555e-08 2.389C3.66576e-05 2.23601 0.0608801 2.0893 0.169145 1.98114C0.277411 1.87299 0.424229 1.81225 0.577303 1.81229C0.730377 1.81232 0.877166 1.87313 0.985379 1.98134L2.59591 3.59138L5.26772 0.188839C5.27257 0.182648 5.27781 0.176763 5.28339 0.171219L5.283 0.170828Z" fill="white"/>
</svg>
