<svg width="17" height="16" viewBox="0 0 17 16" fill="none" xmlns="http://www.w3.org/2000/svg">
<path d="M10.1406 8L15.9531 13.8125C16.1094 13.9688 16.1094 14.1406 15.9531 14.3281L14.875 15.4062C14.6875 15.5625 14.5156 15.5625 14.3594 15.4062L13.375 14.375L8.54688 9.59375L2.73438 15.4062C2.57812 15.5625 2.40625 15.5625 2.21875 15.4062L1.14062 14.3281C0.984375 14.1406 0.984375 13.9688 1.14062 13.8125L6.95312 8L1.14062 2.1875C0.984375 2.03125 0.984375 1.85938 1.14062 1.67188L2.21875 0.59375C2.40625 0.4375 2.57812 0.4375 2.73438 0.59375L8.54688 6.40625L14.3594 0.59375C14.5156 0.4375 14.6875 0.4375 14.875 0.59375L15.9531 1.67188C16.1094 1.85938 16.1094 2.03125 15.9531 2.1875L14.9219 3.17188L10.1406 8Z" fill="black"/>
</svg>
