<svg width="27" height="43" viewBox="0 0 27 43" fill="none" xmlns="http://www.w3.org/2000/svg">
<g clip-path="url(#clip0_307_12340)">
<path d="M25.6059 17.5303L15.3966 16.8138L19.2295 2.21747C19.2726 2.04213 19.2672 1.85384 19.2141 1.68281C19.1611 1.51178 19.0636 1.36793 18.9372 1.27432C18.8108 1.18071 18.6628 1.14278 18.5171 1.16662C18.3713 1.19045 18.2361 1.27466 18.1333 1.40574L1.28833 23.1431C1.19753 23.2522 1.13489 23.3927 1.10844 23.5464C1.08199 23.7002 1.09293 23.8603 1.13986 24.0062C1.18679 24.1522 1.26757 24.2773 1.37187 24.3656C1.47616 24.454 1.59923 24.5015 1.72531 24.5021L11.8894 25.2155L8.0565 39.8118C8.00737 39.9851 8.00825 40.1744 8.059 40.347C8.10974 40.5196 8.20717 40.6648 8.3345 40.7574C8.46182 40.85 8.61107 40.8844 8.75653 40.8545C8.90199 40.8246 9.03455 40.7324 9.13137 40.5937L25.9751 18.8845C26.0659 18.7754 26.1285 18.635 26.155 18.4812C26.1814 18.3275 26.1705 18.1674 26.1235 18.0214C26.0766 17.8755 25.9958 17.7503 25.8915 17.662C25.7872 17.5737 25.6642 17.5262 25.5381 17.5256L25.6059 17.5303Z" fill="#FFB124"/>
<path d="M15.3965 16.8137L14.1316 16.725C14.0324 16.7174 13.9359 16.6818 13.8494 16.6209C13.7629 16.5601 13.6885 16.4755 13.6321 16.3735C13.5756 16.2716 13.5384 16.1549 13.5233 16.0325C13.5083 15.91 13.5157 15.7848 13.5451 15.6664L16.8583 3.04017L18.1332 1.40573C18.236 1.27465 18.3712 1.19044 18.5169 1.16661C18.6627 1.14277 18.8107 1.1807 18.9371 1.27431C19.0635 1.36792 19.161 1.51177 19.214 1.6828C19.267 1.85383 19.2724 2.04212 19.2294 2.21746L15.3965 16.8137ZM26.0427 18.8893L9.19902 40.5985C9.1022 40.7371 8.96964 40.8293 8.82418 40.8592C8.67872 40.8891 8.52947 40.8548 8.40214 40.7621C8.27482 40.6695 8.17739 40.5244 8.12664 40.3518C8.0759 40.1792 8.07501 39.9899 8.12414 39.8165L8.37333 38.8166L24.0099 18.7466C24.1007 18.6375 24.1633 18.497 24.1898 18.3433C24.2162 18.1895 24.2053 18.0294 24.1584 17.8835C24.1114 17.7375 24.0307 17.6124 23.9264 17.5241C23.8221 17.4357 23.699 17.3882 23.5729 17.3876L25.6735 17.5351C25.7931 17.5517 25.9064 17.6104 26.0002 17.7044C26.0939 17.7984 26.1643 17.9237 26.2031 18.0658C26.2418 18.2079 26.2473 18.3608 26.2189 18.5066C26.1905 18.6524 26.1294 18.7852 26.0427 18.8893Z" fill="#FDD835"/>
</g>
<defs>
<clipPath id="clip0_307_12340">
<rect width="24.9293" height="40.2984" fill="white" transform="matrix(0.997546 0.0700169 -0.0452182 0.998977 2.13184 0)"/>
</clipPath>
</defs>
</svg>
