<svg width="19" height="16" viewBox="0 0 19 16" fill="none" xmlns="http://www.w3.org/2000/svg">
<path fill-rule="evenodd" clip-rule="evenodd" d="M9.03553 1.28662C6.87463 -0.530776 3.64458 -0.422638 1.61091 1.61103C-0.536971 3.75892 -0.536971 7.24133 1.61091 9.38921L7.26777 15.0461C8.24408 16.0224 9.82699 16.0224 10.8033 15.0461L16.4602 9.38921C18.608 7.24133 18.608 3.75892 16.4602 1.61103C14.4265 -0.422638 11.1964 -0.530776 9.03553 1.28662ZM8.68198 2.31814C6.92462 0.560782 4.07538 0.560782 2.31802 2.31814C0.56066 4.0755 0.56066 6.92474 2.31802 8.6821L7.97487 14.339C8.56066 14.9247 9.51041 14.9247 10.0962 14.339L15.753 8.6821C17.5104 6.92474 17.5104 4.0755 15.753 2.31814C13.9957 0.560782 11.1464 0.560782 9.38909 2.31814C9.19382 2.5134 8.87724 2.5134 8.68198 2.31814Z" fill="white"/>
</svg>
