<svg width="15" height="15" viewBox="0 0 15 15" fill="none" xmlns="http://www.w3.org/2000/svg">
<rect x="0.25" y="0.25" width="14.5" height="14.5" rx="4.75" fill="#E51A83" stroke="#E51A83" stroke-width="0.5"/>
<path d="M9.283 5.17083C9.39033 5.06255 9.53619 5.00114 9.68869 5.00002C9.84119 4.99889 9.98793 5.05815 10.0968 5.16484C10.2058 5.27152 10.268 5.41696 10.27 5.56937C10.2719 5.72178 10.2134 5.86876 10.1073 5.9782L7.03586 9.81575C6.98309 9.87253 6.91942 9.9181 6.84864 9.94974C6.77787 9.98138 6.70144 9.99844 6.62392 9.9999C6.5464 10.0014 6.46938 9.98719 6.39746 9.95825C6.32554 9.9293 6.26019 9.88616 6.20532 9.83141L4.16895 7.79693C4.06074 7.68873 3.99996 7.54199 4 7.389C4.00004 7.23601 4.06088 7.0893 4.16915 6.98114C4.27741 6.87299 4.42423 6.81225 4.5773 6.81229C4.73038 6.81232 4.87717 6.87313 4.98538 6.98134L6.59591 8.59138L9.26772 5.18884C9.27257 5.18265 9.27781 5.17676 9.28339 5.17122L9.283 5.17083Z" fill="white"/>
</svg>
