<svg width="16" height="19" viewBox="0 0 16 19" fill="none" xmlns="http://www.w3.org/2000/svg">
<path fill-rule="evenodd" clip-rule="evenodd" d="M0.5 0.5C0.5 0.223858 0.723858 0 1 0H15C15.2761 0 15.5 0.223858 15.5 0.5V18.5C15.5 18.6953 15.3863 18.8727 15.2089 18.9543C15.0315 19.0358 14.8229 19.0067 14.6746 18.8796L13.6429 17.9953C13.0811 17.5138 12.2522 17.5138 11.6905 17.9953L10.6587 18.8796C10.4715 19.0401 10.1952 19.0401 10.0079 18.8796L8.97619 17.9953C8.41445 17.5138 7.58555 17.5138 7.02381 17.9953L5.99206 18.8796C5.80482 19.0401 5.52852 19.0401 5.34127 18.8796L4.30952 17.9953C3.74779 17.5138 2.91888 17.5138 2.35715 17.9953L1.3254 18.8796C1.17714 19.0067 0.968472 19.0358 0.791072 18.9543C0.613671 18.8727 0.5 18.6953 0.5 18.5V0.5ZM1.5 1V17.4129L1.70635 17.236C2.64258 16.4335 4.02409 16.4335 4.96031 17.236L5.66667 17.8415L6.37302 17.236C7.30925 16.4335 8.69075 16.4335 9.62698 17.236L10.3333 17.8415L11.0397 17.236C11.9759 16.4335 13.3574 16.4335 14.2936 17.236L14.5 17.4129V1H1.5Z" fill="white"/>
<path fill-rule="evenodd" clip-rule="evenodd" d="M4.5 4.5C4.5 4.22386 4.72386 4 5 4L11 4C11.2761 4 11.5 4.22386 11.5 4.5C11.5 4.77614 11.2761 5 11 5L5 5C4.72386 5 4.5 4.77614 4.5 4.5Z" fill="white"/>
<path fill-rule="evenodd" clip-rule="evenodd" d="M4.5 8.5C4.5 8.22386 4.72386 8 5 8L11 8C11.2761 8 11.5 8.22386 11.5 8.5C11.5 8.77614 11.2761 9 11 9L5 9C4.72386 9 4.5 8.77614 4.5 8.5Z" fill="white"/>
<path fill-rule="evenodd" clip-rule="evenodd" d="M6.5 12.5C6.5 12.2239 6.72386 12 7 12L11 12C11.2761 12 11.5 12.2239 11.5 12.5C11.5 12.7761 11.2761 13 11 13L7 13C6.72386 13 6.5 12.7761 6.5 12.5Z" fill="white"/>
</svg>
