<svg width="36" height="32" viewBox="0 0 36 32" fill="none" xmlns="http://www.w3.org/2000/svg">
<path d="M0.942331 12.0854C1.29407 11.2313 1.72801 10.4133 2.23804 9.64318C2.63031 9.04201 3.06877 8.47227 3.54945 7.93914C4.10453 7.30935 4.72291 6.73833 5.39484 6.23509C5.69325 6.01521 6.00736 5.81889 6.29791 5.59116C6.58846 5.36343 6.98895 4.99435 7.35018 4.71165C8.21597 4.05262 9.15385 3.49411 10.1458 3.04687C11.0103 2.66317 11.9096 2.36339 12.8314 2.15166C13.6313 1.96634 14.4458 1.85074 15.2658 1.80613C15.8071 1.77473 16.3499 1.77473 16.8913 1.80613C17.3177 1.82341 17.7427 1.868 18.1634 1.93963C18.7964 2.04292 19.423 2.18187 20.0402 2.35583C21.3825 2.73999 22.6569 3.33079 23.8174 4.10699C24.6744 4.65818 25.4649 5.30639 26.1732 6.03877C26.2776 6.16659 26.4261 6.25065 26.5894 6.27435H26.7386C27.4253 6.48742 28.0947 6.75256 28.7411 7.06748L29.5264 7.3973C29.519 7.35274 29.503 7.31005 29.4792 7.27165C29.3772 7.10674 29.2594 6.94184 29.1416 6.78478C28.6547 6.17227 28.1835 5.5519 27.6653 4.97865C27.0847 4.34661 26.4458 3.7708 25.757 3.25889C24.8563 2.56924 23.885 1.97698 22.8594 1.49202C22.1024 1.12586 21.314 0.828868 20.5035 0.604662C19.9381 0.471165 19.357 0.337669 18.7681 0.235583C18.1791 0.133497 17.6766 0.102086 17.1269 0H14.9674L14.4491 0.0628221C13.9386 0.133497 13.4204 0.164908 12.9256 0.274846C12.1404 0.447607 11.4179 0.667484 10.6719 0.895214C9.82223 1.1702 9.0037 1.53341 8.22969 1.97889C7.44203 2.40364 6.69544 2.90049 5.99951 3.46307C5.38806 3.93455 4.82036 4.46019 4.30331 5.03362C3.92638 5.49693 3.54159 5.89742 3.1411 6.35288C2.64806 6.98316 2.21183 7.6559 1.83754 8.36318C1.33294 9.30544 0.927652 10.2976 0.62822 11.3237C0.502576 11.7791 0.392638 12.2189 0.290552 12.6665C0.188466 13.1141 0.133497 13.5224 0.0628221 13.9465C0.0730625 14.1682 0.0519126 14.3903 0 14.6061C0.0729971 14.4543 0.133404 14.2967 0.180613 14.135C0.431902 13.4439 0.675337 12.7607 0.942331 12.0854Z" fill="white"/>
<path d="M20.1894 31.1677C20.9922 30.9982 21.78 30.7644 22.5453 30.4688C23.3377 30.1936 24.0943 29.8245 24.799 29.3694C25.5078 28.9042 26.1751 28.3787 26.7936 27.7988C27.2883 27.3355 27.7595 26.8329 28.215 26.3304C28.7648 25.7111 29.2613 25.0465 29.6991 24.3436C30.281 23.3869 30.7651 22.374 31.144 21.3203C31.5232 20.3062 31.7866 19.2525 31.9293 18.1792C32 17.6138 32.0628 17.0406 32.0864 16.4673C32.1099 15.8941 32.0864 15.3993 32.0864 14.8968C32.098 14.753 32.098 14.6086 32.0864 14.4649C32.0163 14.0411 32.0163 13.6087 32.0864 13.1849C32.1864 12.4878 32.4182 11.8162 32.7696 11.206C33.1258 10.5821 33.6167 10.0455 34.2066 9.63541C34.4815 9.44695 34.772 9.28989 35.0704 9.11713C34.784 9.127 34.4973 9.10858 34.2145 9.06216C33.7904 9.01505 33.3742 8.96008 32.9659 8.8737C32.079 8.67751 31.2117 8.40154 30.3745 8.04916C29.6677 7.76646 28.9531 7.48376 28.2542 7.18535C27.6368 6.90253 26.9803 6.71457 26.3067 6.62781C25.7497 6.56489 25.1867 6.58075 24.6341 6.67492C23.9801 6.78488 23.3503 7.0081 22.773 7.33456C22.127 7.69386 21.5414 8.15227 21.0375 8.69308C20.5645 9.14442 20.1502 9.65364 19.8047 10.2087C19.4753 10.768 19.1764 11.3447 18.9094 11.9363C18.6433 12.6163 18.3365 13.2798 17.9907 13.923C17.5892 14.6058 17.1181 15.2453 16.585 15.8312C16.2747 16.1587 15.9386 16.4607 15.5799 16.7343C14.8946 17.3147 14.0196 17.6222 13.122 17.5981H12.9099L12.9806 17.6609C13.6328 17.9726 14.3688 18.0636 15.0773 17.9201C15.7114 17.8046 16.3136 17.5557 16.8442 17.1898C17.5616 16.7324 18.2007 16.1623 18.7367 15.5014C19.1287 15.0547 19.4907 14.5825 19.8204 14.0879C20.3386 13.3027 20.8255 12.4467 21.281 11.6065C21.5465 11.1077 21.8651 10.6391 22.2312 10.2087C22.842 9.49872 23.6005 8.93059 24.4535 8.54388C25.1974 8.22273 25.9991 8.05705 26.8093 8.05701C27.1384 8.06465 27.4664 8.09615 27.7909 8.15124C28.6094 8.27493 29.404 8.5239 30.1467 8.8894C30.5544 9.09833 30.977 9.27681 31.411 9.42339C31.7829 9.52078 32.1606 9.59422 32.5418 9.64327L32.1963 9.77676C31.8648 9.86049 31.5541 10.0118 31.2839 10.2213C31.0136 10.4307 30.7896 10.6938 30.6258 10.9939C30.3222 11.7018 30.1595 12.4619 30.1467 13.232V15.0381C30.1467 15.4072 30.2253 15.8234 30.2331 16.1532C30.2278 16.4525 30.2068 16.7513 30.1703 17.0484C30.0918 17.6609 30.0132 18.2734 29.9033 18.8781C29.7056 19.928 29.3703 20.9471 28.906 21.9093C28.4679 22.8518 27.9253 23.7422 27.2883 24.5635C26.8098 25.2029 26.2678 25.7922 25.6707 26.3225C25.1759 26.7466 24.6891 27.1863 24.1551 27.5633C23.0444 28.347 21.8247 28.9635 20.535 29.3929C19.635 29.705 18.7023 29.9132 17.7551 30.0133C17.174 30.0683 16.5929 30.1233 16.0196 30.139C15.6313 30.1415 15.2432 30.1206 14.8574 30.0761C14.5103 30.0616 14.1642 30.0275 13.8209 29.974C13.2869 29.8798 12.7529 29.7542 12.2503 29.6207C11.2189 29.3508 10.2247 28.9552 9.28981 28.4428C9.13276 28.3485 8.96785 28.27 8.78724 28.1836V28.27C9.37619 28.6941 9.9573 29.1338 10.562 29.5421C11.3848 30.0859 12.2743 30.5213 13.2083 30.8379C13.9154 31.0987 14.6508 31.2753 15.3993 31.364C15.894 31.419 16.3966 31.4739 16.8991 31.4975C17.5496 31.5317 18.2018 31.5027 18.8466 31.4111C19.3099 31.3169 19.7575 31.2619 20.1894 31.1677Z" fill="white"/>
<path d="M2.10452 12.9413C2.32319 11.9095 2.67148 10.9096 3.14108 9.96515C3.552 9.07656 4.04355 8.22752 4.60955 7.42871L4.49176 7.5308C4.28758 7.76638 4.07556 8.00196 3.87924 8.2454C3.51801 8.70086 3.16464 9.14846 2.82697 9.61963C2.33425 10.3133 1.91328 11.0553 1.57053 11.8341C1.38206 12.2503 1.20145 12.6744 1.0444 13.1063C0.784664 13.7672 0.597713 14.4544 0.48685 15.1558C0.400469 15.6584 0.337647 16.1688 0.298384 16.6793C0.240501 17.6297 0.293206 18.5837 0.455439 19.522C0.534311 20.0878 0.644418 20.6488 0.785255 21.2024C1.11914 22.2284 1.57248 23.2115 2.13593 24.1315C2.71555 25.1185 3.40009 26.04 4.17765 26.88C4.77 27.5339 5.4249 28.1283 6.13298 28.6547C6.75335 29.0552 7.37372 29.44 7.99408 29.8405C8.82114 30.3358 9.69752 30.7438 10.6091 31.0577C11.6232 31.4368 12.6769 31.7003 13.7502 31.8429C14.2998 31.9058 14.8495 31.9686 15.3992 32H16.6792C16.2552 31.9136 15.8311 31.8743 15.4149 31.788C14.5822 31.6256 13.7632 31.3998 12.9649 31.1126C11.9234 30.7301 10.9341 30.2182 10.0201 29.5892C9.6039 29.2986 9.23482 28.9767 8.81862 28.6547C8.59875 28.4741 8.41028 28.2464 8.19826 28.0501C7.98623 27.8537 7.79777 27.6574 7.58574 27.4768C7.16955 27.1234 6.73764 26.8015 6.33715 26.4402C5.97729 26.1118 5.63645 25.7631 5.3163 25.3958C4.31224 24.2783 3.51458 22.9915 2.96047 21.5951C2.66486 20.919 2.42329 20.2205 2.23801 19.5063C1.99508 18.6167 1.85283 17.7027 1.81397 16.7813C1.79044 15.9954 1.81404 15.2087 1.88464 14.4255C1.92613 13.9266 1.99957 13.4309 2.10452 12.9413Z" fill="white"/>
<path d="M12.2896 16.2866C12.3053 16.1247 12.3053 15.9617 12.2896 15.7998C12.2425 15.3443 12.1954 14.8967 12.1247 14.4491C12.0788 14.0337 12.0053 13.6218 11.9048 13.2162C11.7666 12.6828 11.5961 12.1584 11.3944 11.6457C11.2614 11.2742 11.0373 10.9421 10.7426 10.6798C10.5456 10.496 10.2974 10.3766 10.0308 10.3373C9.76434 10.298 9.49219 10.3408 9.25057 10.4599C9.08655 10.5093 8.93388 10.5906 8.80129 10.699C8.6687 10.8075 8.55879 10.941 8.47783 11.092C8.39688 11.243 8.34648 11.4084 8.3295 11.5789C8.31253 11.7493 8.32932 11.9215 8.37891 12.0854C8.50525 12.5969 8.72343 13.0811 9.02284 13.5146C9.52888 14.2995 10.1101 15.0333 10.7583 15.7055C11.1745 16.1453 11.6221 16.5536 12.0619 16.9777C12.1334 17.0465 12.2124 17.107 12.2974 17.1583C12.2974 16.8363 12.2974 16.5615 12.2896 16.2866Z" fill="white"/>
<path d="M10.6091 17.5588C11.1452 17.5902 11.6827 17.5902 12.2189 17.5588V17.4881L11.9598 17.2525C11.5907 16.9149 11.2452 16.5615 10.8682 16.2474C10.4056 15.8542 9.92331 15.4846 9.42331 15.1402C8.75217 14.6084 7.98011 14.2184 7.15387 13.9936C6.8159 13.8914 6.45527 13.8914 6.1173 13.9936C5.93509 14.0734 5.77129 14.1898 5.63617 14.3358C5.50105 14.4817 5.3975 14.6539 5.33203 14.8417C5.19987 15.1 5.15822 15.3952 5.21375 15.6799C5.26928 15.9647 5.41877 16.2226 5.63829 16.4123C5.92723 16.6567 6.26048 16.8434 6.61988 16.962C7.22563 17.1724 7.8522 17.3172 8.48884 17.3939C9.16497 17.4933 9.84717 17.5458 10.5306 17.5509L10.6091 17.5588Z" fill="white"/>
<path d="M14.0172 10.075C13.8281 10.123 13.6525 10.2138 13.5041 10.3404C13.3556 10.467 13.2383 10.6261 13.1612 10.8053C12.8537 11.446 12.6851 12.1445 12.6665 12.8549C12.6665 13.2632 12.6272 13.6402 12.6272 14.0799C12.6196 14.4677 12.6327 14.8557 12.6665 15.2421C12.7058 15.6191 12.745 16.1688 12.7921 16.6321C12.812 16.8435 12.8461 17.0534 12.8942 17.2603C12.9266 17.2384 12.9557 17.2119 12.9806 17.1818C13.2869 16.7813 13.5931 16.3965 13.8758 15.9724C14.4493 15.1741 14.9488 14.3251 15.3678 13.436C15.7119 12.7921 15.8798 12.0689 15.8547 11.3393C15.8316 11.1225 15.7677 10.912 15.6663 10.7189C15.488 10.4583 15.2353 10.2574 14.9411 10.1425C14.6469 10.0276 14.3249 10.0041 14.0172 10.075Z" fill="white"/>
<path d="M27.0763 9.87879C27.0702 9.68766 27.0078 9.50258 26.8972 9.34664C26.7865 9.19069 26.6323 9.07078 26.454 9.00188C26.2756 8.93297 26.0809 8.91811 25.8941 8.95916C25.7073 9.0002 25.5368 9.09533 25.4037 9.23268C25.2707 9.37003 25.181 9.54351 25.1459 9.73149C25.1108 9.91947 25.1318 10.1136 25.2064 10.2897C25.2809 10.4658 25.4056 10.6161 25.565 10.7218C25.7244 10.8274 25.9114 10.8838 26.1026 10.8839C26.2287 10.886 26.3539 10.863 26.471 10.8162C26.5881 10.7694 26.6947 10.6997 26.7846 10.6113C26.8745 10.5228 26.9459 10.4174 26.9947 10.301C27.0434 10.1847 27.0685 10.0599 27.0685 9.93376L27.0763 9.87879Z" fill="white"/>
</svg>
