<svg width="119" height="42" viewBox="0 0 119 42" fill="none" xmlns="http://www.w3.org/2000/svg">
<g clip-path="url(#clip0_3455_7265)">
<path d="M1.19 15.89C1.64346 14.8031 2.1993 13.7617 2.85 12.78C3.34808 12.026 3.90658 11.3137 4.52 10.65C5.22336 9.84822 6.00751 9.12103 6.86 8.48003C7.24 8.20003 7.65 7.95005 8.02 7.66005C8.39 7.37005 8.89 6.90003 9.36 6.55003C10.4597 5.70658 11.6545 4.99506 12.92 4.43004C14.0174 3.94145 15.1594 3.5597 16.33 3.29005C17.3488 3.05476 18.386 2.90754 19.43 2.85005C20.1194 2.80999 20.8106 2.80999 21.5 2.85005C22.0464 2.87151 22.5909 2.92828 23.13 3.02003C23.9325 3.14818 24.7271 3.32182 25.51 3.54005C27.2193 4.02926 28.8421 4.78158 30.32 5.77003C31.4161 6.46531 32.4235 7.29137 33.32 8.23003C33.454 8.3966 33.6478 8.50426 33.86 8.53004H34.04C34.9166 8.7912 35.7696 9.12571 36.59 9.53004L37.59 9.94005C37.5765 9.88904 37.5598 9.83894 37.54 9.79005C37.4 9.58005 37.26 9.36005 37.11 9.16005C36.49 8.39005 35.88 7.60004 35.22 6.87004C34.4912 6.05297 33.684 5.3094 32.81 4.65004C31.6633 3.76602 30.4225 3.01143 29.11 2.40004C28.1474 1.93059 27.1431 1.55226 26.11 1.27003C25.38 1.07003 24.64 0.900035 23.89 0.770035C23.14 0.640035 22.5 0.600025 21.8 0.510025C21.8 0.510025 21.73 0.510025 21.69 0.510025H19.06L18.39 0.590042C17.75 0.680042 17.09 0.710031 16.45 0.860031C15.45 1.08003 14.54 1.36003 13.59 1.64003C12.5081 1.99867 11.4632 2.46081 10.47 3.02003C9.47212 3.56808 8.52504 4.20392 7.64 4.92003C6.85551 5.51713 6.12897 6.18675 5.47 6.92003C4.99 7.48003 4.47 8.03003 4.04 8.61003C3.40989 9.41105 2.85425 10.2679 2.38 11.17C1.70791 12.3587 1.16482 13.6159 0.759998 14.92C0.589998 15.48 0.449998 16.0501 0.329998 16.6301C0.209998 17.2101 0.119999 17.71 0.039999 18.26C-0.00142589 18.5384 -0.0281296 18.8188 -0.0400009 19.1001C0.0470402 18.8974 0.123804 18.6904 0.189999 18.48C0.549999 17.65 0.849999 16.75 1.19 15.89Z" fill="#E51A83"/>
<path d="M25.76 40.1901C26.7817 39.9722 27.7848 39.6746 28.76 39.3C29.77 38.9518 30.7338 38.4817 31.63 37.9001C32.5291 37.3028 33.3785 36.6339 34.17 35.9001C34.8 35.3101 35.39 34.67 35.97 34.02C36.6791 33.2269 37.3088 32.3661 37.85 31.45C38.5861 30.2524 39.1897 28.9783 39.65 27.6501C40.1345 26.3591 40.47 25.0171 40.65 23.6501C40.73 22.93 40.82 22.2001 40.85 21.4701C40.88 20.7401 40.85 20.1101 40.85 19.4701C40.8649 19.2837 40.8649 19.0964 40.85 18.9101C40.75 18.3747 40.75 17.8254 40.85 17.2901C40.9729 16.4014 41.2685 15.5453 41.72 14.77C42.1694 13.9725 42.7954 13.2884 43.55 12.77C43.89 12.53 44.27 12.33 44.64 12.11C44.27 12.11 43.91 12.1101 43.55 12.0401C43.02 11.9801 42.49 11.91 41.96 11.8C40.8322 11.5442 39.7283 11.1929 38.66 10.7501C37.76 10.3901 36.86 10.0301 35.96 9.65005C35.176 9.29324 34.3438 9.05401 33.49 8.94006C32.7774 8.85992 32.057 8.88011 31.35 9.00006C30.525 9.14574 29.7304 9.42974 29 9.84005C28.1812 10.3034 27.4363 10.8865 26.79 11.5701C26.2466 12.1369 25.7701 12.7644 25.37 13.4401C24.9453 14.151 24.5613 14.8855 24.22 15.64C23.8833 16.507 23.4925 17.352 23.05 18.17C22.4944 19.0641 21.844 19.8956 21.11 20.6501C20.7146 21.0668 20.2865 21.4513 19.83 21.8C18.9705 22.5154 17.8776 22.8892 16.76 22.8501H16.48L16.58 22.93C17.4117 23.3236 18.3489 23.4359 19.25 23.2501C20.0571 23.1075 20.8243 22.7938 21.5 22.33C22.4137 21.7476 23.2274 21.0216 23.91 20.18C24.4036 19.6091 24.8612 19.0079 25.28 18.3801C25.94 17.3801 26.56 16.2901 27.15 15.2201C27.4829 14.5725 27.8888 13.9652 28.36 13.4101C29.1411 12.5119 30.1063 11.7923 31.19 11.3C32.1177 10.8958 33.1181 10.6849 34.13 10.68C34.5526 10.6853 34.974 10.7254 35.39 10.8C36.4333 10.9532 37.4458 11.2705 38.39 11.74C38.9125 11.9932 39.4502 12.2136 40 12.4001C40.4739 12.5222 40.9548 12.6157 41.44 12.68L41 12.8501C40.5841 12.9859 40.2006 13.2061 39.8737 13.4969C39.5468 13.7877 39.2834 14.1428 39.1 14.5401C38.715 15.4423 38.5047 16.4094 38.48 17.39C38.48 18.1 38.48 18.81 38.48 19.52C38.48 19.58 38.48 19.6301 38.48 19.6901C38.48 20.1601 38.58 20.64 38.59 21.11C38.5936 21.4882 38.5668 21.8661 38.51 22.24C38.41 23.02 38.31 23.81 38.18 24.58C37.9236 25.9158 37.4968 27.213 36.91 28.4401C36.329 29.6475 35.6074 30.7821 34.76 31.8201C34.1515 32.6319 33.4649 33.3821 32.71 34.0601C32.07 34.6001 31.45 35.16 30.77 35.64C29.3603 36.6398 27.8101 37.4251 26.17 37.9701C25.0238 38.3667 23.8361 38.6317 22.63 38.76C21.89 38.83 21.15 38.9 20.41 38.92C19.9188 38.9233 19.4279 38.8966 18.94 38.8401C18.4979 38.822 18.0571 38.7786 17.62 38.71C16.9533 38.5834 16.2867 38.4334 15.62 38.26C14.2733 37.9262 12.9757 37.4186 11.76 36.7501L11.12 36.43C11.12 36.43 11.12 36.48 11.12 36.49C11.87 37.03 12.61 37.59 13.37 38.11C14.4241 38.804 15.5636 39.3586 16.76 39.76C17.6604 40.0922 18.5969 40.3171 19.55 40.43C20.19 40.5 20.83 40.5701 21.47 40.5901C22.3116 40.6383 23.1558 40.6014 23.99 40.48C24.59 40.38 25.15 40.3101 25.76 40.1901Z" fill="#E51A83"/>
<path d="M2.67 16.98C2.94539 15.6705 3.37505 14.3984 3.95 13.19C4.49301 12.0575 5.13201 10.9735 5.86 9.95003L5.72 10.09C5.45 10.39 5.18 10.69 4.93 11C4.48 11.57 4.02 12.15 3.6 12.75C2.96302 13.6327 2.41691 14.5775 1.97 15.5701C1.72 16.1001 1.49 16.64 1.29 17.19C0.974743 18.0345 0.746885 18.9091 0.609997 19.8C0.529997 20.45 0.399998 21.09 0.379998 21.74C0.296624 22.9503 0.363803 24.1663 0.579997 25.36C0.697741 26.074 0.851269 26.7815 1.04 27.48C1.46449 28.7867 2.04182 30.0388 2.76 31.21C3.50412 32.4655 4.37899 33.6387 5.37 34.71C6.12432 35.5428 6.95829 36.2997 7.86 36.97C8.61 37.52 9.4 38.02 10.19 38.51C11.2401 39.1467 12.3567 39.6665 13.52 40.06C14.8104 40.5461 16.1526 40.8816 17.52 41.06C18.22 41.14 18.91 41.22 19.62 41.26C20.1 41.26 20.62 41.26 21.07 41.26H21.25C20.71 41.15 20.16 41.1 19.63 40.99C18.5696 40.7832 17.5266 40.4958 16.51 40.1301C15.1807 39.624 13.9207 38.952 12.76 38.1301C12.23 37.76 11.76 37.35 11.23 36.94C10.95 36.71 10.71 36.42 10.45 36.17C10.19 35.92 9.94 35.67 9.67 35.43C9.14 34.99 8.58 34.58 8.07 34.12C7.60316 33.7075 7.16545 33.2631 6.76 32.7901C6.31 32.2801 5.89 31.79 5.49 31.21C4.80268 30.2035 4.22284 29.1276 3.76 28C3.38356 27.1391 3.07593 26.2496 2.84 25.34C2.53458 24.2067 2.35681 23.0428 2.31 21.87C2.28204 20.8693 2.30874 19.8678 2.39 18.87C2.44816 18.2353 2.54164 17.6043 2.67 16.98Z" fill="#E51A83"/>
<path d="M15.65 21.23C15.65 21.03 15.65 20.82 15.65 20.61C15.58 20.04 15.52 19.47 15.44 18.9C15.36 18.33 15.29 17.84 15.16 17.33C14.98 16.64 14.75 15.9501 14.51 15.2801C14.3378 14.806 14.0489 14.3829 13.67 14.05C13.4184 13.8173 13.1024 13.666 12.7633 13.6161C12.4243 13.5661 12.078 13.6198 11.77 13.77C11.5605 13.835 11.3659 13.9407 11.1973 14.0809C11.0286 14.2211 10.8893 14.3931 10.7871 14.5872C10.685 14.7813 10.6221 14.9936 10.602 15.212C10.5819 15.4304 10.605 15.6506 10.67 15.86C10.8372 16.5091 11.1146 17.1247 11.49 17.68C12.1494 18.6706 12.8993 19.5979 13.73 20.45C14.27 21.01 14.84 21.5301 15.4 22.0701C15.4917 22.1528 15.5886 22.2296 15.69 22.3C15.65 21.94 15.66 21.59 15.65 21.23Z" fill="#E51A83"/>
<path d="M13.5 22.8501C14.1861 22.89 14.8739 22.89 15.56 22.8501V22.76C15.45 22.66 15.33 22.57 15.22 22.46C14.76 22.03 14.32 21.58 13.83 21.18C13.34 20.78 12.63 20.18 12.01 19.77C11.1506 19.0945 10.1645 18.5981 9.11 18.31C8.683 18.1801 8.22701 18.1801 7.80001 18.31C7.56629 18.4089 7.35627 18.5563 7.18386 18.7425C7.01146 18.9287 6.88061 19.1494 6.80001 19.39C6.64245 19.7129 6.59527 20.0786 6.66573 20.4309C6.73619 20.7832 6.92038 21.1026 7.19 21.34C7.55664 21.6532 7.9814 21.8911 8.44 22.0401C9.19102 22.3204 9.96824 22.5247 10.76 22.65C11.6244 22.7766 12.4964 22.8435 13.37 22.8501H13.5Z" fill="#E51A83"/>
<path d="M17.85 13.33C17.6076 13.3904 17.3824 13.5057 17.1917 13.667C17.001 13.8282 16.8498 14.0311 16.75 14.26C16.3572 15.0755 16.1425 15.9652 16.12 16.8701C16.12 17.3901 16.12 17.8701 16.12 18.4301C16.12 18.9901 16.12 19.4301 16.12 19.9101C16.12 20.3901 16.23 21.0901 16.29 21.6801C16.29 21.9401 16.37 22.19 16.42 22.48C16.4585 22.4488 16.4952 22.4154 16.53 22.3801C16.91 21.8701 17.3 21.3801 17.67 20.8401C18.4007 19.8397 19.0336 18.7714 19.56 17.6501C20.0017 16.8315 20.2158 15.9095 20.18 14.98C20.16 14.6989 20.078 14.4257 19.94 14.1801C19.7176 13.8445 19.3992 13.5838 19.0263 13.4322C18.6534 13.2805 18.2434 13.2449 17.85 13.33Z" fill="#E51A83"/>
<path d="M34.47 13.08C34.4756 12.7632 34.3576 12.4566 34.1411 12.2251C33.9246 11.9937 33.6265 11.8556 33.31 11.84C33.1442 11.8306 32.9782 11.8543 32.8216 11.9098C32.6651 11.9653 32.5211 12.0514 32.3982 12.1631C32.2753 12.2748 32.176 12.4099 32.1059 12.5605C32.0358 12.711 31.9964 12.8741 31.99 13.0401C31.9873 13.3752 32.1172 13.6978 32.3514 13.9375C32.5855 14.1773 32.9049 14.3148 33.24 14.3201C33.4031 14.3228 33.5651 14.2925 33.7163 14.231C33.8674 14.1696 34.0045 14.0782 34.1194 13.9623C34.2343 13.8465 34.3246 13.7086 34.3849 13.557C34.4451 13.4054 34.4741 13.2431 34.47 13.08Z" fill="#E51A83"/>
<path d="M118.46 23.13C118.4 22.5086 118.165 21.9169 117.783 21.4232C117.401 20.9295 116.887 20.554 116.3 20.34C114.834 19.7697 113.206 19.7697 111.74 20.34C111.662 20.3646 111.578 20.3646 111.5 20.34C110.841 20.0883 110.145 19.9431 109.44 19.91C108.67 19.8363 107.892 19.9424 107.17 20.22C106.81 20.36 106.49 20.57 106.17 20.75L105.61 19.6L105.81 19.55C106.342 19.4691 106.83 19.2088 107.194 18.8123C107.558 18.4158 107.775 17.907 107.81 17.37C107.837 17.1003 107.797 16.8281 107.693 16.5776C107.589 16.3272 107.425 16.1064 107.215 15.935C107.005 15.7636 106.756 15.647 106.49 15.5955C106.224 15.544 105.949 15.5593 105.69 15.64C105.322 15.7755 104.918 15.7755 104.55 15.64C104.242 15.5335 103.915 15.4906 103.59 15.514C103.264 15.5375 102.947 15.6267 102.657 15.7763C102.368 15.9258 102.111 16.1327 101.904 16.3843C101.696 16.6359 101.542 16.927 101.45 17.24C101.437 17.3148 101.401 17.3836 101.347 17.4373C101.294 17.491 101.225 17.5268 101.15 17.54C100.326 17.7617 99.6034 18.2607 99.1043 18.9529C98.6052 19.6451 98.36 20.4881 98.41 21.34C98.3954 21.4721 98.3582 21.6006 98.3 21.72C97.6362 20.9933 96.7834 20.4653 95.8369 20.1952C94.8904 19.925 93.8874 19.9232 92.94 20.19V15.72H88.69V25.65C88.6718 26.4548 88.9215 27.2427 89.4 27.89C90.3111 29.0467 91.6319 29.809 93.0892 30.0194C94.5466 30.2297 96.029 29.8719 97.23 29.02C97.53 28.8 97.78 28.53 98.07 28.29C98.6557 29.1372 99.5159 29.7562 100.505 30.0422C101.495 30.3283 102.553 30.264 103.5 29.86C103.5 30.06 103.6 30.01 103.7 30.01H108.97H109.11V24.21H109.55V30.01H113.76V24.17H114.16V30H118.46V23.25C118.451 23.2105 118.451 23.1696 118.46 23.13ZM97.27 26.79C96.978 27.3169 96.5497 27.7555 96.03 28.06C95.399 28.4387 94.6758 28.6359 93.94 28.63C93.3905 28.6535 92.8413 28.5755 92.32 28.4C91.6083 28.137 90.9822 27.684 90.51 27.09C90.1651 26.6845 89.9708 26.1723 89.96 25.64V17.49C89.96 17.16 90.04 17.08 90.37 17.08H91.28C91.45 17.08 91.5 17.08 91.5 17.3C91.5 18.69 91.5 20.08 91.5 21.48C91.5 22.88 91.5 24.05 91.5 25.34C91.4839 25.6476 91.5564 25.9534 91.7088 26.221C91.8612 26.4887 92.0872 26.707 92.36 26.85C93.0008 27.2397 93.7642 27.3753 94.5 27.23C94.9466 27.1653 95.362 26.9629 95.6882 26.651C96.0144 26.3391 96.2352 25.9333 96.32 25.49C96.4331 25.095 96.4558 24.6795 96.3866 24.2745C96.3173 23.8694 96.1579 23.4851 95.92 23.15C95.7705 22.9164 95.5542 22.7333 95.2991 22.6245C95.044 22.5157 94.7621 22.4863 94.49 22.54C94.2798 22.5804 94.0811 22.6667 93.9082 22.7929C93.7353 22.9192 93.5925 23.0821 93.49 23.27C93.49 23.27 93.49 23.32 93.49 23.33C93.49 23.34 93.49 23.62 93.49 23.76C93.6196 23.7743 93.7504 23.7743 93.88 23.76C94.1351 23.6432 94.4099 23.5754 94.69 23.56C94.9971 23.5926 95.2838 23.7295 95.5021 23.9479C95.7205 24.1663 95.8574 24.4529 95.89 24.76C95.9063 25.0488 95.8525 25.3373 95.733 25.6007C95.6135 25.8641 95.432 26.0946 95.2039 26.2725C94.9759 26.4504 94.7081 26.5704 94.4236 26.6222C94.139 26.6741 93.8461 26.6561 93.57 26.57C93.1788 26.4303 92.8285 26.1953 92.5509 25.8863C92.2733 25.5773 92.0771 25.2039 91.98 24.8C91.8691 24.436 91.8367 24.0525 91.885 23.675C91.9332 23.2975 92.0611 22.9345 92.26 22.61C92.4348 22.2649 92.7025 21.9754 93.0328 21.774C93.3632 21.5726 93.7431 21.4673 94.13 21.47C94.8875 21.4099 95.6452 21.5845 96.3 21.97C96.6901 22.2413 97.0287 22.58 97.3 22.97C97.6237 23.4689 97.7844 24.0559 97.76 24.65C97.7947 25.3947 97.6253 26.1347 97.27 26.79ZM102.7 17.64C102.799 17.4087 102.971 17.2156 103.189 17.0895C103.407 16.9633 103.66 16.9109 103.91 16.94C104.185 17.0084 104.453 17.1022 104.71 17.22C104.883 17.3395 105.093 17.3931 105.302 17.3711C105.511 17.3491 105.706 17.2529 105.85 17.1C105.91 17.0747 105.975 17.0617 106.04 17.0617C106.105 17.0617 106.17 17.0747 106.23 17.1C106.36 17.15 106.39 17.3 106.37 17.46C106.301 17.737 106.126 17.976 105.883 18.1256C105.64 18.2752 105.348 18.3234 105.07 18.26C104.764 18.1785 104.466 18.068 104.18 17.93C103.75 17.73 103.6 17.75 103.28 18.07C103.17 18.18 103.05 18.34 102.85 18.23C102.758 18.1686 102.692 18.0756 102.664 17.9686C102.637 17.8617 102.649 17.7483 102.7 17.65V17.64ZM100.04 20C100.245 19.6489 100.536 19.3561 100.886 19.1495C101.236 18.943 101.634 18.8296 102.04 18.82C102.442 18.7772 102.848 18.8611 103.2 19.06C103.377 19.1836 103.541 19.3243 103.69 19.48C103.9 19.71 104.1 19.96 104.3 20.2C104.338 20.2649 104.366 20.336 104.38 20.41C104.02 20.47 103.7 20.55 103.38 20.59C103.3 20.59 103.17 20.5 103.11 20.42C102.863 20.1914 102.549 20.0477 102.214 20.01C101.88 19.9722 101.542 20.0423 101.25 20.21C101.141 20.2866 101.05 20.3865 100.985 20.5023C100.919 20.6182 100.88 20.7472 100.87 20.88C100.87 21 100.87 21.05 100.69 21.06C100.51 21.07 100.22 21.15 99.99 21.21C99.76 21.27 99.76 21.21 99.75 21.05C99.7242 20.6772 99.8265 20.3068 100.04 20ZM117.15 28.52H115.61C115.61 28.42 115.61 28.33 115.61 28.24C115.61 26.83 115.61 25.42 115.61 24C115.644 23.7005 115.558 23.3997 115.37 23.1636C115.183 22.9274 114.909 22.7752 114.61 22.74C114.075 22.6315 113.522 22.659 113 22.82C112.894 22.8457 112.798 22.9005 112.722 22.9783C112.646 23.0561 112.593 23.1537 112.57 23.26C112.494 23.5514 112.447 23.8495 112.43 24.15C112.43 25.52 112.43 26.89 112.43 28.26V28.53H111.43C110.87 28.53 110.87 28.53 110.87 27.96C110.87 26.58 110.87 25.19 110.87 23.82C110.908 23.5948 110.856 23.3638 110.725 23.1767C110.594 22.9896 110.395 22.8615 110.17 22.82C109.585 22.6101 108.945 22.6101 108.36 22.82C108.16 22.8965 107.991 23.0348 107.876 23.2148C107.76 23.3947 107.706 23.6069 107.72 23.82V28.52H107.49H105.06C104.86 28.52 104.81 28.46 104.82 28.27C104.82 27.72 104.82 27.17 104.82 26.62C104.798 25.9497 104.731 25.2816 104.62 24.62C104.553 24.1733 104.35 23.7579 104.039 23.4305C103.727 23.1031 103.323 22.8795 102.88 22.79C102.417 22.6659 101.929 22.6711 101.469 22.8051C101.009 22.9391 100.594 23.1967 100.27 23.55C100.083 23.7638 99.9407 24.0129 99.8514 24.2825C99.7621 24.5521 99.7276 24.8369 99.75 25.12C99.7263 25.4568 99.7807 25.7945 99.9091 26.1068C100.037 26.419 100.236 26.6973 100.49 26.92C100.599 27.0311 100.73 27.1186 100.875 27.1771C101.019 27.2356 101.174 27.2638 101.33 27.26C101.62 27.26 101.9 27.26 102.19 27.2C102.349 27.1591 102.498 27.0878 102.63 26.99C102.732 26.9319 102.815 26.8451 102.869 26.7402C102.922 26.6352 102.943 26.517 102.93 26.4C102.93 26.27 102.93 26.13 102.93 25.99C102.93 25.9628 102.924 25.9359 102.912 25.9115C102.9 25.8871 102.882 25.8661 102.86 25.85C102.86 25.85 102.76 25.85 102.71 25.85C102.66 25.85 102.43 26.07 102.27 26.16C102.069 26.289 101.836 26.36 101.597 26.3653C101.358 26.3707 101.123 26.3101 100.916 26.1902C100.709 26.0703 100.54 25.8958 100.426 25.6859C100.312 25.4759 100.258 25.2386 100.27 25C100.287 24.6339 100.412 24.281 100.629 23.9857C100.846 23.6904 101.146 23.4657 101.49 23.34C101.706 23.3202 101.924 23.3202 102.14 23.34C102.542 23.2972 102.946 23.3914 103.287 23.6075C103.629 23.8235 103.887 24.1487 104.02 24.53C104.183 24.8664 104.265 25.2362 104.26 25.61C104.303 26.131 104.238 26.6551 104.07 27.15C103.91 27.543 103.659 27.8921 103.337 28.1686C103.015 28.4452 102.633 28.641 102.22 28.74C101.559 28.8942 100.864 28.7867 100.28 28.44C99.4276 27.9658 98.7955 27.1758 98.52 26.24C98.3382 25.6444 98.2937 25.0153 98.39 24.4C98.4656 23.741 98.7575 23.1256 99.22 22.65C99.6419 22.1565 100.182 21.7781 100.79 21.55C101.114 21.4427 101.45 21.3755 101.79 21.35C102.468 21.288 103.151 21.3768 103.79 21.61C104.196 21.7495 104.564 21.9795 104.867 22.2828C105.17 22.586 105.401 22.9545 105.54 23.36C105.73 23.91 105.89 24.47 106.03 24.9C106.03 24.54 106.03 24.05 106.09 23.56C106.102 23.2104 106.199 22.8689 106.373 22.5655C106.548 22.2622 106.794 22.0062 107.09 21.82C107.602 21.4927 108.202 21.3288 108.81 21.35C109.366 21.3247 109.923 21.3854 110.46 21.53C110.741 21.614 111.013 21.728 111.27 21.87C111.333 21.9042 111.403 21.922 111.475 21.922C111.547 21.922 111.617 21.9042 111.68 21.87C112.14 21.6645 112.615 21.494 113.1 21.36C113.466 21.3246 113.834 21.3246 114.2 21.36C114.807 21.3192 115.412 21.4584 115.94 21.76C116.187 21.9012 116.403 22.091 116.575 22.3178C116.747 22.5447 116.871 22.8039 116.94 23.08C117.002 23.3725 117.029 23.6713 117.02 23.97C117.02 25.4 117.02 26.83 117.02 28.26L117.15 28.52Z" fill="#E51A83"/>
<path d="M82.53 19.96V25.3501C82.53 25.6201 82.45 25.73 82.18 25.77C81.9438 25.79 81.7063 25.79 81.47 25.77C81.2 25.77 81.17 25.7 81.17 25.42V19.96H77.09V20.7901C76.4498 20.4166 75.7414 20.1748 75.0065 20.0786C74.2715 19.9824 73.5248 20.0339 72.81 20.23V15.74H68.53V15.9C68.53 19.15 68.53 22.38 68.53 25.62C68.5148 26.4369 68.7795 27.2344 69.28 27.8801C69.7562 28.5229 70.3713 29.05 71.0794 29.4223C71.7875 29.7945 72.5705 30.0023 73.37 30.03C74.7623 30.1506 76.1477 29.7318 77.24 28.86C77.48 28.67 77.69 28.45 77.92 28.25C78.4101 28.8597 79.0418 29.3403 79.76 29.65C79.76 29.74 79.76 29.8 79.69 29.87C79.5303 30.3409 79.5309 30.8513 79.692 31.3217C79.853 31.7921 80.1652 32.1959 80.58 32.47C80.8742 32.6204 81.1782 32.7507 81.49 32.86H82.27L82.38 32.81C82.7873 32.7241 83.1623 32.5258 83.4627 32.2378C83.7632 31.9497 83.977 31.5833 84.08 31.18C84.2249 30.6521 84.1824 30.0903 83.96 29.59L84.16 29.5C84.9017 29.1944 85.5311 28.6674 85.9624 27.9909C86.3937 27.3145 86.6059 26.5215 86.57 25.72C86.57 23.9 86.57 22.08 86.57 20.26V20.01L82.53 19.96ZM77.46 26.26C77.2864 26.7238 77.0193 27.1469 76.6752 27.503C76.3312 27.8591 75.9175 28.1406 75.46 28.33C74.9955 28.5288 74.4953 28.6309 73.99 28.6301C73.4071 28.6697 72.8221 28.5914 72.27 28.4C71.6056 28.1496 71.0144 27.7371 70.55 27.2C70.1917 26.7979 69.9925 26.2787 69.99 25.74C69.99 24.39 69.99 23.05 69.99 21.74V17.53C69.99 17.21 70.06 17.12 70.38 17.12H71.05C71.35 17.12 71.44 17.22 71.44 17.51V24.41C71.44 24.7 71.44 24.99 71.44 25.28V25.65C71.4931 25.9807 71.6345 26.2909 71.8492 26.5478C72.0639 26.8048 72.3441 26.999 72.66 27.11C73.1987 27.3277 73.7877 27.39 74.36 27.2901C74.7981 27.2421 75.2102 27.0581 75.5384 26.7639C75.8666 26.4698 76.0945 26.0803 76.19 25.65C76.4049 25.0349 76.4049 24.3651 76.19 23.75C76.1107 23.484 75.975 23.2382 75.7921 23.0293C75.6092 22.8205 75.3833 22.6536 75.13 22.5401C74.821 22.4311 74.4833 22.4356 74.1773 22.5529C73.8713 22.6702 73.6171 22.8925 73.46 23.18C73.4546 23.2098 73.4546 23.2403 73.46 23.27C73.46 23.41 73.46 23.56 73.46 23.72C73.63 23.72 73.82 23.72 73.94 23.66C74.107 23.5655 74.2913 23.5053 74.4819 23.483C74.6725 23.4606 74.8657 23.4766 75.05 23.53C75.2977 23.6043 75.5128 23.7605 75.66 23.9731C75.8072 24.1857 75.8777 24.4421 75.86 24.7C75.909 25.0203 75.8602 25.3479 75.72 25.64C75.4597 26.0438 75.0729 26.3498 74.62 26.51C74.0657 26.6197 73.4905 26.513 73.0125 26.2117C72.5345 25.9104 72.1901 25.4374 72.05 24.89C71.9928 24.5061 71.9661 24.1182 71.97 23.73C71.94 23.3869 71.9945 23.0416 72.1288 22.7243C72.263 22.4071 72.4729 22.1275 72.74 21.91C73.0888 21.5924 73.5386 21.4082 74.01 21.39C74.5672 21.3424 75.1283 21.407 75.66 21.58C76.0471 21.6962 76.4059 21.8913 76.714 22.1529C77.022 22.4145 77.2726 22.7369 77.45 23.1001C77.6687 23.5556 77.7815 24.0547 77.78 24.56C77.7864 25.1423 77.6776 25.72 77.46 26.26ZM81.9 31.41C81.7821 31.4169 81.664 31.3994 81.5532 31.3587C81.4423 31.3179 81.341 31.2547 81.2556 31.1731C81.1703 31.0915 81.1026 30.9932 81.0569 30.8842C81.0112 30.7753 80.9884 30.6582 80.99 30.5401C81.0035 30.3002 81.1029 30.0732 81.27 29.9006C81.4371 29.728 81.6607 29.6213 81.9 29.6001C82.1379 29.6184 82.3614 29.7213 82.5301 29.89C82.6988 30.0587 82.8016 30.2821 82.82 30.52C82.7949 30.7525 82.6892 30.9689 82.5211 31.1315C82.353 31.2941 82.1332 31.3927 81.9 31.41ZM85.25 25.86C85.2416 26.2585 85.1362 26.649 84.9427 26.9975C84.7493 27.3461 84.4738 27.6421 84.14 27.86C83.5069 28.3248 82.7348 28.561 81.95 28.53C81.4082 28.5609 80.8655 28.4897 80.35 28.3201C79.6075 28.0321 79.0006 27.4751 78.65 26.76C78.5521 26.5356 78.4978 26.2947 78.49 26.05C78.49 25.94 78.49 25.83 78.49 25.73C78.49 25.63 78.49 25.33 78.49 25.12V21.65C78.49 21.37 78.49 21.36 78.78 21.36C79.07 21.36 79.29 21.36 79.55 21.36C79.81 21.36 79.79 21.4101 79.79 21.6001C79.79 22.9101 79.79 24.21 79.79 25.51C79.7474 25.8436 79.8245 26.1814 80.0076 26.4634C80.1907 26.7454 80.468 26.9533 80.79 27.05C81.1444 27.1894 81.524 27.2535 81.9045 27.238C82.285 27.2225 82.6581 27.1278 83 26.96C83.2624 26.8419 83.4841 26.6488 83.6371 26.405C83.7901 26.1613 83.8676 25.8777 83.86 25.59C83.86 24.27 83.86 22.95 83.86 21.59C83.86 21.35 83.92 21.29 84.14 21.31C84.4363 21.33 84.7337 21.33 85.03 21.31C85.21 21.31 85.25 21.37 85.25 21.53C85.25 22.28 85.25 23.03 85.25 23.77C85.25 24.51 85.28 25.17 85.25 25.86Z" fill="#E51A83"/>
<path d="M66.98 24.18C67.11 24.09 67.12 24.0101 66.98 23.8801C66.84 23.7501 66.67 23.39 66.51 23.15C66.0621 22.409 65.5358 21.7184 64.94 21.09L64.62 20.8C64.9208 20.52 65.116 20.1451 65.173 19.7381C65.23 19.3312 65.1452 18.917 64.933 18.5652C64.7207 18.2134 64.3938 17.9453 64.0072 17.8059C63.6207 17.6666 63.1979 17.6645 62.81 17.8C61.73 18.22 60.62 18.6 59.53 19.01C59.3046 19.0833 59.0961 19.2009 58.9167 19.3559C58.7373 19.5108 58.5907 19.7 58.4855 19.9124C58.3802 20.1247 58.3184 20.356 58.3038 20.5926C58.2891 20.8291 58.3218 21.0663 58.4 21.2901C58.4168 21.3296 58.4254 21.3721 58.4254 21.4151C58.4254 21.458 58.4168 21.5005 58.4 21.5401C58.3376 21.6294 58.2636 21.7101 58.18 21.78C57.518 21.054 56.6665 20.5271 55.7214 20.2585C54.7762 19.99 53.7749 19.9905 52.83 20.26V15.7901H48.59V16.11C48.59 19.29 48.59 22.47 48.59 25.65C48.5707 26.5504 48.884 27.4262 49.47 28.11C50.1573 28.9326 51.0669 29.5397 52.0902 29.8589C53.1134 30.1781 54.2069 30.1959 55.24 29.91C56.3756 29.6657 57.3885 29.0282 58.1 28.11C58.167 28.1801 58.2304 28.2536 58.29 28.33L58.47 28.52C59.0129 29.1206 59.7048 29.5672 60.4756 29.8148C61.2464 30.0624 62.0689 30.1021 62.86 29.93C64.0966 29.6579 65.2662 29.1411 66.3 28.41C66.3326 28.3837 66.3586 28.35 66.376 28.3118C66.3933 28.2737 66.4016 28.232 66.4 28.19C66.4 27.79 66.3 27.38 66.24 26.97C66.17 26.36 66.09 25.75 66.02 25.15C66.0194 25.1029 66.0289 25.0563 66.0479 25.0131C66.0669 24.97 66.0949 24.9314 66.13 24.9C66.4 24.65 66.69 24.39 66.98 24.18ZM57.68 24.56C57.68 24.99 57.68 25.43 57.59 25.86C57.504 26.381 57.2596 26.8629 56.89 27.24C56.6619 27.5013 56.4182 27.7484 56.16 27.98C55.9343 28.138 55.6889 28.2657 55.43 28.36C55.2044 28.449 54.9696 28.5127 54.73 28.55C54.46 28.55 54.18 28.6 53.9 28.62C53.0103 28.6856 52.1249 28.4457 51.39 27.94C50.7108 27.5152 50.215 26.8518 50 26.08C49.9951 26.0536 49.9951 26.0265 50 26C50 25.56 49.94 25.13 49.94 24.7V17.0401H51.5V25.8501C51.5 25.8501 51.5 25.85 51.5 25.91C51.6476 26.257 51.8903 26.5551 52.2 26.77C52.5644 27.0105 52.975 27.1721 53.4056 27.2445C53.8361 27.3168 54.277 27.2983 54.7 27.19C54.9414 27.1485 55.1719 27.059 55.3781 26.9267C55.5842 26.7944 55.7617 26.6221 55.9 26.42C56.1663 26.0831 56.3171 25.6693 56.33 25.24C56.33 24.9334 56.33 24.6234 56.33 24.31C56.3127 23.9765 56.2121 23.6525 56.0374 23.3678C55.8628 23.0831 55.6195 22.8466 55.33 22.68C55.2459 22.6393 55.1534 22.6187 55.06 22.62C54.92 22.62 54.77 22.62 54.62 22.62C54.04 22.53 53.72 22.9 53.44 23.31C53.3944 23.375 53.3668 23.4509 53.36 23.53C53.36 23.63 53.36 23.76 53.44 23.8C53.52 23.84 53.63 23.8 53.72 23.8C54.01 23.72 54.3 23.6001 54.6 23.5401C54.7574 23.5372 54.9138 23.5665 55.0595 23.6261C55.2053 23.6857 55.3374 23.7742 55.4478 23.8865C55.5582 23.9988 55.6446 24.1324 55.7017 24.2791C55.7588 24.4258 55.7854 24.5827 55.78 24.74C55.8332 25.0799 55.7845 25.4279 55.64 25.74C55.4326 26.0845 55.1306 26.3622 54.77 26.5401C54.4229 26.6913 54.0374 26.7312 53.6666 26.6542C53.2959 26.5772 52.9581 26.3871 52.7 26.11C52.2789 25.766 52.0009 25.2777 51.92 24.74C51.8021 24.2854 51.8017 23.8083 51.9189 23.3534C52.0361 22.8986 52.2671 22.4811 52.59 22.14C52.91 21.8707 53.2713 21.6546 53.66 21.5H53.76C54.4799 21.4498 55.2023 21.552 55.88 21.8C56.5381 22.0846 57.0759 22.5905 57.4 23.23C57.6101 23.6405 57.7067 24.0997 57.68 24.56ZM60 20.2901L61.5 19.73L63.23 19.09C63.3372 19.0507 63.4476 19.0206 63.56 19C63.6489 18.9923 63.7378 19.0161 63.8109 19.0673C63.8841 19.1185 63.9368 19.1938 63.96 19.28C63.9718 19.3326 63.9732 19.3869 63.964 19.44C63.9548 19.493 63.9353 19.5437 63.9065 19.5892C63.8777 19.6347 63.8402 19.6741 63.7962 19.7052C63.7522 19.7362 63.7025 19.7582 63.65 19.77L62.12 20.34C61.56 20.55 61 20.77 60.42 20.97C60.2958 21.0056 60.1642 21.0056 60.04 20.97C59.9653 20.9633 59.8954 20.9306 59.8424 20.8776C59.7894 20.8246 59.7567 20.7547 59.75 20.68C59.741 20.5963 59.7609 20.512 59.8064 20.4411C59.8519 20.3702 59.9202 20.3169 60 20.2901ZM61.17 26.97C61.3472 27.0585 61.5356 27.1224 61.73 27.16C61.83 27.16 61.94 27.16 62.05 27.16C62.6966 27.1746 63.3297 26.9741 63.85 26.59C64.14 26.42 64.41 26.22 64.71 26.03C64.71 26.29 64.79 26.53 64.82 26.77C64.85 27.01 64.82 27.08 64.89 27.24C64.9072 27.2859 64.9148 27.3348 64.9125 27.3837C64.9101 27.4327 64.8978 27.4806 64.8762 27.5246C64.8547 27.5686 64.8244 27.6077 64.7872 27.6396C64.7501 27.6715 64.7068 27.6955 64.66 27.71C64.08 27.97 63.49 28.24 62.91 28.48C62.7707 28.5235 62.6259 28.5471 62.48 28.55C62.17 28.55 61.86 28.55 61.54 28.55C60.9021 28.5457 60.2915 28.2907 59.84 27.84C59.7308 27.7192 59.6139 27.6057 59.49 27.5C59 27.074 58.6513 26.509 58.49 25.8801C58.3472 25.4169 58.3073 24.9282 58.3729 24.4481C58.4385 23.9679 58.6082 23.5079 58.87 23.1001C59.2616 22.4875 59.8062 21.9878 60.45 21.65C60.8294 21.4581 61.2453 21.349 61.67 21.33C62.3098 21.2653 62.9543 21.3942 63.52 21.7C63.6638 21.7861 63.8009 21.8831 63.93 21.99C64.4652 22.51 64.9292 23.0984 65.31 23.74C64.4 24.36 63.54 24.9601 62.67 25.5701L61.16 26.65C60.97 26.78 60.96 26.86 61.17 26.97Z" fill="#E51A83"/>
<path d="M60.66 23.36C60.4002 23.5975 60.2211 23.9102 60.1476 24.2544C60.0741 24.5986 60.1099 24.9572 60.25 25.28L63.25 23.34C62.8796 23.05 62.4219 22.8941 61.9515 22.8977C61.4811 22.9014 61.0258 23.0643 60.66 23.36Z" fill="#E51A83"/>
</g>
<defs>
<clipPath id="clip0_3455_7265">
<rect width="118.51" height="40.74" fill="white" transform="translate(0 0.500038)"/>
</clipPath>
</defs>
</svg>
