<svg width="119" height="41" viewBox="0 0 119 41" fill="none" xmlns="http://www.w3.org/2000/svg">
    <g clip-path="url(#clip0_485_2973)">
    <path d="M1.19 15.39C1.64346 14.303 2.1993 13.2617 2.85 12.28C3.34808 11.526 3.90658 10.8136 4.52 10.15C5.22336 9.34818 6.00751 8.62099 6.86 7.97999C7.24 7.69999 7.65 7.45001 8.02 7.16001C8.39 6.87001 8.89 6.4 9.36 6.05C10.4597 5.20654 11.6545 4.49502 12.92 3.93C14.0174 3.44141 15.1594 3.05966 16.33 2.79002C17.3488 2.55472 18.386 2.40751 19.43 2.35001C20.1194 2.30995 20.8106 2.30995 21.5 2.35001C22.0464 2.37147 22.5909 2.42824 23.13 2.52C23.9325 2.64815 24.7271 2.82178 25.51 3.04002C27.2193 3.52922 28.8421 4.28155 30.32 5.27C31.4161 5.96527 32.4235 6.79134 33.32 7.72999C33.454 7.89656 33.6478 8.00422 33.86 8.03001H34.04C34.9166 8.29116 35.7696 8.62568 36.59 9.03001L37.59 9.44001C37.5765 9.389 37.5598 9.3389 37.54 9.29002C37.4 9.08002 37.26 8.86001 37.11 8.66001C36.49 7.89001 35.88 7.1 35.22 6.37C34.4912 5.55293 33.684 4.80936 32.81 4.15C31.6633 3.26598 30.4225 2.5114 29.11 1.9C28.1474 1.43055 27.1431 1.05223 26.11 0.769997C25.38 0.569997 24.64 0.399997 23.89 0.269997C23.14 0.139997 22.5 0.0999869 21.8 0.00998688C21.8 0.00998688 21.73 0.00998688 21.69 0.00998688H19.06L18.39 0.090004C17.75 0.180004 17.09 0.209993 16.45 0.359993C15.45 0.579993 14.54 0.859992 13.59 1.13999C12.5081 1.49863 11.4632 1.96078 10.47 2.52C9.47212 3.06804 8.52504 3.70388 7.64 4.41999C6.85551 5.01709 6.12897 5.68671 5.47 6.41999C4.99 6.97999 4.47 7.52999 4.04 8.10999C3.40989 8.91102 2.85425 9.76791 2.38 10.67C1.70791 11.8587 1.16482 13.1158 0.759998 14.42C0.589998 14.98 0.449998 15.55 0.329998 16.13C0.209998 16.71 0.119999 17.21 0.039999 17.76C-0.00142589 18.0384 -0.0281296 18.3188 -0.0400009 18.6C0.0470402 18.3973 0.123804 18.1904 0.189999 17.98C0.549999 17.15 0.849999 16.25 1.19 15.39Z" fill="white"/>
    <path d="M25.76 39.69C26.7817 39.4722 27.7848 39.1746 28.76 38.8C29.77 38.4518 30.7338 37.9816 31.63 37.4C32.5291 36.8027 33.3785 36.1339 34.17 35.4C34.8 34.81 35.39 34.17 35.97 33.52C36.6791 32.7268 37.3088 31.866 37.85 30.95C38.5861 29.7524 39.1897 28.4782 39.65 27.15C40.1345 25.8591 40.47 24.5171 40.65 23.15C40.73 22.43 40.82 21.7 40.85 20.97C40.88 20.24 40.85 19.61 40.85 18.97C40.8649 18.7836 40.8649 18.5964 40.85 18.41C40.75 17.8747 40.75 17.3254 40.85 16.79C40.9729 15.9013 41.2685 15.0452 41.72 14.27C42.1694 13.4725 42.7954 12.7883 43.55 12.27C43.89 12.03 44.27 11.83 44.64 11.61C44.27 11.61 43.91 11.61 43.55 11.54C43.02 11.48 42.49 11.41 41.96 11.3C40.8322 11.0441 39.7283 10.6929 38.66 10.25C37.76 9.89002 36.86 9.53001 35.96 9.15001C35.176 8.7932 34.3438 8.55397 33.49 8.44002C32.7774 8.35988 32.057 8.38007 31.35 8.50002C30.525 8.64571 29.7304 8.9297 29 9.34001C28.1812 9.80334 27.4363 10.3865 26.79 11.07C26.2466 11.6369 25.7701 12.2644 25.37 12.94C24.9453 13.651 24.5613 14.3855 24.22 15.14C23.8833 16.007 23.4925 16.852 23.05 17.67C22.4944 18.5641 21.844 19.3955 21.11 20.15C20.7146 20.5667 20.2865 20.9513 19.83 21.3C18.9705 22.0154 17.8776 22.3892 16.76 22.35H16.48L16.58 22.43C17.4117 22.8236 18.3489 22.9359 19.25 22.75C20.0571 22.6075 20.8243 22.2938 21.5 21.83C22.4137 21.2475 23.2274 20.5216 23.91 19.68C24.4036 19.109 24.8612 18.5079 25.28 17.88C25.94 16.88 26.56 15.79 27.15 14.72C27.4829 14.0724 27.8888 13.4652 28.36 12.91C29.1411 12.0119 30.1063 11.2923 31.19 10.8C32.1177 10.3958 33.1181 10.1849 34.13 10.18C34.5526 10.1853 34.974 10.2254 35.39 10.3C36.4333 10.4532 37.4458 10.7705 38.39 11.24C38.9125 11.4932 39.4502 11.7136 40 11.9C40.4739 12.0222 40.9548 12.1157 41.44 12.18L41 12.35C40.5841 12.4859 40.2006 12.706 39.8737 12.9968C39.5468 13.2876 39.2834 13.6428 39.1 14.04C38.715 14.9423 38.5047 15.9094 38.48 16.89C38.48 17.6 38.48 18.31 38.48 19.02C38.48 19.08 38.48 19.13 38.48 19.19C38.48 19.66 38.58 20.14 38.59 20.61C38.5936 20.9882 38.5668 21.3661 38.51 21.74C38.41 22.52 38.31 23.31 38.18 24.08C37.9236 25.4157 37.4968 26.713 36.91 27.94C36.329 29.1475 35.6074 30.282 34.76 31.32C34.1515 32.1319 33.4649 32.8821 32.71 33.56C32.07 34.1 31.45 34.66 30.77 35.14C29.3603 36.1398 27.8101 36.925 26.17 37.47C25.0238 37.8667 23.8361 38.1317 22.63 38.26C21.89 38.33 21.15 38.4 20.41 38.42C19.9188 38.4233 19.4279 38.3966 18.94 38.34C18.4979 38.322 18.0571 38.2785 17.62 38.21C16.9533 38.0833 16.2867 37.9333 15.62 37.76C14.2733 37.4262 12.9757 36.9186 11.76 36.25L11.12 35.93C11.12 35.93 11.12 35.98 11.12 35.99C11.87 36.53 12.61 37.09 13.37 37.61C14.4241 38.3039 15.5636 38.8585 16.76 39.26C17.6604 39.5922 18.5969 39.8171 19.55 39.93C20.19 40 20.83 40.07 21.47 40.09C22.3116 40.1383 23.1558 40.1014 23.99 39.98C24.59 39.88 25.15 39.81 25.76 39.69Z" fill="white"/>
    <path d="M2.67 16.48C2.94539 15.1705 3.37505 13.8983 3.95 12.69C4.49301 11.5575 5.13201 10.4735 5.86 9.44999L5.72 9.59C5.45 9.89 5.18 10.19 4.93 10.5C4.48 11.07 4.02 11.65 3.6 12.25C2.96302 13.1327 2.41691 14.0775 1.97 15.07C1.72 15.6 1.49 16.14 1.29 16.69C0.974743 17.5345 0.746885 18.409 0.609997 19.3C0.529997 19.95 0.399998 20.59 0.379998 21.24C0.296624 22.4503 0.363803 23.6663 0.579997 24.86C0.697741 25.5739 0.851269 26.2815 1.04 26.98C1.46449 28.2867 2.04182 29.5387 2.76 30.71C3.50412 31.9655 4.37899 33.1386 5.37 34.21C6.12432 35.0427 6.95829 35.7997 7.86 36.47C8.61 37.02 9.4 37.52 10.19 38.01C11.2401 38.6467 12.3567 39.1664 13.52 39.56C14.8104 40.046 16.1526 40.3816 17.52 40.56C18.22 40.64 18.91 40.72 19.62 40.76C20.1 40.76 20.62 40.76 21.07 40.76H21.25C20.71 40.65 20.16 40.6 19.63 40.49C18.5696 40.2832 17.5266 39.9957 16.51 39.63C15.1807 39.124 13.9207 38.452 12.76 37.63C12.23 37.26 11.76 36.85 11.23 36.44C10.95 36.21 10.71 35.92 10.45 35.67C10.19 35.42 9.94 35.17 9.67 34.93C9.14 34.49 8.58 34.08 8.07 33.62C7.60316 33.2074 7.16545 32.763 6.76 32.29C6.31 31.78 5.89 31.29 5.49 30.71C4.80268 29.7034 4.22284 28.6276 3.76 27.5C3.38356 26.639 3.07593 25.7496 2.84 24.84C2.53458 23.7067 2.35681 22.5428 2.31 21.37C2.28204 20.3693 2.30874 19.3678 2.39 18.37C2.44816 17.7353 2.54164 17.1043 2.67 16.48Z" fill="white"/>
    <path d="M15.65 20.73C15.65 20.53 15.65 20.32 15.65 20.11C15.58 19.54 15.52 18.97 15.44 18.4C15.36 17.83 15.29 17.34 15.16 16.83C14.98 16.14 14.75 15.45 14.51 14.78C14.3378 14.3059 14.0489 13.8829 13.67 13.55C13.4184 13.3173 13.1024 13.166 12.7633 13.116C12.4243 13.066 12.078 13.1197 11.77 13.27C11.5605 13.335 11.3659 13.4406 11.1973 13.5808C11.0286 13.721 10.8893 13.8931 10.7871 14.0872C10.685 14.2813 10.6221 14.4936 10.602 14.712C10.5819 14.9304 10.605 15.1505 10.67 15.36C10.8372 16.0091 11.1146 16.6247 11.49 17.18C12.1494 18.1706 12.8993 19.0979 13.73 19.95C14.27 20.51 14.84 21.03 15.4 21.57C15.4917 21.6527 15.5886 21.7295 15.69 21.8C15.65 21.44 15.66 21.09 15.65 20.73Z" fill="white"/>
    <path d="M13.5 22.35C14.1861 22.39 14.8739 22.39 15.56 22.35V22.26C15.45 22.16 15.33 22.07 15.22 21.96C14.76 21.53 14.32 21.08 13.83 20.68C13.34 20.28 12.63 19.68 12.01 19.27C11.1506 18.5945 10.1645 18.098 9.11 17.81C8.683 17.6801 8.22701 17.6801 7.80001 17.81C7.56629 17.9089 7.35627 18.0563 7.18386 18.2425C7.01146 18.4287 6.88061 18.6494 6.80001 18.89C6.64245 19.2129 6.59527 19.5786 6.66573 19.9309C6.73619 20.2832 6.92038 20.6026 7.19 20.84C7.55664 21.1532 7.9814 21.3911 8.44 21.54C9.19102 21.8203 9.96824 22.0247 10.76 22.15C11.6244 22.2766 12.4964 22.3434 13.37 22.35H13.5Z" fill="white"/>
    <path d="M17.85 12.83C17.6076 12.8904 17.3824 13.0057 17.1917 13.1669C17.001 13.3282 16.8498 13.5311 16.75 13.76C16.3572 14.5755 16.1425 15.4652 16.12 16.37C16.12 16.89 16.12 17.37 16.12 17.93C16.12 18.49 16.12 18.93 16.12 19.41C16.12 19.89 16.23 20.59 16.29 21.18C16.29 21.44 16.37 21.69 16.42 21.98C16.4585 21.9487 16.4952 21.9154 16.53 21.88C16.91 21.37 17.3 20.88 17.67 20.34C18.4007 19.3396 19.0336 18.2714 19.56 17.15C20.0017 16.3315 20.2158 15.4094 20.18 14.48C20.16 14.1989 20.078 13.9257 19.94 13.68C19.7176 13.3445 19.3992 13.0838 19.0263 12.9322C18.6534 12.7805 18.2434 12.7449 17.85 12.83Z" fill="white"/>
    <path d="M34.47 12.58C34.4756 12.2631 34.3576 11.9565 34.1411 11.7251C33.9246 11.4936 33.6265 11.3555 33.31 11.34C33.1442 11.3306 32.9782 11.3543 32.8216 11.4098C32.6651 11.4652 32.5211 11.5513 32.3982 11.6631C32.2753 11.7748 32.176 11.9099 32.1059 12.0604C32.0358 12.211 31.9964 12.3741 31.99 12.54C31.9873 12.8751 32.1172 13.1977 32.3514 13.4375C32.5855 13.6772 32.9049 13.8147 33.24 13.82C33.4031 13.8228 33.5651 13.7925 33.7163 13.731C33.8674 13.6695 34.0045 13.5781 34.1194 13.4623C34.2343 13.3465 34.3246 13.2086 34.3849 13.057C34.4451 12.9054 34.4741 12.7431 34.47 12.58Z" fill="white"/>
    <path d="M118.46 22.63C118.4 22.0086 118.165 21.4169 117.783 20.9232C117.401 20.4295 116.887 20.054 116.3 19.84C114.834 19.2696 113.206 19.2696 111.74 19.84C111.662 19.8646 111.578 19.8646 111.5 19.84C110.841 19.5882 110.145 19.4431 109.44 19.41C108.67 19.3363 107.892 19.4424 107.17 19.72C106.81 19.86 106.49 20.07 106.17 20.25L105.61 19.1L105.81 19.05C106.342 18.969 106.83 18.7088 107.194 18.3123C107.558 17.9158 107.775 17.4069 107.81 16.87C107.837 16.6003 107.797 16.328 107.693 16.0776C107.589 15.8272 107.425 15.6064 107.215 15.435C107.005 15.2636 106.756 15.1469 106.49 15.0955C106.224 15.044 105.949 15.0593 105.69 15.14C105.322 15.2754 104.918 15.2754 104.55 15.14C104.242 15.0334 103.915 14.9906 103.59 15.014C103.264 15.0374 102.947 15.1266 102.657 15.2762C102.368 15.4258 102.111 15.6327 101.904 15.8843C101.696 16.1359 101.542 16.427 101.45 16.74C101.437 16.8147 101.401 16.8836 101.347 16.9373C101.294 16.9909 101.225 17.0268 101.15 17.04C100.326 17.2617 99.6034 17.7606 99.1043 18.4528C98.6052 19.145 98.36 19.9881 98.41 20.84C98.3954 20.972 98.3582 21.1006 98.3 21.22C97.6362 20.4933 96.7834 19.9653 95.8369 19.6951C94.8904 19.425 93.8874 19.4232 92.94 19.69V15.22H88.69V25.15C88.6718 25.9547 88.9215 26.7427 89.4 27.39C90.3111 28.5467 91.6319 29.309 93.0892 29.5193C94.5466 29.7296 96.029 29.3719 97.23 28.52C97.53 28.3 97.78 28.03 98.07 27.79C98.6557 28.6372 99.5159 29.2561 100.505 29.5422C101.495 29.8283 102.553 29.7639 103.5 29.36C103.5 29.56 103.6 29.51 103.7 29.51H108.97H109.11V23.71H109.55V29.51H113.76V23.67H114.16V29.5H118.46V22.75C118.451 22.7105 118.451 22.6695 118.46 22.63ZM97.27 26.29C96.978 26.8168 96.5497 27.2555 96.03 27.56C95.399 27.9386 94.6758 28.1359 93.94 28.13C93.3905 28.1534 92.8413 28.0755 92.32 27.9C91.6083 27.637 90.9822 27.1839 90.51 26.59C90.1651 26.1845 89.9708 25.6723 89.96 25.14V16.99C89.96 16.66 90.04 16.58 90.37 16.58H91.28C91.45 16.58 91.5 16.58 91.5 16.8C91.5 18.19 91.5 19.58 91.5 20.98C91.5 22.38 91.5 23.55 91.5 24.84C91.4839 25.1476 91.5564 25.4533 91.7088 25.721C91.8612 25.9886 92.0872 26.2069 92.36 26.35C93.0008 26.7397 93.7642 26.8753 94.5 26.73C94.9466 26.6652 95.362 26.4628 95.6882 26.151C96.0144 25.8391 96.2352 25.4333 96.32 24.99C96.4331 24.5949 96.4558 24.1795 96.3866 23.7744C96.3173 23.3694 96.1579 22.9851 95.92 22.65C95.7705 22.4164 95.5542 22.2333 95.2991 22.1245C95.044 22.0156 94.7621 21.9862 94.49 22.04C94.2798 22.0803 94.0811 22.1667 93.9082 22.2929C93.7353 22.4191 93.5925 22.582 93.49 22.77C93.49 22.77 93.49 22.82 93.49 22.83C93.49 22.84 93.49 23.12 93.49 23.26C93.6196 23.2743 93.7504 23.2743 93.88 23.26C94.1351 23.1432 94.4099 23.0753 94.69 23.06C94.9971 23.0926 95.2838 23.2295 95.5021 23.4479C95.7205 23.6663 95.8574 23.9529 95.89 24.26C95.9063 24.5488 95.8525 24.8372 95.733 25.1006C95.6135 25.364 95.432 25.5945 95.2039 25.7725C94.9759 25.9504 94.7081 26.0704 94.4236 26.1222C94.139 26.174 93.8461 26.1561 93.57 26.07C93.1788 25.9303 92.8285 25.6953 92.5509 25.3863C92.2733 25.0772 92.0771 24.7039 91.98 24.3C91.8691 23.9359 91.8367 23.5525 91.885 23.175C91.9332 22.7974 92.0611 22.4344 92.26 22.11C92.4348 21.7649 92.7025 21.4753 93.0328 21.274C93.3632 21.0726 93.7431 20.9673 94.13 20.97C94.8875 20.9099 95.6452 21.0845 96.3 21.47C96.6901 21.7413 97.0287 22.0799 97.3 22.47C97.6237 22.9688 97.7844 23.5559 97.76 24.15C97.7947 24.8947 97.6253 25.6347 97.27 26.29ZM102.7 17.14C102.799 16.9086 102.971 16.7155 103.189 16.5894C103.407 16.4633 103.66 16.4109 103.91 16.44C104.185 16.5084 104.453 16.6021 104.71 16.72C104.883 16.8395 105.093 16.8931 105.302 16.8711C105.511 16.8491 105.706 16.7529 105.85 16.6C105.91 16.5747 105.975 16.5616 106.04 16.5616C106.105 16.5616 106.17 16.5747 106.23 16.6C106.36 16.65 106.39 16.8 106.37 16.96C106.301 17.237 106.126 17.476 105.883 17.6256C105.64 17.7751 105.348 17.8234 105.07 17.76C104.764 17.6785 104.466 17.568 104.18 17.43C103.75 17.23 103.6 17.25 103.28 17.57C103.17 17.68 103.05 17.84 102.85 17.73C102.758 17.6686 102.692 17.5756 102.664 17.4686C102.637 17.3616 102.649 17.2482 102.7 17.15V17.14ZM100.04 19.5C100.245 19.1489 100.536 18.8561 100.886 18.6495C101.236 18.4429 101.634 18.3295 102.04 18.32C102.442 18.2771 102.848 18.361 103.2 18.56C103.377 18.6836 103.541 18.8243 103.69 18.98C103.9 19.21 104.1 19.46 104.3 19.7C104.338 19.7649 104.366 19.8359 104.38 19.91C104.02 19.97 103.7 20.05 103.38 20.09C103.3 20.09 103.17 20 103.11 19.92C102.863 19.6914 102.549 19.5477 102.214 19.5099C101.88 19.4721 101.542 19.5422 101.25 19.71C101.141 19.7866 101.05 19.8864 100.985 20.0023C100.919 20.1182 100.88 20.2472 100.87 20.38C100.87 20.5 100.87 20.55 100.69 20.56C100.51 20.57 100.22 20.65 99.99 20.71C99.76 20.77 99.76 20.71 99.75 20.55C99.7242 20.1772 99.8265 19.8067 100.04 19.5ZM117.15 28.02H115.61C115.61 27.92 115.61 27.83 115.61 27.74C115.61 26.33 115.61 24.92 115.61 23.5C115.644 23.2004 115.558 22.8997 115.37 22.6635C115.183 22.4274 114.909 22.2751 114.61 22.24C114.075 22.1315 113.522 22.159 113 22.32C112.894 22.3456 112.798 22.4005 112.722 22.4783C112.646 22.5561 112.593 22.6537 112.57 22.76C112.494 23.0513 112.447 23.3494 112.43 23.65C112.43 25.02 112.43 26.39 112.43 27.76V28.03H111.43C110.87 28.03 110.87 28.03 110.87 27.46C110.87 26.08 110.87 24.69 110.87 23.32C110.908 23.0948 110.856 22.8637 110.725 22.6766C110.594 22.4895 110.395 22.3615 110.17 22.32C109.585 22.1101 108.945 22.1101 108.36 22.32C108.16 22.3965 107.991 22.5348 107.876 22.7147C107.76 22.8947 107.706 23.1068 107.72 23.32V28.02H107.49H105.06C104.86 28.02 104.81 27.96 104.82 27.77C104.82 27.22 104.82 26.67 104.82 26.12C104.798 25.4496 104.731 24.7815 104.62 24.12C104.553 23.6732 104.35 23.2579 104.039 22.9305C103.727 22.6031 103.323 22.3795 102.88 22.29C102.417 22.1658 101.929 22.171 101.469 22.305C101.009 22.439 100.594 22.6967 100.27 23.05C100.083 23.2638 99.9407 23.5128 99.8514 23.7825C99.7621 24.0521 99.7276 24.3369 99.75 24.62C99.7263 24.9568 99.7807 25.2945 99.9091 25.6067C100.037 25.919 100.236 26.1973 100.49 26.42C100.599 26.5311 100.73 26.6186 100.875 26.677C101.019 26.7355 101.174 26.7637 101.33 26.76C101.62 26.76 101.9 26.76 102.19 26.7C102.349 26.6591 102.498 26.5878 102.63 26.49C102.732 26.4319 102.815 26.345 102.869 26.2401C102.922 26.1352 102.943 26.0169 102.93 25.9C102.93 25.77 102.93 25.63 102.93 25.49C102.93 25.4628 102.924 25.4358 102.912 25.4115C102.9 25.3871 102.882 25.366 102.86 25.35C102.86 25.35 102.76 25.35 102.71 25.35C102.66 25.35 102.43 25.57 102.27 25.66C102.069 25.7889 101.836 25.86 101.597 25.8653C101.358 25.8706 101.123 25.81 100.916 25.6902C100.709 25.5703 100.54 25.3958 100.426 25.1859C100.312 24.9759 100.258 24.7386 100.27 24.5C100.287 24.1339 100.412 23.781 100.629 23.4857C100.846 23.1903 101.146 22.9657 101.49 22.84C101.706 22.8201 101.924 22.8201 102.14 22.84C102.542 22.7971 102.946 22.8914 103.287 23.1074C103.629 23.3235 103.887 23.6486 104.02 24.03C104.183 24.3664 104.265 24.7362 104.26 25.11C104.303 25.6309 104.238 26.1551 104.07 26.65C103.91 27.0429 103.659 27.3921 103.337 27.6686C103.015 27.9451 102.633 28.141 102.22 28.24C101.559 28.3941 100.864 28.2866 100.28 27.94C99.4276 27.4658 98.7955 26.6757 98.52 25.74C98.3382 25.1444 98.2937 24.5153 98.39 23.9C98.4656 23.2409 98.7575 22.6255 99.22 22.15C99.6419 21.6565 100.182 21.278 100.79 21.05C101.114 20.9427 101.45 20.8755 101.79 20.85C102.468 20.788 103.151 20.8768 103.79 21.11C104.196 21.2494 104.564 21.4795 104.867 21.7827C105.17 22.086 105.401 22.4544 105.54 22.86C105.73 23.41 105.89 23.97 106.03 24.4C106.03 24.04 106.03 23.55 106.09 23.06C106.102 22.7103 106.199 22.3688 106.373 22.0655C106.548 21.7621 106.794 21.5062 107.09 21.32C107.602 20.9926 108.202 20.8287 108.81 20.85C109.366 20.8246 109.923 20.8853 110.46 21.03C110.741 21.1139 111.013 21.2279 111.27 21.37C111.333 21.4041 111.403 21.422 111.475 21.422C111.547 21.422 111.617 21.4041 111.68 21.37C112.14 21.1645 112.615 20.994 113.1 20.86C113.466 20.8246 113.834 20.8246 114.2 20.86C114.807 20.8192 115.412 20.9583 115.94 21.26C116.187 21.4012 116.403 21.5909 116.575 21.8178C116.747 22.0446 116.871 22.3039 116.94 22.58C117.002 22.8724 117.029 23.1712 117.02 23.47C117.02 24.9 117.02 26.33 117.02 27.76L117.15 28.02Z" fill="white"/>
    <path d="M82.53 19.46V24.85C82.53 25.12 82.45 25.23 82.18 25.27C81.9438 25.29 81.7063 25.29 81.47 25.27C81.2 25.27 81.17 25.2 81.17 24.92V19.46H77.09V20.29C76.4498 19.9166 75.7414 19.6747 75.0065 19.5786C74.2715 19.4824 73.5248 19.5339 72.81 19.73V15.24H68.53V15.4C68.53 18.65 68.53 21.88 68.53 25.12C68.5148 25.9368 68.7795 26.7343 69.28 27.38C69.7562 28.0228 70.3713 28.55 71.0794 28.9222C71.7875 29.2945 72.5705 29.5022 73.37 29.53C74.7623 29.6506 76.1477 29.2317 77.24 28.36C77.48 28.17 77.69 27.95 77.92 27.75C78.4101 28.3596 79.0418 28.8402 79.76 29.15C79.76 29.24 79.76 29.3 79.69 29.37C79.5303 29.8408 79.5309 30.3513 79.692 30.8217C79.853 31.292 80.1652 31.6959 80.58 31.97C80.8742 32.1204 81.1782 32.2507 81.49 32.36H82.27L82.38 32.31C82.7873 32.224 83.1623 32.0258 83.4627 31.7377C83.7632 31.4497 83.977 31.0833 84.08 30.68C84.2249 30.152 84.1824 29.5902 83.96 29.09L84.16 29C84.9017 28.6943 85.5311 28.1673 85.9624 27.4909C86.3937 26.8144 86.6059 26.0214 86.57 25.22C86.57 23.4 86.57 21.58 86.57 19.76V19.51L82.53 19.46ZM77.46 25.76C77.2864 26.2237 77.0193 26.6469 76.6752 27.003C76.3312 27.3591 75.9175 27.6406 75.46 27.83C74.9955 28.0288 74.4953 28.1309 73.99 28.13C73.4071 28.1696 72.8221 28.0914 72.27 27.9C71.6056 27.6496 71.0144 27.2371 70.55 26.7C70.1917 26.2978 69.9925 25.7786 69.99 25.24C69.99 23.89 69.99 22.55 69.99 21.24V17.03C69.99 16.71 70.06 16.62 70.38 16.62H71.05C71.35 16.62 71.44 16.72 71.44 17.01V23.91C71.44 24.2 71.44 24.49 71.44 24.78V25.15C71.4931 25.4806 71.6345 25.7908 71.8492 26.0478C72.0639 26.3048 72.3441 26.499 72.66 26.61C73.1987 26.8276 73.7877 26.89 74.36 26.79C74.7981 26.742 75.2102 26.558 75.5384 26.2639C75.8666 25.9698 76.0945 25.5802 76.19 25.15C76.4049 24.5349 76.4049 23.8651 76.19 23.25C76.1107 22.984 75.975 22.7381 75.7921 22.5293C75.6092 22.3205 75.3833 22.1536 75.13 22.04C74.821 21.9311 74.4833 21.9356 74.1773 22.0529C73.8713 22.1701 73.6171 22.3924 73.46 22.68C73.4546 22.7098 73.4546 22.7402 73.46 22.77C73.46 22.91 73.46 23.06 73.46 23.22C73.63 23.22 73.82 23.22 73.94 23.16C74.107 23.0655 74.2913 23.0052 74.4819 22.9829C74.6725 22.9606 74.8657 22.9766 75.05 23.03C75.2977 23.1043 75.5128 23.2605 75.66 23.4731C75.8072 23.6857 75.8777 23.942 75.86 24.2C75.909 24.5203 75.8602 24.8479 75.72 25.14C75.4597 25.5438 75.0729 25.8497 74.62 26.01C74.0657 26.1197 73.4905 26.0129 73.0125 25.7116C72.5345 25.4103 72.1901 24.9374 72.05 24.39C71.9928 24.006 71.9661 23.6182 71.97 23.23C71.94 22.8868 71.9945 22.5415 72.1288 22.2243C72.263 21.907 72.4729 21.6275 72.74 21.41C73.0888 21.0923 73.5386 20.9081 74.01 20.89C74.5672 20.8423 75.1283 20.9069 75.66 21.08C76.0471 21.1962 76.4059 21.3913 76.714 21.6528C77.022 21.9144 77.2726 22.2369 77.45 22.6C77.6687 23.0556 77.7815 23.5547 77.78 24.06C77.7864 24.6422 77.6776 25.2199 77.46 25.76ZM81.9 30.91C81.7821 30.9169 81.664 30.8994 81.5532 30.8586C81.4423 30.8179 81.341 30.7547 81.2556 30.6731C81.1703 30.5914 81.1026 30.4931 81.0569 30.3842C81.0112 30.2753 80.9884 30.1581 80.99 30.04C81.0035 29.8002 81.1029 29.5731 81.27 29.4005C81.4371 29.2279 81.6607 29.1213 81.9 29.1C82.1379 29.1184 82.3614 29.2212 82.5301 29.3899C82.6988 29.5586 82.8016 29.7821 82.82 30.02C82.7949 30.2525 82.6892 30.4689 82.5211 30.6315C82.353 30.7941 82.1332 30.8927 81.9 30.91ZM85.25 25.36C85.2416 25.7585 85.1362 26.149 84.9427 26.4975C84.7493 26.846 84.4738 27.1421 84.14 27.36C83.5069 27.8247 82.7348 28.061 81.95 28.03C81.4082 28.0609 80.8655 27.9897 80.35 27.82C79.6075 27.532 79.0006 26.9751 78.65 26.26C78.5521 26.0356 78.4978 25.7947 78.49 25.55C78.49 25.44 78.49 25.33 78.49 25.23C78.49 25.13 78.49 24.83 78.49 24.62V21.15C78.49 20.87 78.49 20.86 78.78 20.86C79.07 20.86 79.29 20.86 79.55 20.86C79.81 20.86 79.79 20.91 79.79 21.1C79.79 22.41 79.79 23.71 79.79 25.01C79.7474 25.3435 79.8245 25.6814 80.0076 25.9634C80.1907 26.2454 80.468 26.4533 80.79 26.55C81.1444 26.6894 81.524 26.7534 81.9045 26.7379C82.285 26.7224 82.6581 26.6278 83 26.46C83.2624 26.3418 83.4841 26.1487 83.6371 25.905C83.7901 25.6612 83.8676 25.3777 83.86 25.09C83.86 23.77 83.86 22.45 83.86 21.09C83.86 20.85 83.92 20.79 84.14 20.81C84.4363 20.83 84.7337 20.83 85.03 20.81C85.21 20.81 85.25 20.87 85.25 21.03C85.25 21.78 85.25 22.53 85.25 23.27C85.25 24.01 85.28 24.67 85.25 25.36Z" fill="white"/>
    <path d="M66.98 23.68C67.11 23.59 67.12 23.51 66.98 23.38C66.84 23.25 66.67 22.89 66.51 22.65C66.0621 21.909 65.5358 21.2183 64.94 20.59L64.62 20.3C64.9208 20.02 65.116 19.6451 65.173 19.2381C65.23 18.8312 65.1452 18.417 64.933 18.0652C64.7207 17.7133 64.3938 17.4452 64.0072 17.3059C63.6207 17.1666 63.1979 17.1645 62.81 17.3C61.73 17.72 60.62 18.1 59.53 18.51C59.3046 18.5833 59.0961 18.7009 58.9167 18.8558C58.7373 19.0108 58.5907 19.2 58.4855 19.4123C58.3802 19.6247 58.3184 19.856 58.3038 20.0925C58.2891 20.3291 58.3218 20.5663 58.4 20.79C58.4168 20.8296 58.4254 20.8721 58.4254 20.915C58.4254 20.958 58.4168 21.0005 58.4 21.04C58.3376 21.1294 58.2636 21.2101 58.18 21.28C57.518 20.5539 56.6665 20.027 55.7214 19.7585C54.7762 19.49 53.7749 19.4905 52.83 19.76V15.29H48.59V15.61C48.59 18.79 48.59 21.97 48.59 25.15C48.5707 26.0503 48.884 26.9262 49.47 27.61C50.1573 28.4325 51.0669 29.0397 52.0902 29.3589C53.1134 29.6781 54.2069 29.6959 55.24 29.41C56.3756 29.1657 57.3885 28.5282 58.1 27.61C58.167 27.6801 58.2304 27.7535 58.29 27.83L58.47 28.02C59.0129 28.6206 59.7048 29.0672 60.4756 29.3148C61.2464 29.5623 62.0689 29.6021 62.86 29.43C64.0966 29.1579 65.2662 28.6411 66.3 27.91C66.3326 27.8836 66.3586 27.85 66.376 27.8118C66.3933 27.7736 66.4016 27.7319 66.4 27.69C66.4 27.29 66.3 26.88 66.24 26.47C66.17 25.86 66.09 25.25 66.02 24.65C66.0194 24.6029 66.0289 24.5562 66.0479 24.5131C66.0669 24.47 66.0949 24.4314 66.13 24.4C66.4 24.15 66.69 23.89 66.98 23.68ZM57.68 24.06C57.68 24.49 57.68 24.93 57.59 25.36C57.504 25.881 57.2596 26.3628 56.89 26.74C56.6619 27.0013 56.4182 27.2484 56.16 27.48C55.9343 27.6379 55.6889 27.7657 55.43 27.86C55.2044 27.9489 54.9696 28.0127 54.73 28.05C54.46 28.05 54.18 28.1 53.9 28.12C53.0103 28.1855 52.1249 27.9457 51.39 27.44C50.7108 27.0152 50.215 26.3517 50 25.58C49.9951 25.5536 49.9951 25.5265 50 25.5C50 25.06 49.94 24.63 49.94 24.2V16.54H51.5V25.35C51.5 25.35 51.5 25.35 51.5 25.41C51.6476 25.7569 51.8903 26.055 52.2 26.27C52.5644 26.5105 52.975 26.6721 53.4056 26.7444C53.8361 26.8168 54.277 26.7982 54.7 26.69C54.9414 26.6485 55.1719 26.5589 55.3781 26.4267C55.5842 26.2944 55.7617 26.1221 55.9 25.92C56.1663 25.583 56.3171 25.1693 56.33 24.74C56.33 24.4333 56.33 24.1233 56.33 23.81C56.3127 23.4764 56.2121 23.1525 56.0374 22.8677C55.8628 22.583 55.6195 22.3466 55.33 22.18C55.2459 22.1392 55.1534 22.1187 55.06 22.12C54.92 22.12 54.77 22.12 54.62 22.12C54.04 22.03 53.72 22.4 53.44 22.81C53.3944 22.875 53.3668 22.9509 53.36 23.03C53.36 23.13 53.36 23.26 53.44 23.3C53.52 23.34 53.63 23.3 53.72 23.3C54.01 23.22 54.3 23.1 54.6 23.04C54.7574 23.0372 54.9138 23.0665 55.0595 23.126C55.2053 23.1856 55.3374 23.2742 55.4478 23.3865C55.5582 23.4988 55.6446 23.6323 55.7017 23.7791C55.7588 23.9258 55.7854 24.0826 55.78 24.24C55.8332 24.5798 55.7845 24.9278 55.64 25.24C55.4326 25.5845 55.1306 25.8621 54.77 26.04C54.4229 26.1913 54.0374 26.2312 53.6666 26.1542C53.2959 26.0772 52.9581 25.887 52.7 25.61C52.2789 25.266 52.0009 24.7777 51.92 24.24C51.8021 23.7854 51.8017 23.3082 51.9189 22.8534C52.0361 22.3986 52.2671 21.981 52.59 21.64C52.91 21.3707 53.2713 21.1546 53.66 21H53.76C54.4799 20.9498 55.2023 21.052 55.88 21.3C56.5381 21.5845 57.0759 22.0905 57.4 22.73C57.6101 23.1405 57.7067 23.5997 57.68 24.06ZM60 19.79L61.5 19.23L63.23 18.59C63.3372 18.5506 63.4476 18.5205 63.56 18.5C63.6489 18.4923 63.7378 18.5161 63.8109 18.5673C63.8841 18.6185 63.9368 18.6938 63.96 18.78C63.9718 18.8325 63.9732 18.8869 63.964 18.9399C63.9548 18.993 63.9353 19.0437 63.9065 19.0892C63.8777 19.1347 63.8402 19.1741 63.7962 19.2051C63.7522 19.2361 63.7025 19.2582 63.65 19.27L62.12 19.84C61.56 20.05 61 20.27 60.42 20.47C60.2958 20.5056 60.1642 20.5056 60.04 20.47C59.9653 20.4633 59.8954 20.4306 59.8424 20.3776C59.7894 20.3246 59.7567 20.2546 59.75 20.18C59.741 20.0962 59.7609 20.012 59.8064 19.941C59.8519 19.8701 59.9202 19.8169 60 19.79ZM61.17 26.47C61.3472 26.5585 61.5356 26.6224 61.73 26.66C61.83 26.66 61.94 26.66 62.05 26.66C62.6966 26.6746 63.3297 26.4741 63.85 26.09C64.14 25.92 64.41 25.72 64.71 25.53C64.71 25.79 64.79 26.03 64.82 26.27C64.85 26.51 64.82 26.58 64.89 26.74C64.9072 26.7859 64.9148 26.8348 64.9125 26.8837C64.9101 26.9326 64.8978 26.9805 64.8762 27.0245C64.8547 27.0685 64.8244 27.1077 64.7872 27.1396C64.7501 27.1715 64.7068 27.1954 64.66 27.21C64.08 27.47 63.49 27.74 62.91 27.98C62.7707 28.0234 62.6259 28.047 62.48 28.05C62.17 28.05 61.86 28.05 61.54 28.05C60.9021 28.0456 60.2915 27.7906 59.84 27.34C59.7308 27.2192 59.6139 27.1056 59.49 27C59 26.574 58.6513 26.009 58.49 25.38C58.3472 24.9169 58.3073 24.4282 58.3729 23.948C58.4385 23.4679 58.6082 23.0078 58.87 22.6C59.2616 21.9875 59.8062 21.4877 60.45 21.15C60.8294 20.9581 61.2453 20.849 61.67 20.83C62.3098 20.7652 62.9543 20.8941 63.52 21.2C63.6638 21.2861 63.8009 21.3831 63.93 21.49C64.4652 22.0099 64.9292 22.5984 65.31 23.24C64.4 23.86 63.54 24.46 62.67 25.07L61.16 26.15C60.97 26.28 60.96 26.36 61.17 26.47Z" fill="white"/>
    <path d="M60.66 22.86C60.4002 23.0975 60.2211 23.4102 60.1476 23.7544C60.0741 24.0986 60.1099 24.4571 60.25 24.78L63.25 22.84C62.8796 22.55 62.4219 22.3941 61.9515 22.3977C61.4811 22.4013 61.0258 22.5643 60.66 22.86Z" fill="white"/>
    </g>
    <defs>
    <clipPath id="clip0_485_2973">
    <rect width="118.51" height="40.74" fill="white"/>
    </clipPath>
    </defs>
    </svg>
    