<svg width="22" height="22" viewBox="0 0 22 22" fill="none" xmlns="http://www.w3.org/2000/svg">
<path fill-rule="evenodd" clip-rule="evenodd" d="M17.1639 1.50004C15.3158 1.50004 13.8177 2.99816 13.8177 4.84619C13.8177 6.69422 15.3158 8.19235 17.1639 8.19235C19.0119 8.19235 20.51 6.69422 20.51 4.84619C20.51 2.99816 19.0119 1.50004 17.1639 1.50004ZM12.8177 4.84619C12.8177 2.44588 14.7636 0.500038 17.1639 0.500038C19.5642 0.500038 21.51 2.44588 21.51 4.84619C21.51 7.24651 19.5642 9.19235 17.1639 9.19235C14.7636 9.19235 12.8177 7.24651 12.8177 4.84619Z" fill="#E51A83"/>
<path fill-rule="evenodd" clip-rule="evenodd" d="M4.85616 13.8077C3.00813 13.8077 1.51001 15.3058 1.51001 17.1538C1.51001 19.0018 3.00813 20.5 4.85616 20.5C6.70419 20.5 8.20232 19.0018 8.20232 17.1538C8.20232 15.3058 6.70419 13.8077 4.85616 13.8077ZM0.51001 17.1538C0.51001 14.7535 2.45585 12.8077 4.85616 12.8077C7.25648 12.8077 9.20232 14.7535 9.20232 17.1538C9.20232 19.5541 7.25648 21.5 4.85616 21.5C2.45585 21.5 0.51001 19.5541 0.51001 17.1538Z" fill="#E51A83"/>
<path fill-rule="evenodd" clip-rule="evenodd" d="M12.8177 13.3077C12.8177 13.0315 13.0416 12.8077 13.3177 12.8077H21.01C21.2862 12.8077 21.51 13.0315 21.51 13.3077V20C21.51 20.8284 20.8385 21.5 20.01 21.5H14.3177C13.4893 21.5 12.8177 20.8284 12.8177 20V13.3077ZM13.8177 13.8077V20C13.8177 20.2761 14.0416 20.5 14.3177 20.5H20.01C20.2862 20.5 20.51 20.2761 20.51 20V13.8077H13.8177Z" fill="#E51A83"/>
<path fill-rule="evenodd" clip-rule="evenodd" d="M0.51001 1.00004C0.51001 0.723896 0.733867 0.500038 1.01001 0.500038H8.70232C8.97846 0.500038 9.20232 0.723896 9.20232 1.00004V7.69235C9.20232 8.52077 8.53074 9.19235 7.70232 9.19235H2.01001C1.18158 9.19235 0.51001 8.52077 0.51001 7.69235V1.00004ZM1.51001 1.50004V7.69235C1.51001 7.96849 1.73387 8.19235 2.01001 8.19235H7.70232C7.97846 8.19235 8.20232 7.96849 8.20232 7.69235V1.50004H1.51001Z" fill="#E51A83"/>
</svg>
