<svg width="10" height="10" viewBox="0 0 10 10" fill="none" xmlns="http://www.w3.org/2000/svg">
<path fill-rule="evenodd" clip-rule="evenodd" d="M5 0.5C5.27614 0.5 5.5 0.701472 5.5 0.95L5.5 9.05C5.5 9.29853 5.27614 9.5 5 9.5C4.72386 9.5 4.5 9.29853 4.5 9.05L4.5 0.95C4.5 0.701472 4.72386 0.5 5 0.5Z" fill="black"/>
<path fill-rule="evenodd" clip-rule="evenodd" d="M9.5 5C9.5 5.27614 9.29853 5.5 9.05 5.5L0.95 5.5C0.701472 5.5 0.5 5.27614 0.5 5C0.5 4.72386 0.701472 4.5 0.95 4.5L9.05 4.5C9.29853 4.5 9.5 4.72386 9.5 5Z" fill="black"/>
</svg>
