<svg width="18" height="18" viewBox="0 0 18 18" fill="none" xmlns="http://www.w3.org/2000/svg">
<path d="M14.6 12.7H13.3V11.4C13.3 11.2 13.1 11 12.9 11C12.7 11 12.5 11.2 12.5 11.4V13C12.5 13.2 12.7 13.4 12.9 13.4H14.6C14.8 13.4 15 13.2 15 13C15 12.8 14.8 12.7 14.6 12.7Z" fill="#E51A83"/>
<path d="M12.8998 8.79999C10.5998 8.79999 8.7998 10.6 8.7998 12.9C8.7998 15.2 10.5998 17 12.8998 17C15.1998 17 16.9998 15.2 16.9998 12.9C16.9998 10.7 15.1998 8.79999 12.8998 8.79999ZM12.8998 16.2C11.0998 16.2 9.5998 14.7 9.5998 12.9C9.5998 11.1 11.0998 9.59999 12.8998 9.59999C14.6998 9.59999 16.1998 11.1 16.1998 12.9C16.1998 14.8 14.7998 16.2 12.8998 16.2Z" fill="#E51A83"/>
<path d="M8 15.2H2.5C2.1 15.2 1.8 14.9 1.8 14.5V7.8H16V3.6C16 2.9 15.4 2.2 14.6 2.2H12.6V1.2C12.6 1.1 12.5 1 12.4 1H11.8C11.7 1 11.6 1.1 11.6 1.2V2.3H5.3V1.2C5.3 1.1 5.2 1 5.1 1H4.5C4.4 1 4.3 1.1 4.3 1.2V2.3H2.4C1.6 2.3 1 2.9 1 3.6V14.6C1 15.4 1.6 16 2.4 16H8C8.2 16 8.4 15.8 8.4 15.6C8.4 15.4 8.2 15.2 8 15.2ZM1.8 3.8C1.8 3.4 2.1 3.1 2.5 3.1H4.3V3.8C4.3 3.9 4.4 4 4.5 4H5.1C5.2 4 5.3 3.9 5.3 3.8V3.1H11.6V3.8C11.6 3.9 11.7 4 11.8 4H12.4C12.5 4 12.6 3.9 12.6 3.8V3.1H14.5C14.9 3.1 15.2 3.4 15.2 3.8V7H1.8V3.8Z" fill="#E51A83"/>
<path d="M5.1001 13.4C5.3001 13.4 5.5001 13.2 5.5001 13V11.7H6.8001C7.0001 11.7 7.2001 11.5 7.2001 11.3C7.1001 11.2 7.0001 11 6.8001 11H5.5001V9.79999C5.5001 9.59999 5.3001 9.39999 5.1001 9.39999C4.9001 9.39999 4.7001 9.59999 4.7001 9.79999V11H3.5001C3.3001 11 3.1001 11.2 3.1001 11.4C3.1001 11.6 3.3001 11.8 3.5001 11.8H4.8001V13C4.7001 13.2 4.9001 13.4 5.1001 13.4Z" fill="#E51A83"/>
</svg>
