<svg width="19" height="20" viewBox="0 0 19 20" fill="none" xmlns="http://www.w3.org/2000/svg">
<path fill-rule="evenodd" clip-rule="evenodd" d="M8.5 1.5C4.35786 1.5 1 4.85786 1 9C1 13.1421 4.35786 16.5 8.5 16.5C10.5712 16.5 12.4455 15.6611 13.8033 14.3033C15.1611 12.9455 16 11.0712 16 9C16 4.85786 12.6421 1.5 8.5 1.5ZM0 9C0 4.30558 3.80558 0.5 8.5 0.5C13.1944 0.5 17 4.30558 17 9C17 11.1671 16.1884 13.1455 14.8536 14.6465L18.8536 18.6464C19.0488 18.8417 19.0488 19.1583 18.8536 19.3536C18.6583 19.5488 18.3417 19.5488 18.1464 19.3536L14.1465 15.3536C12.6455 16.6884 10.6671 17.5 8.5 17.5C3.80558 17.5 0 13.6944 0 9Z" fill="#E51A83"/>
</svg>
