<svg width="22" height="24" viewBox="0 0 22 24" fill="none" xmlns="http://www.w3.org/2000/svg">
<path fill-rule="evenodd" clip-rule="evenodd" d="M9.32434 10.037C9.32434 9.1116 10.0745 8.36143 10.9999 8.36143H11.0121C11.9375 8.36143 12.6877 9.1116 12.6877 10.037V10.0492C12.6877 10.9746 11.9375 11.7247 11.0121 11.7247H10.9999C10.0745 11.7247 9.32434 10.9746 9.32434 10.0492V10.037Z" fill="white"/>
<path fill-rule="evenodd" clip-rule="evenodd" d="M17.3073 3.72972C13.8239 0.246283 8.17608 0.246283 4.69264 3.72972C1.2092 7.21316 1.2092 12.8609 4.69264 16.3444L11 22.6517L17.3073 16.3444C20.7907 12.8609 20.7907 7.21316 17.3073 3.72972ZM3.90277 2.93985C7.82244 -0.979819 14.1775 -0.979819 18.0972 2.93985C22.0168 6.85953 22.0168 13.2146 18.0972 17.1342L11.3949 23.8365C11.1768 24.0546 10.8231 24.0546 10.605 23.8365L3.90277 17.1343C-0.0169041 13.2146 -0.016907 6.85953 3.90277 2.93985Z" fill="white"/>
</svg>
