<svg width="18" height="17" viewBox="0 0 18 17" fill="none" xmlns="http://www.w3.org/2000/svg">
<path fill-rule="evenodd" clip-rule="evenodd" d="M0.630791 5.16283C0.725522 5.0591 0.859522 5 1 5H17C17.1405 5 17.2745 5.0591 17.3692 5.16283C17.4639 5.26656 17.5107 5.40536 17.4979 5.54527L16.6633 14.7263C16.5462 16.014 15.4666 17 14.1736 17H3.82643C2.53342 17 1.45376 16.014 1.3367 14.7263L0.502055 5.54527C0.489337 5.40536 0.536059 5.26656 0.630791 5.16283ZM1.54752 6L2.33259 14.6358C2.40283 15.4084 3.05063 16 3.82643 16H14.1736C14.9494 16 15.5972 15.4084 15.6674 14.6358L16.4525 6H1.54752Z" fill="white"/>
<path fill-rule="evenodd" clip-rule="evenodd" d="M9 1C7.067 1 5.5 2.567 5.5 4.5V7.5C5.5 7.77614 5.27614 8 5 8C4.72386 8 4.5 7.77614 4.5 7.5V4.5C4.5 2.01472 6.51472 0 9 0C11.4853 0 13.5 2.01472 13.5 4.5V7.5C13.5 7.77614 13.2761 8 13 8C12.7239 8 12.5 7.77614 12.5 7.5V4.5C12.5 2.567 10.933 1 9 1Z" fill="white"/>
<path fill-rule="evenodd" clip-rule="evenodd" d="M9 8.5C9.27614 8.5 9.5 8.72386 9.5 9V12C9.5 12.2761 9.27614 12.5 9 12.5C8.72386 12.5 8.5 12.2761 8.5 12V9C8.5 8.72386 8.72386 8.5 9 8.5Z" fill="white"/>
<path fill-rule="evenodd" clip-rule="evenodd" d="M7 10.5C7 10.2239 7.22386 10 7.5 10H10.5C10.7761 10 11 10.2239 11 10.5C11 10.7761 10.7761 11 10.5 11H7.5C7.22386 11 7 10.7761 7 10.5Z" fill="white"/>
</svg>
