<svg width="77" height="20" viewBox="0 0 77 20" fill="none" xmlns="http://www.w3.org/2000/svg">
<path fill-rule="evenodd" clip-rule="evenodd" d="M66.3725 9.44223H64.4919L65.4039 6.84363L66.3725 9.44223ZM14.3732 6.5149L12.4721 8.41602L12.3773 8.50941L11.3229 9.56518L10.3619 10.5264L10.2683 10.6211H10.2673L9.37625 11.5109V11.5121L9.28274 11.6055C9.01568 11.8727 8.72043 12.0917 8.40668 12.2651C8.24786 12.3526 8.08551 12.4274 7.91938 12.4914C7.549 12.6342 7.16024 12.7179 6.76897 12.7426C6.52909 12.7587 6.28544 12.7524 6.0467 12.7229C5.52995 12.6611 5.02289 12.4964 4.56026 12.2283C4.36217 12.1139 4.15917 11.9945 3.9904 11.8271C3.98927 11.8271 3.98927 11.8271 3.98801 11.8259L0.342067 8.18018C0.281783 8.11347 0.227667 8.04136 0.182234 7.96371C0.0664501 7.76788 0 7.54097 0 7.29783C0 7.25957 0.00138438 7.22144 0.00490824 7.18443C0.00981648 7.12805 0.0185003 7.07343 0.0295753 7.0207L0.0515995 6.93336C0.100808 6.77088 0.18085 6.61734 0.291726 6.47916C0.321175 6.44405 0.351883 6.40943 0.385108 6.37483L0.44665 6.31417L4.13437 2.62518H4.13576L6.37027 0.391053C6.86864 -0.107448 7.66239 -0.12985 8.18518 0.326743L14.3732 6.5149ZM56.9563 4.95093L58.7363 4.94426H60.8977C62.0863 4.94426 63.0591 5.91698 63.0591 7.10565V7.37183C63.0591 8.56101 62.0857 9.46702 60.8977 9.50289L59.9116 9.53322C60.7042 9.16875 61.036 8.24814 60.9371 7.41915C60.8576 6.75326 60.5149 6.11343 59.9437 6.10135L59.5835 6.09342V12.0178C59.5835 12.1331 59.6035 12.1811 59.6642 12.2823C59.7606 12.4435 59.8898 12.6048 60.0226 12.7657C60.0577 12.8075 60.0923 12.8493 60.1269 12.8911H57.0614C57.1075 12.8348 57.1524 12.7777 57.1955 12.7192C57.2882 12.5921 57.3708 12.458 57.4326 12.3084C57.4726 12.212 57.492 12.1407 57.492 12.0383V5.67433C57.4796 5.34271 57.1498 5.15406 56.9563 4.95093ZM71.6769 9.1948L68.8933 5.2039L68.6101 4.94439H71.3542L73.2136 7.96144L73.3633 7.83949L74.4871 6.16881C74.7636 5.75828 74.7261 5.28155 74.3324 4.94439H76.9249L73.9279 9.1943L73.9266 12.2778L74.4548 12.9058H71.234L71.6876 12.2872C71.6879 11.2593 71.6509 10.2197 71.6769 9.1948ZM64.119 4.94426C64.341 5.24933 64.4071 5.35668 64.4318 5.62777C64.4488 5.81692 64.4361 5.9249 64.3755 6.10135L62.3051 12.105C62.208 12.3518 62.0079 12.6245 61.7162 12.8893H63.9758C63.8077 12.7407 63.701 12.5635 63.6616 12.3526C63.6265 12.1599 63.6277 12.0876 63.6696 11.9023L64.1287 10.4762H66.7582L67.1681 11.5749C67.2112 11.6901 67.2355 11.797 67.2464 11.9205C67.2822 12.3308 67.1506 12.6687 66.8249 12.9072H70.3672C70.0197 12.5977 69.7007 12.2736 69.5206 11.8804L66.9347 4.94414H64.119V4.94426Z" fill="#005AAA"/>
<path fill-rule="evenodd" clip-rule="evenodd" d="M34.9747 6.25608L37.8807 4.58955L38.4537 5.64167L35.6529 6.67077L34.9747 6.25608ZM35.7172 11.7289V8.3665C35.7172 8.10939 35.686 7.91469 35.6237 7.78192C35.5651 7.65329 35.4638 7.52115 35.3196 7.38473V7.33804H36.7697C36.9958 7.33804 37.1868 7.32771 37.3428 7.30833C37.487 7.29323 37.6235 7.24591 37.7521 7.16826H37.7989V11.7757C37.7989 12.041 37.8261 12.2435 37.8807 12.384C37.9351 12.5438 38.0482 12.6861 38.2198 12.8107V12.8575H35.2961V12.8107C35.4794 12.6548 35.5964 12.4989 35.6468 12.3427C35.6938 12.1909 35.7172 11.9863 35.7172 11.7289ZM40.336 4.90909H42.8108L44.8879 10.8644L46.6496 5.93151C46.6817 5.73984 46.6539 5.67741 46.5805 5.51242C46.4828 5.31232 46.3785 5.11762 46.2815 4.91752H48.1299C48.0201 5.32025 47.8582 5.76224 47.7187 6.16799L45.3318 13.104C44.6805 12.9741 43.954 12.7162 43.3924 12.1839C42.9697 11.7833 42.8193 11.3278 42.6107 10.7846L40.615 5.49908C40.5361 5.29055 40.439 5.10378 40.336 4.90909ZM29.7415 11.007L27.9929 6.18082C27.9501 6.06743 27.9072 5.95404 27.8644 5.84128C27.798 5.67754 27.7415 5.54892 27.6949 5.45503C27.6246 5.31496 27.5116 5.16092 27.3556 4.99291V4.96924H30.0746V5.01656L30.0512 5.09233C30.0824 5.30703 30.1429 5.57082 30.2324 5.88318L31.941 10.8493L33.3644 6.49508L33.4351 6.28641L33.5083 6.03408C33.5195 5.98311 33.5268 5.94611 33.5306 5.92245C33.5344 5.89879 33.536 5.86368 33.536 5.81636C33.536 5.4792 33.3568 5.20509 32.9981 4.99278V4.96912H35.1383V4.99882L32.3844 13.1072L31.4547 12.7856C31.2946 12.727 31.1506 12.6685 31.0219 12.6102C30.8933 12.5516 30.7782 12.4892 30.6769 12.4227C30.4938 12.3018 30.3269 12.1333 30.177 11.9168C30.0271 11.7003 29.8818 11.3972 29.7415 11.007ZM50.2166 7.69999V11.9553C50.2166 12.1281 50.2566 12.1591 50.3627 12.2975L50.8503 12.9329H48.521C48.6527 12.7327 48.7836 12.5325 48.9146 12.3324C49.0159 12.1671 49.0595 12.111 49.0595 11.9194V5.97418L48.4046 4.90921H50.8188L54.7273 9.94318V5.93164C54.7273 5.73996 54.689 5.67754 54.5879 5.51255C54.4568 5.31244 54.3198 5.11775 54.1888 4.91764H56.5157L56.0305 5.5532C55.9244 5.69151 55.8844 5.72234 55.8844 5.89526V13.1364C55.0033 13.0203 54.1821 12.8047 53.4519 11.8719L50.2166 7.69999ZM3.95407 11.7922C3.96565 11.8037 3.97723 11.815 3.98868 11.8261C4.1572 11.9932 4.36158 12.1139 4.5608 12.2284C5.02344 12.4966 5.5305 12.6615 6.04725 12.7231C6.28586 12.7526 6.52951 12.7587 6.76951 12.7426C7.16079 12.7181 7.54967 12.6343 7.91993 12.4917C8.08605 12.4278 8.24853 12.3526 8.4071 12.2654C8.72098 12.0917 9.0161 11.8727 9.28329 11.6058L9.3768 11.5123V11.5112L10.2677 10.6215H10.2688L10.7193 10.1697L11.7739 9.11545L12.378 8.5096L12.4728 8.41621L16.3032 4.58602L17.8832 2.87405L17.978 2.78067C18.4603 2.29853 19.243 2.29853 19.7251 2.78067L20.5902 3.6454H20.5915L20.6197 3.67385C20.2371 3.6556 19.8507 3.79328 19.5615 4.07657L16.6342 6.95595L16.6046 6.99169L11.5105 12.0044L11.5031 11.9982L9.62686 13.8416L9.50139 13.9744C9.35364 14.1183 9.0448 14.3906 8.63125 14.586C8.44423 14.6746 8.25356 14.7385 8.06541 14.778C7.9534 14.8001 7.83888 14.8149 7.727 14.8198H7.64192C7.34428 14.8198 7.05142 14.7534 6.7709 14.6254L5.88855 13.7458L5.52924 13.3851L3.87793 11.7153L3.95407 11.7922ZM25.2762 10.0797L21.0334 14.3864L16.6764 18.8101C16.5373 18.9492 16.3921 19.0745 16.2384 19.1878C16.2334 19.1928 16.2272 19.1976 16.221 19.2025C16.2001 19.2174 16.1792 19.2333 16.1571 19.2481C16.1546 19.2506 16.1522 19.2516 16.1498 19.2542C15.4926 19.7244 14.6866 20 13.8179 20C12.7449 20 11.7703 19.5792 11.0494 18.8938L10.9497 18.8052L10.2001 18.0559L8.09486 15.9494L7.29381 15.1483C7.40821 15.1667 7.52387 15.1752 7.63953 15.1752L7.73681 15.1741C7.87097 15.1691 8.00513 15.1532 8.13665 15.1262C8.35198 15.0817 8.5697 15.0079 8.78378 14.9072C9.24402 14.6892 9.58735 14.3879 9.75095 14.2278C9.81501 14.1649 9.86296 14.1122 9.88272 14.0888L11.5021 12.4979L11.5082 12.5052L17.0761 7.0273L17.1056 6.99156L19.8103 4.32991C20.1745 3.97388 20.7431 3.92719 21.1564 4.21161L21.7975 4.85258C21.7989 4.85258 21.7989 4.85384 21.7989 4.85384L25.2762 8.33114C25.3069 8.3621 25.3365 8.39419 25.3636 8.42691C25.7574 8.91345 25.7278 9.62968 25.2762 10.0797Z" fill="#ED1C24"/>
<path d="M13.7995 7.08861L13.4425 7.44515L12.8163 6.81501C12.7178 6.71558 12.719 6.5555 12.8174 6.45847C12.9172 6.36017 13.0759 6.36018 13.1743 6.45973L13.7995 7.08861ZM12.7437 8.14438L12.3868 8.49979L10.4181 6.51611C9.6871 5.7805 8.62025 5.52213 7.63218 5.84179C7.50054 5.88483 7.35795 5.81272 7.31466 5.68108C7.27162 5.54767 7.34423 5.40521 7.47701 5.36204C8.64593 4.98297 9.91099 5.2893 10.7761 6.1607L12.7437 8.14438ZM10.6334 10.2545L10.2765 10.6115L8.29908 8.61922C8.20053 8.52093 8.20204 8.36085 8.30021 8.26205C8.40001 8.16376 8.55984 8.16502 8.65713 8.26382L10.6334 10.2545ZM11.6879 9.20016L11.331 9.55669L9.3585 7.56823C8.87749 7.08244 8.08978 7.07942 7.605 7.56093C7.12022 8.04307 7.11657 8.82965 7.59883 9.31418L8.86982 10.5966C8.96836 10.695 8.96836 10.8549 8.86868 10.9535C8.77014 11.0518 8.61018 11.0506 8.51177 10.9521L7.23978 9.67009C6.56294 8.98721 6.56659 7.88047 7.24959 7.2025C7.93247 6.52517 9.03997 6.52995 9.71668 7.21282L11.6879 9.20016ZM8.41725 12.259C8.41373 12.2615 8.40995 12.2625 8.40618 12.2652C8.25113 12.35 8.09356 12.424 7.93121 12.4868L6.18136 10.7223C5.08632 9.61874 4.93001 7.88978 5.80859 6.60961C5.88724 6.49559 6.04468 6.46589 6.15921 6.54467C6.27487 6.62346 6.30318 6.78115 6.2244 6.89643C5.4825 7.97586 5.6154 9.435 6.53954 10.3666L8.41725 12.259ZM11.8357 5.46939C11.7372 5.56642 11.576 5.56403 11.4776 5.46574C9.83598 3.81204 7.15609 3.80172 5.50239 5.44208C3.84982 7.0837 3.83874 9.7636 5.48024 11.4172L6.76481 12.7129C6.77349 12.7215 6.78205 12.7313 6.78696 12.7414C6.78079 12.7414 6.77475 12.7424 6.76859 12.7424C6.53475 12.7585 6.2984 12.7522 6.06583 12.7252L5.12206 11.7728C3.28499 9.9223 3.29607 6.9211 5.14673 5.08365C6.99864 3.24671 9.99859 3.25892 11.8357 5.1097L11.8392 5.11335C11.9378 5.21164 11.9352 5.37047 11.8357 5.46939ZM54.2306 15.3113C54.2306 15.4567 54.1166 15.5698 53.9699 15.5698C53.8177 15.5698 53.6982 15.4567 53.6982 15.3113C53.6982 15.1656 53.8176 15.0471 53.9699 15.0471C54.1166 15.047 54.2306 15.1656 54.2306 15.3113ZM45.0559 15.8392C44.9528 15.8392 44.9419 15.8016 44.9255 15.7369C44.9091 15.5862 45.0074 15.5212 45.1705 15.3489C45.2136 15.3058 45.2409 15.268 45.2409 15.225C45.2409 15.1331 45.1972 15.0902 45.1426 15.0849C45.0886 15.0795 44.9801 15.0956 44.9036 15.1332C44.8442 15.155 44.795 15.155 44.7569 15.0739L44.7356 15.0309C44.7029 14.9503 44.7569 14.9229 44.8113 14.8962C44.9417 14.8425 45.0284 14.8313 45.1315 14.8313C45.3437 14.8313 45.5178 14.9502 45.5123 15.2251C45.5123 15.4619 45.197 15.5595 45.1806 15.7371C45.1806 15.7801 45.1376 15.8289 45.0829 15.8394H45.0559V15.8392ZM61.7384 15.2626C61.6571 15.1386 61.679 15.1062 61.8257 15.1062H61.8797C62.0264 15.1062 62.0811 15.1386 62.1514 15.2679L62.3801 15.7045C62.4341 15.8123 62.4177 15.8391 62.2982 15.8391H62.2435C62.1405 15.8391 62.0646 15.7961 62.0101 15.7099L61.7384 15.2626ZM39.678 15.7101C39.624 15.7963 39.5476 15.8394 39.4445 15.8394H39.3905C39.2759 15.8394 39.2492 15.8126 39.3087 15.7047L39.5368 15.2679C39.6077 15.1389 39.6622 15.1063 39.8091 15.1063H39.8631C40.0098 15.1063 40.0317 15.1388 39.9498 15.2627L39.678 15.7101ZM52.7267 17.02C52.7267 16.6371 52.4872 16.4486 52.0148 16.4486C51.5315 16.4486 51.2925 16.637 51.2925 17.02V17.0844C51.2925 17.4724 51.4659 17.6665 52.0148 17.6665C52.5636 17.6665 52.7267 17.4724 52.7267 17.0844V17.02ZM59.392 17.7206C59.392 18.2381 59.5714 18.4698 60.1749 18.4698C60.7668 18.4698 60.9572 18.2381 60.9572 17.7206V17.2192C60.9572 16.702 60.7668 16.47 60.1749 16.47C59.5824 16.47 59.392 16.702 59.392 17.2192V17.7206ZM48.4131 17.5754H47.7776C47.2937 17.5754 47.071 17.7045 47.071 18.0439C47.071 18.3514 47.2718 18.5023 47.6793 18.5023C48.179 18.5023 48.4131 18.3889 48.4131 17.9845V17.5754ZM56.5066 17.5754H55.871C55.3877 17.5754 55.1645 17.7045 55.1645 18.0439C55.1645 18.3514 55.3658 18.5023 55.7733 18.5023C56.2731 18.5023 56.5066 18.3889 56.5066 17.9845V17.5754ZM53.7637 16.3137C53.7637 16.179 53.791 16.141 53.9378 16.141H53.9972C54.133 16.141 54.1712 16.1792 54.1712 16.3137V18.6264C54.1712 18.7717 54.133 18.7984 53.9972 18.7984H53.9378C53.791 18.7984 53.7637 18.7717 53.7637 18.6264V16.3137ZM62.0536 16.3137C62.0536 16.179 62.0919 16.141 62.2277 16.141H62.2871C62.4338 16.141 62.4611 16.1792 62.4611 16.3137V18.6264C62.4611 18.7717 62.4338 18.7984 62.2871 18.7984H62.2277C62.0919 18.7984 62.0536 18.7717 62.0536 18.6264V16.3137ZM39.2492 16.3138C39.2492 16.1792 39.2868 16.1412 39.4226 16.1412H39.4826C39.6294 16.1412 39.6561 16.1793 39.6561 16.3138V18.6264C39.6561 18.7719 39.6294 18.7987 39.4826 18.7987H39.4226C39.2868 18.7987 39.2492 18.772 39.2492 18.6264V16.3138ZM66.1107 15.1979C66.1107 15.0525 66.1495 15.0255 66.2848 15.0255H66.3448C66.4916 15.0255 66.5189 15.0525 66.5189 15.1979V16.4538C66.6813 16.2111 66.964 16.0874 67.3715 16.0874C68.0398 16.0874 68.3763 16.3999 68.3763 17.0306V18.6264C68.3763 18.7719 68.3496 18.7985 68.2023 18.7985H68.1373C67.9906 18.7985 67.9633 18.7719 67.9633 18.6264V17.0791C67.9633 16.6534 67.7735 16.4698 67.2683 16.4698C66.7468 16.4698 66.5187 16.675 66.5187 17.171V18.6264C66.5187 18.7719 66.4914 18.7985 66.3447 18.7985H66.2846C66.1494 18.7985 66.1106 18.7719 66.1106 18.6264V15.1979H66.1107ZM63.5582 18.6264C63.5582 18.7717 63.5309 18.7985 63.3841 18.7985H63.3241C63.1883 18.7985 63.1507 18.7717 63.1507 18.6264V17.0954C63.1507 16.4213 63.5309 16.0873 64.2865 16.0873C65.0845 16.0873 65.4163 16.4428 65.4163 17.0954V18.6264C65.4163 18.7717 65.389 18.7985 65.2422 18.7985H65.1768C65.0307 18.7985 65.0033 18.7717 65.0033 18.6264V17.0954C65.0033 16.664 64.8347 16.4698 64.2865 16.4698C63.737 16.4698 63.5582 16.6694 63.5582 17.0954V18.6264ZM38.1252 18.055C38.0438 18.3621 37.9567 18.5723 37.8535 18.6856C37.7502 18.7931 37.5872 18.8471 37.3536 18.8471C37.1201 18.8471 36.9516 18.7931 36.8484 18.6856C36.7453 18.5723 36.6583 18.3621 36.5768 18.055L35.914 15.478C35.8758 15.3326 35.9031 15.2951 36.055 15.2951H36.115C36.267 15.2951 36.3159 15.3324 36.3541 15.478L37.0167 18.1031C37.0874 18.3997 37.1637 18.4697 37.3536 18.4697C37.5332 18.4697 37.6146 18.3997 37.6851 18.1031L38.3479 15.478C38.3858 15.3326 38.4347 15.2951 38.5871 15.2951H38.6465C38.7986 15.2951 38.8259 15.3324 38.7878 15.478L38.1252 18.055ZM61.8426 15.6883C61.8426 15.8019 61.8043 15.8394 61.6903 15.8394H61.3641V17.7263C61.3641 18.4755 60.9675 18.8524 60.1749 18.8524C59.3543 18.8524 58.9851 18.4755 58.9851 17.7263V17.2248C58.9851 16.4647 59.3599 16.0876 60.1095 16.0876C60.5279 16.0876 60.8105 16.2165 60.9572 16.481V15.8392H60.2179C60.093 15.8392 60.0657 15.8017 60.0657 15.6882V15.6452C60.0657 15.532 60.093 15.4942 60.2179 15.4942H60.9572V15.1978C60.9572 15.0524 60.9839 15.0254 61.1306 15.0254H61.1907C61.3264 15.0254 61.3641 15.0524 61.3641 15.1978V15.4942H61.6903C61.8043 15.4942 61.8426 15.532 61.8426 15.6452V15.6883ZM41.6173 17.203C41.6173 16.4968 42.0031 16.0874 42.8291 16.0874C43.0085 16.0874 43.1662 16.1087 43.3075 16.1575C43.4373 16.2006 43.47 16.2384 43.47 16.3623V16.4164C43.47 16.5511 43.4373 16.5886 43.3075 16.5457C43.1717 16.4971 43.0134 16.47 42.84 16.47C42.2318 16.47 42.025 16.7072 42.025 17.2086V17.7316C42.025 18.2763 42.2694 18.4701 42.8727 18.4701C43.0571 18.4701 43.2202 18.4484 43.3615 18.4002C43.4865 18.3568 43.5246 18.4002 43.5246 18.535V18.5886C43.5246 18.7019 43.4864 18.7452 43.3506 18.7828C43.1984 18.8314 43.0304 18.8527 42.8454 18.8527C42.014 18.8527 41.6173 18.4969 41.6173 17.7372V17.203ZM48.82 18.0009C48.82 18.5991 48.4671 18.8524 47.6848 18.8524C47.0602 18.8524 46.6635 18.6046 46.6635 18.0438C46.6635 17.4834 47.0329 17.257 47.772 17.257H48.413V16.9334C48.413 16.5669 48.1632 16.4428 47.701 16.4428C47.462 16.4428 47.2614 16.4646 47.1037 16.502C46.9734 16.529 46.9297 16.4966 46.9297 16.3673V16.3243C46.9297 16.2002 46.9624 16.1678 47.0928 16.1408C47.2718 16.1034 47.4676 16.0872 47.6793 16.0872C48.4398 16.0872 48.82 16.3672 48.82 16.9333V18.0009ZM56.9141 18.0009C56.9141 18.5991 56.5612 18.8524 55.7788 18.8524C55.1541 18.8524 54.7575 18.6046 54.7575 18.0438C54.7575 17.4834 55.1268 17.257 55.8655 17.257H56.5064V16.9334C56.5064 16.5669 56.2566 16.4428 55.7951 16.4428C55.5561 16.4428 55.3549 16.4646 55.1972 16.502C55.0668 16.529 55.0231 16.4966 55.0231 16.3673V16.3243C55.0231 16.2002 55.0559 16.1678 55.1862 16.1408C55.3657 16.1034 55.5617 16.0872 55.7732 16.0872C56.5337 16.0872 56.9139 16.3672 56.9139 16.9333V18.0009H56.9141ZM44.3173 17.8448C44.3173 18.2705 44.4961 18.4699 45.0449 18.4699C45.5938 18.4699 45.7678 18.276 45.7678 17.8448V16.3137C45.7678 16.179 45.8055 16.141 45.9412 16.141H46.0013C46.148 16.141 46.1753 16.1792 46.1753 16.3137V17.8448C46.1753 18.4967 45.8436 18.8525 45.0449 18.8525C44.2899 18.8525 43.9096 18.5185 43.9096 17.8448V16.3137C43.9096 16.179 43.9479 16.141 44.0837 16.141H44.1431C44.2898 16.141 44.3171 16.1792 44.3171 16.3137V17.8448H44.3173ZM51.4823 18.7395C51.3143 18.8204 51.2269 18.9711 51.2269 19.1813C51.2269 19.5316 51.4283 19.6235 52.0146 19.6235C52.5798 19.6235 52.7969 19.5316 52.7969 19.1655C52.7969 18.8256 52.5962 18.7664 52.0146 18.7664C51.7812 18.7663 51.6017 18.7556 51.4823 18.7395ZM53.1396 17.0844C53.1396 17.7099 52.7642 18.0225 52.0146 18.0225C51.7211 18.0225 51.5314 18.0386 51.4391 18.0656C51.3518 18.0926 51.3087 18.1461 51.3087 18.2273C51.3087 18.3028 51.3518 18.3514 51.444 18.3781C51.5368 18.3998 51.7266 18.4105 52.0146 18.4105C52.4658 18.4105 52.7752 18.4643 52.9437 18.5778C53.1177 18.6858 53.2044 18.8742 53.2044 19.1492C53.2044 19.4564 53.1177 19.6665 52.9383 19.7908C52.7642 19.9147 52.455 19.974 52.0146 19.974C51.5641 19.974 51.2487 19.9147 51.0746 19.7908C50.906 19.6722 50.8193 19.4832 50.8193 19.2248C50.8193 18.9658 50.9224 18.772 51.1237 18.6478C50.977 18.5779 50.9006 18.4594 50.9006 18.2922C50.9006 18.0551 51.0473 17.9149 51.3408 17.8718C51.0364 17.7477 50.8847 17.4838 50.8847 17.0847V17.0202C50.8847 16.4326 51.3032 16.0878 52.0145 16.0878C52.2267 16.0878 52.4111 16.1252 52.5743 16.1954L52.8841 15.9205C52.9763 15.8396 53.0194 15.8396 53.1067 15.9205L53.1443 15.958C53.2316 16.039 53.2316 16.082 53.1443 16.1682L52.8999 16.4165C53.0576 16.5619 53.1394 16.7615 53.1394 17.0202V17.0844H53.1396Z" fill="#009EDB"/>
</svg>
