<svg width="95" height="80" viewBox="0 0 95 80" fill="none" xmlns="http://www.w3.org/2000/svg">
<path d="M8.72701 79.9958C8.36453 79.891 8.00414 79.7863 7.63747 79.6836C6.08659 79.2946 4.65032 78.5427 3.44697 77.4899C2.24362 76.437 1.30763 75.1133 0.716103 73.6279C0.124573 72.1424 -0.105569 70.5376 0.0446357 68.9458C0.194841 67.3539 0.721093 65.8206 1.58004 64.472C8.30167 53.6548 15.0394 42.8488 21.7931 32.0539C27.4294 23.0205 33.0685 13.9892 38.7103 4.96001C41.9831 -0.255119 48.6105 -1.57933 53.4086 2.04968C54.4588 2.85277 55.3571 3.83693 56.0612 4.95582C68.4764 24.7715 80.8525 44.6102 93.1894 64.472C94.0066 65.792 94.3125 67.4305 94.8656 68.9202V70.806C94.7923 71.1014 94.7148 71.3989 94.6561 71.6964C93.8054 75.623 91.4797 78.24 87.6789 79.5474C87.1592 79.7255 86.6312 79.8512 86.0906 80L8.72701 79.9958ZM47.3931 73.3077H77.6991C80.0332 73.3077 82.3673 73.3224 84.6994 73.3077C86.3337 73.293 87.528 72.3942 88.0057 70.9212C88.385 69.7541 88.0309 68.7505 87.4128 67.7636C81.2178 57.846 75.0276 47.9284 68.8424 38.0108C62.7591 28.2664 56.6696 18.5304 50.5737 8.80273C50.0611 7.99035 49.3318 7.33725 48.468 6.91699C46.8861 6.20879 45.3523 6.95261 44.2774 8.68121C38.4484 18.0024 32.625 27.3298 26.8071 36.6635C20.3411 47.0253 13.8737 57.3851 7.40489 67.7427C6.71555 68.8448 6.39078 69.9511 6.88527 71.1978C7.42794 72.5702 8.65367 73.3056 10.399 73.3077H47.3931Z" fill="#B22E1C"/>
<path d="M51.7429 31.2955C51.3427 35.7332 51.0011 39.6158 50.6408 43.4962C50.4312 45.8534 50.1966 48.2085 49.92 50.5573C49.8257 51.1762 49.6422 51.7782 49.3752 52.3445C48.9562 53.3063 48.162 53.7567 47.1144 53.7002C46.115 53.6457 45.3439 53.1638 45.0904 52.1853C44.726 50.9177 44.4729 49.6207 44.334 48.309C43.8982 42.7901 43.5154 37.2677 43.1858 31.7417C43.0965 30.4944 43.1903 29.2407 43.4645 28.0205C44.0532 25.5817 46.6828 24.2616 49.0525 25.0725C49.9996 25.3973 50.7036 26.0196 50.9194 27.0211C51.2631 28.6114 51.5459 30.2164 51.7429 31.2955Z" fill="#B22E1C"/>
<path d="M47.4728 66.8878C46.6604 66.8885 45.866 66.6492 45.1893 66.1998C44.5125 65.7504 43.9837 65.1111 43.6692 64.3621C43.3547 63.6131 43.2685 62.7878 43.4216 61.99C43.5746 61.1922 43.96 60.4574 44.5293 59.878C45.0986 59.2985 45.8265 58.9002 46.6215 58.7331C47.4164 58.5661 48.2431 58.6376 48.9975 58.9389C49.7519 59.2401 50.4005 59.7576 50.8618 60.4263C51.323 61.095 51.5764 61.885 51.59 62.6973C51.5992 63.2439 51.4995 63.787 51.2967 64.2947C51.094 64.8025 50.7922 65.2648 50.4091 65.6548C50.0259 66.0448 49.5689 66.3547 49.0648 66.5664C48.5607 66.7781 48.0195 66.8873 47.4728 66.8878Z" fill="#B22E1C"/>
</svg>
