<svg xmlns="http://www.w3.org/2000/svg" xmlns:xlink="http://www.w3.org/1999/xlink" class="hidden">
    <symbol id="icon-header-category" viewBox="0 0 22 22" >
        <path fill-rule="evenodd" clip-rule="evenodd" d="M17.164 1.5C15.316 1.5 13.8179 2.99812 13.8179 4.84615C13.8179 6.69418 15.316 8.1923 17.164 8.1923C19.012 8.1923 20.5102 6.69418 20.5102 4.84615C20.5102 2.99812 19.012 1.5 17.164 1.5ZM12.8179 4.84615C12.8179 2.44584 14.7637 0.5 17.164 0.5C19.5643 0.5 21.5102 2.44584 21.5102 4.84615C21.5102 7.24646 19.5643 9.1923 17.164 9.1923C14.7637 9.1923 12.8179 7.24646 12.8179 4.84615Z" />
        <path fill-rule="evenodd" clip-rule="evenodd" d="M4.85616 13.8077C3.00813 13.8077 1.51001 15.3058 1.51001 17.1538C1.51001 19.0019 3.00813 20.5 4.85616 20.5C6.70419 20.5 8.20231 19.0019 8.20231 17.1538C8.20231 15.3058 6.70419 13.8077 4.85616 13.8077ZM0.51001 17.1538C0.51001 14.7535 2.45585 12.8077 4.85616 12.8077C7.25647 12.8077 9.20231 14.7535 9.20231 17.1538C9.20231 19.5541 7.25647 21.5 4.85616 21.5C2.45585 21.5 0.51001 19.5541 0.51001 17.1538Z" />
        <path fill-rule="evenodd" clip-rule="evenodd" d="M12.8176 13.3076C12.8176 13.0315 13.0415 12.8076 13.3176 12.8076H21.0099C21.2861 12.8076 21.5099 13.0315 21.5099 13.3076V19.9999C21.5099 20.8284 20.8384 21.4999 20.0099 21.4999H14.3176C13.4892 21.4999 12.8176 20.8284 12.8176 19.9999V13.3076ZM13.8176 13.8076V19.9999C13.8176 20.2761 14.0415 20.4999 14.3176 20.4999H20.0099C20.2861 20.4999 20.5099 20.2761 20.5099 19.9999V13.8076H13.8176Z" />
        <path fill-rule="evenodd" clip-rule="evenodd" d="M0.51001 1C0.51001 0.723858 0.733867 0.5 1.01001 0.5H8.70232C8.97846 0.5 9.20232 0.723858 9.20232 1V7.69231C9.20232 8.52073 8.53074 9.19231 7.70232 9.19231H2.01001C1.18157 9.19231 0.51001 8.52073 0.51001 7.69231V1ZM1.51001 1.5V7.69231C1.51001 7.96845 1.73387 8.19231 2.01001 8.19231H7.70232C7.97846 8.19231 8.20232 7.96845 8.20232 7.69231V1.5H1.51001Z" />
    </symbol>

    <symbol id="icon-header-location" viewBox="0 0 10 11" >
        <path d="M5.00545 4.5H5V4.50545H5.00545V4.5Z" fill="black"/>
        <path fill-rule="evenodd" clip-rule="evenodd" d="M4.25 4.5C4.25 4.08579 4.58579 3.75 5 3.75H5.00545C5.41967 3.75 5.75545 4.08579 5.75545 4.5V4.50545C5.75545 4.91967 5.41967 5.25545 5.00545 5.25545H5C4.58579 5.25545 4.25 4.91967 4.25 4.50545V4.5Z" />
        <path fill-rule="evenodd" clip-rule="evenodd" d="M1.82318 1.32325C3.57767 -0.431235 6.42226 -0.431235 8.17674 1.32325L7.99996 1.50002L8.17674 1.32324C8.17674 1.32324 8.17674 1.32325 8.17674 1.32325C9.93127 3.07773 9.93127 5.92232 8.17674 7.6768L7.99996 7.50002L8.17674 7.6768L5.17674 10.6768C5.07911 10.7744 4.92082 10.7744 4.82318 10.6768L1.82318 7.6768C0.0687039 5.92232 0.0687039 3.07773 1.82318 1.32325ZM7.82318 1.6768C6.26397 0.11758 3.73596 0.11758 2.17674 1.6768C0.617519 3.23602 0.617519 5.76403 2.17674 7.32325L4.99996 10.1465L7.82318 7.32325L7.82319 7.32324C9.38245 5.76403 9.38245 3.23602 7.82319 1.6768L7.82318 1.6768Z" />
    </symbol>

    <symbol id="icon-header-search" viewBox="0 0 20 20" >
        <path fill-rule="evenodd" clip-rule="evenodd" d="M0.5 9C0.5 4.30558 4.30558 0.5 9 0.5C13.6944 0.5 17.5 4.30558 17.5 9C17.5 11.1671 16.6885 13.1455 15.3536 14.6465L19.3536 18.6464C19.5488 18.8417 19.5488 19.1583 19.3536 19.3536C19.1583 19.5488 18.8417 19.5488 18.6464 19.3536L14.6465 15.3536C13.1455 16.6885 11.1671 17.5 9 17.5C4.30558 17.5 0.5 13.6944 0.5 9ZM14.6569 14.6569L14.3034 14.3033L14.6569 14.6569ZM14.3034 14.3033C15.6611 12.9455 16.5 11.0712 16.5 9C16.5 4.85786 13.1422 1.5 9 1.5C4.85786 1.5 1.5 4.85786 1.5 9C1.5 13.1422 4.85786 16.5 9 16.5C11.0709 16.5 12.945 15.6613 14.3028 14.3039" />
    </symbol>

    <symbol id="icon-header-cart" viewBox="0 0 29 28" >
        <path fill-rule="evenodd" clip-rule="evenodd" d="M0.964042 8.67846C1.05877 8.57472 1.19277 8.51562 1.33325 8.51562H27.9999C28.1404 8.51562 28.2744 8.57472 28.3691 8.67846C28.4639 8.78219 28.5106 8.92099 28.4979 9.06089L26.9966 25.5753C26.8794 26.863 25.7999 27.849 24.5068 27.849H4.82635C3.53333 27.849 2.45368 26.863 2.33662 25.5753L0.835307 9.06089C0.822589 8.92099 0.869311 8.78219 0.964042 8.67846ZM1.88077 9.51562L3.33251 25.4847C3.40275 26.2574 4.05056 26.849 4.82635 26.849H24.5068C25.2826 26.849 25.9304 26.2574 26.0007 25.4847L27.4524 9.51562H1.88077Z" />
        <path fill-rule="evenodd" clip-rule="evenodd" d="M14.6667 1.18237C11.261 1.18237 8.5 3.94329 8.5 7.34904V12.349C8.5 12.6251 8.27614 12.849 8 12.849C7.72386 12.849 7.5 12.6251 7.5 12.349V7.34904C7.5 3.39099 10.7087 0.182373 14.6667 0.182373C18.6247 0.182373 21.8333 3.391 21.8333 7.34904V12.349C21.8333 12.6251 21.6095 12.849 21.3333 12.849C21.0572 12.849 20.8333 12.6251 20.8333 12.349V7.34904C20.8333 3.94328 18.0724 1.18237 14.6667 1.18237Z" />
        <path fill-rule="evenodd" clip-rule="evenodd" d="M14.6667 14.3491C14.9429 14.3491 15.1667 14.573 15.1667 14.8491V19.8491C15.1667 20.1253 14.9429 20.3491 14.6667 20.3491C14.3906 20.3491 14.1667 20.1253 14.1667 19.8491V14.8491C14.1667 14.573 14.3906 14.3491 14.6667 14.3491Z" />
        <path fill-rule="evenodd" clip-rule="evenodd" d="M11.6667 17.3491C11.6667 17.073 11.8906 16.8491 12.1667 16.8491H17.1667C17.4429 16.8491 17.6667 17.073 17.6667 17.3491C17.6667 17.6253 17.4429 17.8491 17.1667 17.8491H12.1667C11.8906 17.8491 11.6667 17.6253 11.6667 17.3491Z" />
    </symbol>

    <symbol id="icon-header-order" viewBox="0 0 16 19"  >
        <path fill-rule="evenodd" clip-rule="evenodd" d="M0.5 0.5C0.5 0.223858 0.723858 0 1 0H15C15.2761 0 15.5 0.223858 15.5 0.5V18.5C15.5 18.6953 15.3863 18.8727 15.2089 18.9543C15.0315 19.0358 14.8229 19.0067 14.6746 18.8796L13.6428 17.9952C13.0812 17.5138 12.2523 17.5138 11.6905 17.9952C11.6905 17.9952 11.6905 17.9952 11.6905 17.9953L10.6587 18.8796C10.4714 19.0401 10.1951 19.0401 10.0079 18.8796L8.97623 17.9953C8.41447 17.5138 7.58553 17.5138 7.02377 17.9953L5.99208 18.8796C5.80483 19.0401 5.52851 19.0401 5.34127 18.8796L4.30955 17.9952C4.30954 17.9952 4.30953 17.9952 4.30952 17.9952C3.74778 17.5138 2.91889 17.5138 2.35715 17.9952C2.35714 17.9952 2.35713 17.9952 2.35712 17.9952L1.3254 18.8796C1.17715 19.0067 0.96848 19.0359 0.791077 18.9543C0.613673 18.8727 0.5 18.6953 0.5 18.5V0.5ZM1.5 1V17.4129L1.70635 17.236L1.70638 17.236C2.6426 16.4336 4.02408 16.4336 4.96029 17.236L4.96032 17.236L5.66667 17.8414L6.37299 17.236L6.37303 17.2359C7.30927 16.4336 8.69073 16.4336 9.62697 17.2359L9.62701 17.236L10.3333 17.8414L11.0397 17.236L11.0397 17.2359C11.976 16.4336 13.3574 16.4336 14.2936 17.236L14.5 17.4129V1H1.5Z" />
        <path fill-rule="evenodd" clip-rule="evenodd" d="M4.5 4.5C4.5 4.22386 4.72386 4 5 4H11C11.2761 4 11.5 4.22386 11.5 4.5C11.5 4.77614 11.2761 5 11 5H5C4.72386 5 4.5 4.77614 4.5 4.5Z" />
        <path fill-rule="evenodd" clip-rule="evenodd" d="M4.5 8.5C4.5 8.22386 4.72386 8 5 8H11C11.2761 8 11.5 8.22386 11.5 8.5C11.5 8.77614 11.2761 9 11 9H5C4.72386 9 4.5 8.77614 4.5 8.5Z" />
        <path fill-rule="evenodd" clip-rule="evenodd" d="M6.5 12.5C6.5 12.2239 6.72386 12 7 12H11C11.2761 12 11.5 12.2239 11.5 12.5C11.5 12.7761 11.2761 13 11 13H7C6.72386 13 6.5 12.7761 6.5 12.5Z" />
    </symbol>

    <symbol id="icon-header-wishlist" viewBox="0 0 20 17" >
        <path fill-rule="evenodd" clip-rule="evenodd" d="M3.28237 2.92465C5.03974 1.16729 7.88898 1.16729 9.64632 2.92465ZM9.99988 1.89313C7.83898 0.0757289 4.60894 0.18387 2.57527 2.21754L2.57527 2.21754C0.427385 4.36543 0.427386 7.84783 2.57526 9.99572L2.92882 9.64217L2.57527 9.99572L8.23213 15.6526L8.23214 15.6526C9.20844 16.6288 10.7914 16.6288 11.7676 15.6526L17.4245 9.99572L17.071 9.64217L17.4245 9.99572C19.5724 7.84783 19.5724 4.36543 17.4245 2.21755C15.3909 0.183869 12.1608 0.0757295 9.99988 1.89313ZM16.7174 2.92465C14.9601 1.16729 12.1108 1.16729 10.3534 2.92465C10.2597 3.01842 10.1325 3.0711 9.99988 3.0711C9.86727 3.0711 9.74009 3.01842 9.64632 2.92465M3.28237 2.92465C1.52502 4.68201 1.52502 7.53125 3.28237 9.28862L8.93922 14.9455C8.93922 14.9455 8.93923 14.9455 8.93923 14.9455C9.52503 15.5312 10.4748 15.5312 11.0605 14.9455L16.7174 9.28862C18.4748 7.53125 18.4748 4.68201 16.7174 2.92465" />
    </symbol>

    <symbol id="icon-header-account" viewBox="0 0 18 17" >
        <path fill-rule="evenodd" clip-rule="evenodd" d="M5 11C3.067 11 1.5 12.5669 1.5 14.5C1.5 15.3284 2.17158 16 3 16H15C15.8284 16 16.5 15.3284 16.5 14.5C16.5 12.567 14.933 11 13 11H5ZM0.5 14.5C0.5 12.0147 2.51472 10 5 10H13C15.4853 10 17.5 12.0146 17.5 14.5C17.5 15.8806 16.3807 17 15 17H3C1.61928 17 0.5 15.8806 0.5 14.5Z"/>
        <path fill-rule="evenodd" clip-rule="evenodd" d="M9 1C7.61929 1 6.5 2.11929 6.5 3.5C6.5 4.88071 7.61929 6 9 6C10.3807 6 11.5 4.88071 11.5 3.5C11.5 2.11929 10.3807 1 9 1ZM5.5 3.5C5.5 1.567 7.067 0 9 0C10.933 0 12.5 1.567 12.5 3.5C12.5 5.433 10.933 7 9 7C7.067 7 5.5 5.433 5.5 3.5Z" />
    </symbol>

    <symbol id="icon-theme-mess" viewBox="0 0 20 21">
        <path d="M0 9.83229C0 4.25869 4.3667 0.132294 10 0.132294C15.6333 0.132294 20 4.25869 20 9.83229C20 15.4059 15.6333 19.5323 10 19.5323C8.98818 19.5323 8.01741 19.3986 7.10529 19.1478C6.928 19.0991 6.73947 19.1129 6.57118 19.1872L4.58635 20.0634C4.06715 20.2925 3.48105 19.9232 3.46365 19.356L3.4092 17.577C3.4025 17.3579 3.3039 17.153 3.14055 17.0069C1.1948 15.2668 0 12.7476 0 9.83229ZM6.93259 8.00859L3.99506 12.669C3.71316 13.1162 4.26291 13.6202 4.68406 13.3006L7.83941 10.9059C8.05288 10.7439 8.34782 10.7431 8.56218 10.9038L10.8986 12.6561C11.5996 13.182 12.6002 12.9974 13.0675 12.256L16.005 7.59553C16.2869 7.14829 15.7371 6.64429 15.3159 6.96388L12.1606 9.35859C11.9472 9.52059 11.6522 9.52147 11.4379 9.36065L9.10153 7.60841C8.40041 7.08259 7.39982 7.26718 6.93259 8.00859Z" />
    </symbol>

    <symbol id="icon-theme-arr-up" viewBox="0 0 16 16" >
        <path fill-rule="evenodd" clip-rule="evenodd" d="M7.64645 0.77871C7.84171 0.583448 8.15829 0.583448 8.35355 0.77871L15.3536 7.77871C15.5488 7.97397 15.5488 8.29055 15.3536 8.48582C15.1583 8.68108 14.8417 8.68108 14.6464 8.48582L8.5 2.33937V15.1323C8.5 15.4084 8.27614 15.6323 8 15.6323C7.72386 15.6323 7.5 15.4084 7.5 15.1323V2.33937L1.35355 8.48582C1.15829 8.68108 0.841709 8.68108 0.646447 8.48582C0.451184 8.29055 0.451184 7.97397 0.646447 7.77871L7.64645 0.77871Z" />
    </symbol>

    <symbol id="icon-theme-arr-right" viewBox="0 0 7 12" >
        <path fill-rule="evenodd" clip-rule="evenodd" d="M0.646447 0.646447C0.841709 0.451184 1.15829 0.451184 1.35355 0.646447L6.35355 5.64645C6.54882 5.84171 6.54882 6.15829 6.35355 6.35355L1.35355 11.3536C1.15829 11.5488 0.841709 11.5488 0.646447 11.3536C0.451184 11.1583 0.451184 10.8417 0.646447 10.6464L5.29289 6L0.646447 1.35355C0.451184 1.15829 0.451184 0.841709 0.646447 0.646447Z" />
    </symbol>

    <symbol id="icon-theme-arr-down" viewBox="0 0 12 7">
        <path fill-rule="evenodd" clip-rule="evenodd" d="M0.646447 0.912072C0.841709 0.716809 1.15829 0.716809 1.35355 0.912072L6 5.55852L10.6464 0.912081C10.8417 0.716819 11.1583 0.71682 11.3536 0.912082C11.5488 1.10734 11.5488 1.42393 11.3536 1.61919L6.35355 6.61918C6.15829 6.81444 5.84171 6.81444 5.64645 6.61918L0.646447 1.61918C0.451184 1.42392 0.451184 1.10733 0.646447 0.912072Z" />
    </symbol>

    <symbol id="icon-theme-edit" viewBox="0 0 12 12">
        <path xmlns="http://www.w3.org/2000/svg" d="M11.1133 2.07812C11.3854 2.35026 11.5215 2.67969 11.5215 3.06641C11.5215 3.4388 11.3854 3.76107 11.1133 4.0332L3.55078 11.5957L1.10156 11.875C1.07292 11.875 1.05143 11.875 1.03711 11.875C0.879557 11.875 0.750651 11.8177 0.650391 11.7031C0.55013 11.5885 0.507161 11.4525 0.521484 11.2949L0.800781 8.8457L8.36328 1.2832C8.63542 1.01107 8.95768 0.875 9.33008 0.875C9.7168 0.875 10.0462 1.01107 10.3184 1.2832L11.1133 2.07812ZM3.22852 10.9512L8.90039 5.2793L7.11719 3.49609L1.44531 9.16797L1.23047 11.166L3.22852 10.9512ZM10.6406 3.53906C10.7695 3.41016 10.834 3.2526 10.834 3.06641C10.834 2.86589 10.7695 2.70117 10.6406 2.57227L9.82422 1.75586C9.69531 1.62695 9.5306 1.5625 9.33008 1.5625C9.14388 1.5625 8.98633 1.62695 8.85742 1.75586L7.61133 3.00195L9.39453 4.78516L10.6406 3.53906Z" fill="black"/>
    </symbol>

    <symbol id="icon-theme-trash" viewBox="0 0 10 12">
        <path xmlns="http://www.w3.org/2000/svg" d="M9.45312 2.25C9.56771 2.25 9.625 2.30729 9.625 2.42188V2.76562C9.625 2.88021 9.56771 2.9375 9.45312 2.9375H9.04492L8.33594 10.9297C8.30729 11.1875 8.19271 11.4095 7.99219 11.5957C7.79167 11.7819 7.5625 11.875 7.30469 11.875H2.32031C2.0625 11.875 1.83333 11.7819 1.63281 11.5957C1.43229 11.4095 1.31771 11.1875 1.28906 10.9297L0.580078 2.9375H0.171875C0.0572917 2.9375 0 2.88021 0 2.76562V2.42188C0 2.30729 0.0572917 2.25 0.171875 2.25H2.40625L3.13672 1.2832C3.22266 1.16862 3.3444 1.07552 3.50195 1.00391C3.65951 0.917969 3.8099 0.875 3.95312 0.875H5.67188C5.8151 0.875 5.96549 0.917969 6.12305 1.00391C6.2806 1.07552 6.40234 1.16862 6.48828 1.2832L7.21875 2.25H9.45312ZM3.67383 1.69141L3.26562 2.25H6.35938L5.95117 1.69141C5.87956 1.60547 5.78646 1.5625 5.67188 1.5625H3.95312C3.83854 1.5625 3.74544 1.60547 3.67383 1.69141ZM7.64844 10.8652L8.35742 2.9375H1.26758L1.97656 10.8652C1.97656 10.9512 2.01237 11.0228 2.08398 11.0801C2.1556 11.1517 2.23438 11.1875 2.32031 11.1875H7.30469C7.36198 11.1875 7.41211 11.1732 7.45508 11.1445C7.51237 11.1159 7.55534 11.0729 7.58398 11.0156C7.62695 10.9727 7.64844 10.9225 7.64844 10.8652Z" fill="black"/>
    </symbol>

    <symbol id="icon-theme-flash" viewBox="0 0 81 96">
        <g xmlns="http://www.w3.org/2000/svg" clip-path="url(#clip0_291_10796)">
            <path d="M72.5066 45.265L46.433 40.0217L60.6204 11.2546C60.7832 10.9079 60.825 10.5167 60.7391 10.1435C60.6532 9.77035 60.4447 9.43698 60.1469 9.19686C59.8492 8.95674 59.4794 8.8238 59.097 8.81936C58.7147 8.81492 58.3418 8.93925 58.0382 9.17239L8.23593 47.9101C7.96985 48.1023 7.76704 48.3695 7.65345 48.6777C7.53985 48.9859 7.52065 49.3209 7.5983 49.6399C7.67594 49.959 7.8469 50.2475 8.08929 50.4686C8.33168 50.6896 8.63447 50.8332 8.95891 50.8809L34.9171 56.1009L20.7298 84.868C20.552 85.2084 20.4982 85.6001 20.5778 85.9757C20.6574 86.3513 20.8653 86.6872 21.1657 86.9257C21.4661 87.1641 21.8402 87.2901 22.2236 87.2819C22.607 87.2737 22.9755 87.1319 23.2659 86.8809L73.0566 48.2009C73.3226 48.0088 73.5254 47.7415 73.639 47.4334C73.7526 47.1252 73.7718 46.7901 73.6942 46.4711C73.6165 46.1521 73.4456 45.8635 73.2032 45.6425C72.9608 45.4214 72.658 45.2779 72.3336 45.2302L72.5066 45.265Z" fill="#FFB124"/>
            <path d="M46.433 40.0217L43.2027 39.3721C42.9496 39.3199 42.7116 39.2108 42.5068 39.053C42.302 38.8953 42.1357 38.693 42.0205 38.4614C41.9052 38.2298 41.844 37.975 41.8414 37.7161C41.8389 37.4573 41.8951 37.2013 42.0058 36.9673L54.2722 12.082L58.0382 9.17237C58.3418 8.93924 58.7147 8.81491 59.097 8.81935C59.4794 8.82379 59.8492 8.95673 60.1469 9.19685C60.4447 9.43697 60.6532 9.77034 60.7391 10.1435C60.825 10.5166 60.7832 10.9079 60.6204 11.2546L46.433 40.0217ZM73.2296 48.2357L23.4389 86.9157C23.1486 87.1667 22.78 87.3085 22.3966 87.3167C22.0133 87.3249 21.6392 87.1989 21.3388 86.9604C21.0384 86.722 20.8304 86.386 20.7509 86.0105C20.6713 85.6349 20.725 85.2432 20.9028 84.9028L21.8403 82.9272L68.038 47.1917C68.304 46.9996 68.5068 46.7323 68.6204 46.4241C68.734 46.116 68.7532 45.7809 68.6756 45.4619C68.5979 45.1428 68.427 44.8543 68.1846 44.6333C67.9422 44.4122 67.6394 44.2686 67.315 44.221L72.6797 45.2998C72.9826 45.3781 73.257 45.5413 73.4706 45.7702C73.6843 45.9991 73.8284 46.2842 73.8861 46.5922C73.9437 46.9002 73.9126 47.2184 73.7964 47.5094C73.6801 47.8005 73.4835 48.0524 73.2296 48.2357Z" fill="#FDD835"/>
        </g>
        <defs xmlns="http://www.w3.org/2000/svg">
            <clipPath id="clip0_291_10796">
            <rect width="64.7826" height="84.2174" fill="white" transform="translate(17.2558 0.370117) rotate(11.3702)"/>
            </clipPath>
        </defs>
    </symbol>

    <symbol id="icon-checkout-shipping" viewBox="0 0 17 17">
        <path fill-rule="evenodd" clip-rule="evenodd" d="M0 4.5C0 4.22386 0.223858 4 0.5 4H16.5C16.7761 4 17 4.22386 17 4.5V14.5C17 15.8807 15.8807 17 14.5 17H2.5C1.11929 17 0 15.8807 0 14.5V4.5ZM1 5V14.5C1 15.3284 1.67157 16 2.5 16H14.5C15.3284 16 16 15.3284 16 14.5V5H1Z" />
        <path fill-rule="evenodd" clip-rule="evenodd" d="M4.14646 0.146447C4.24023 0.0526784 4.36741 0 4.50001 0H12.5C12.6326 0 12.7598 0.0526784 12.8536 0.146447L16.8536 4.14645C16.9966 4.28945 17.0393 4.5045 16.962 4.69134C16.8846 4.87818 16.7022 5 16.5 5H0.500015C0.297783 5 0.115465 4.87818 0.0380748 4.69134C-0.0393156 4.5045 0.00346223 4.28945 0.146461 4.14645L4.14646 0.146447ZM4.70712 1L1.70712 4H15.2929L12.2929 1H4.70712Z"/>
        <path fill-rule="evenodd" clip-rule="evenodd" d="M4 8.5C4 8.22386 4.22386 8 4.5 8H8.5C8.77614 8 9 8.22386 9 8.5C9 8.77614 8.77614 9 8.5 9H4.5C4.22386 9 4 8.77614 4 8.5Z" />
    </symbol>

    <symbol id="icon-checkout-wallet" viewBox="0 0 19 15">
        <path fill-rule="evenodd" clip-rule="evenodd" d="M0 0.5C0 0.223858 0.223858 0 0.5 0H18.5C18.7761 0 19 0.223858 19 0.5V12.5C19 13.8807 17.8807 15 16.5 15H2.5C1.11929 15 0 13.8807 0 12.5V0.5ZM1 5V12.5C1 13.3284 1.67157 14 2.5 14H16.5C17.3284 14 18 13.3284 18 12.5V5H1ZM18 4H1V1H18V4Z" />
        <path fill-rule="evenodd" clip-rule="evenodd" d="M4.00049 8.50006C4.00049 8.22392 4.22435 8.00006 4.50049 8.00006H7.50049C7.77663 8.00006 8.00049 8.22392 8.00049 8.50006C8.00049 8.7762 7.77663 9.00006 7.50049 9.00006H4.50049C4.22435 9.00006 4.00049 8.7762 4.00049 8.50006Z" />
    </symbol>

	<symbol id="icon-checkout-circle" viewBox="0 0 20 20">
		<path id="np_tick_1676385_000000" d="M10,0a10,10,0,1,0,7.071,2.929A10,10,0,0,0,10,0Zm4.48,8.11-5,5a1.134,1.134,0,0,1-.78.31,1.152,1.152,0,0,1-.7-.36L5.1,10.21a1.1,1.1,0,0,1,0-1.56,1.079,1.079,0,0,1,1.55,0l2.1,2.1,4.2-4.2a1.093,1.093,0,1,1,1.53,1.56Z"/>
	</symbol>

    <symbol id="icon-checkout-cash" viewBox="0 0 28 24">
        <path d="M27.8776 13.5804C27.8775 13.5803 27.8775 13.5802 27.8774 13.5801L22.6066 0.345567C22.4948 0.0643679 22.176 -0.0729093 21.8948 0.0389538C21.8946 0.0390223 21.8944 0.0390908 21.8942 0.0392278L0.511296 8.55371C0.424094 8.59138 0.348468 8.65153 0.292091 8.72797C0.114261 8.82038 0.00191805 9.00328 0 9.20365V23.452C0 23.7546 0.245373 24 0.548013 24H23.5646C23.8672 24 24.1126 23.7546 24.1126 23.452V15.6702L27.5716 14.2925C27.8528 14.1804 27.9897 13.8616 27.8776 13.5804ZM23.0165 22.904H1.09603V9.75166H23.0165V22.904ZM9.14359 8.65838L18.3195 5.00203C19.1385 5.86282 20.2732 6.35206 21.4613 6.35672L22.3765 8.65838H9.14359ZM24.1126 14.4931V9.20365C24.1126 8.90101 23.8672 8.65564 23.5646 8.65564H23.5558L22.3945 5.73911C22.3817 5.71479 22.3667 5.69164 22.3496 5.67006C22.2908 5.40612 22.0464 5.22603 21.7769 5.24809C20.6715 5.34886 19.59 4.88318 18.9037 4.01068C18.7329 3.7999 18.4328 3.74749 18.2006 3.88792C18.1746 3.89101 18.1487 3.8958 18.1233 3.90217L6.92086 8.363C6.78529 8.41615 6.67685 8.52158 6.62 8.65564H3.21793L21.7912 1.2602L26.657 13.4781L24.1126 14.4931Z" />
        <path d="M2.58318 19.2046C3.64714 19.5191 4.47971 20.3507 4.7955 21.4142C4.86476 21.6464 5.07828 21.8054 5.3205 21.8055C5.34893 21.8037 5.37715 21.7995 5.40489 21.7929C5.42949 21.7999 5.45463 21.805 5.47997 21.8082H18.6323C18.6549 21.8053 18.6772 21.8007 18.6991 21.7945C18.9729 21.8611 19.2489 21.6932 19.3155 21.4194C19.3157 21.4184 19.316 21.4174 19.3162 21.4164C19.6312 20.3518 20.4639 19.519 21.5285 19.2041C21.7867 19.1252 21.9471 18.8679 21.9045 18.6013C21.9118 18.5747 21.9171 18.5476 21.9204 18.5202V14.136C21.9171 14.1086 21.9117 14.0814 21.9039 14.0549C21.9469 13.7883 21.7864 13.5308 21.528 13.4521C20.4633 13.1372 19.6308 12.3042 19.3167 11.2392C19.2374 10.9793 18.9776 10.8184 18.7096 10.8633C18.6842 10.8563 18.6584 10.8511 18.6323 10.848H5.47997C5.45237 10.8512 5.42503 10.8567 5.39832 10.8644C5.13178 10.8219 4.87462 10.9823 4.7955 11.2403C4.48033 12.3048 3.64769 13.1372 2.58318 13.4521C2.32499 13.531 2.16456 13.7883 2.20724 14.0549C2.20011 14.0816 2.19498 14.1086 2.19189 14.136V18.5202C2.19505 18.5459 2.20018 18.5714 2.20724 18.5963C2.1623 18.8647 2.32308 19.1248 2.58318 19.2046ZM3.28792 14.3585C4.38833 13.9166 5.26049 13.0444 5.70247 11.944H18.4092C18.8514 13.0444 19.7238 13.9166 20.8243 14.3585V18.2977C19.7243 18.7401 18.8522 19.6121 18.4098 20.7122H5.70247C5.26001 19.6121 4.38799 18.7401 3.28792 18.2977V14.3585Z" />
        <path d="M12.0561 19.6162C13.8721 19.6162 15.3442 18.1441 15.3442 16.3281C15.3442 14.5121 13.8721 13.04 12.0561 13.04C10.2402 13.04 8.76807 14.5121 8.76807 16.3281C8.76985 18.1433 10.2409 19.6144 12.0561 19.6162ZM12.0561 14.1361C13.2668 14.1361 14.2482 15.1175 14.2482 16.3281C14.2482 17.5387 13.2668 18.5202 12.0561 18.5202C10.8455 18.5202 9.86409 17.5387 9.86409 16.3281C9.86409 15.1175 10.8455 14.1361 12.0561 14.1361Z" />
        <path d="M6.02856 17.1501C6.48252 17.1501 6.85058 16.782 6.85058 16.3281C6.85058 15.8741 6.48252 15.506 6.02856 15.506C5.5746 15.506 5.20654 15.8741 5.20654 16.3281C5.20654 16.7821 5.5746 17.1501 6.02856 17.1501ZM6.02856 16.0541C6.17988 16.0541 6.30257 16.1767 6.30257 16.3281C6.30257 16.4794 6.17988 16.6021 6.02856 16.6021C5.87724 16.6021 5.75456 16.4794 5.75456 16.3281C5.75456 16.1767 5.87724 16.0541 6.02856 16.0541Z" />
        <path d="M18.0847 17.1501C18.5387 17.1501 18.9067 16.782 18.9067 16.3281C18.9067 15.8741 18.5387 15.506 18.0847 15.506C17.6308 15.506 17.2627 15.8741 17.2627 16.3281C17.2627 16.7821 17.6308 17.1501 18.0847 17.1501ZM18.0847 16.0541C18.236 16.0541 18.3587 16.1767 18.3587 16.3281C18.3587 16.4794 18.236 16.6021 18.0847 16.6021C17.9334 16.6021 17.8107 16.4794 17.8107 16.3281C17.8107 16.1767 17.9334 16.0541 18.0847 16.0541Z" />
    </symbol>

    <symbol id="icon-checkout-atm" viewBox="0 0 30 20">
        <path d="M26.875 0H3.12497C1.4025 0 0 1.4025 0 3.12503V16.875C0 18.5975 1.4025 20 3.12497 20H26.8749C28.5974 20 29.9999 18.5975 29.9999 16.875V3.12503C29.9999 1.4025 28.5974 0 26.875 0ZM28.75 16.875C28.75 17.9087 27.9087 18.75 26.875 18.75H3.12497C2.09121 18.75 1.24998 17.9087 1.24998 16.875V3.12503C1.24998 2.09127 2.09121 1.25004 3.12497 1.25004H26.8749C27.9087 1.25004 28.7499 2.09127 28.7499 3.12503V16.875H28.75Z" />
        <path d="M29.3749 3.75H0.625018C0.280019 3.75 0 4.03002 0 4.37502V8.12501C0 8.47001 0.280019 8.75003 0.625018 8.75003H29.375C29.72 8.75003 30 8.47001 30 8.12501V4.37502C29.9999 4.03002 29.7199 3.75 29.3749 3.75ZM28.75 7.49999H1.24998V4.99998H28.7499V7.49999H28.75Z" />
        <path d="M11.875 12.5001H4.37502C4.03002 12.5001 3.75 12.7801 3.75 13.1251C3.75 13.4701 4.03002 13.75 4.37502 13.75H11.875C12.22 13.75 12.5 13.47 12.5 13.125C12.5 12.78 12.22 12.5001 11.875 12.5001Z" />
        <path d="M11.875 15H4.37502C4.03002 15 3.75 15.28 3.75 15.625C3.75 15.97 4.03002 16.25 4.37502 16.25H11.875C12.22 16.25 12.5 15.97 12.5 15.625C12.5 15.28 12.22 15 11.875 15Z" />
        <path d="M24.3745 11.25H23.1245C22.0907 11.25 21.2495 12.0912 21.2495 13.125V14.375C21.2495 15.4087 22.0907 16.25 23.1245 16.25H24.3745C25.4083 16.25 26.2495 15.4087 26.2495 14.375V13.125C26.2495 12.0913 25.4083 11.25 24.3745 11.25ZM24.9995 14.375C24.9995 14.72 24.7195 15.0001 24.3745 15.0001H23.1245C22.7795 15.0001 22.4995 14.72 22.4995 14.375V13.1251C22.4995 12.7801 22.7795 12.5 23.1245 12.5H24.3745C24.7195 12.5 24.9995 12.7801 24.9995 13.1251V14.375Z" />
    </symbol>

    <symbol id="icon-checkout-visa" viewBox="0 0 53 16">
        <path d="M6.88219 0.668091H0.976917L0.916504 0.954905C5.52299 2.13287 8.57377 4.97231 9.8272 8.38517L8.54347 1.86131C8.33212 0.954704 7.68262 0.697997 6.88219 0.668091Z" fill="#FAA61A"/>
        <path d="M18.889 0.668091L15.2945 10.3477L14.9017 8.38457C14.2371 6.11936 12.153 3.65826 9.82715 2.43454L13.1196 14.848H17.0009L22.7701 0.668091H18.889Z" fill="#00579F"/>
        <path d="M26.4404 14.8631H22.77L25.0657 0.668091H28.7359L26.4404 14.8631Z" fill="#00579F"/>
        <path d="M39.7465 1.27243C39.0225 0.985212 37.8742 0.668091 36.4544 0.668091C32.8298 0.668091 30.2774 2.60092 30.2617 5.36429C30.2316 7.4031 32.0892 8.5355 33.4785 9.21531C34.8985 9.90996 35.3812 10.3634 35.3812 10.9826C35.3668 11.9335 34.2338 12.3719 33.177 12.3719C31.7116 12.3719 30.9265 12.1459 29.7333 11.6168L29.2499 11.39L28.7363 14.5765C29.5972 14.9686 31.1832 15.3167 32.8298 15.3319C36.681 15.3319 39.1883 13.429 39.218 10.4842C39.2326 8.86828 38.2518 7.6301 36.1371 6.61833C34.8534 5.96883 34.0672 5.53088 34.0672 4.86633C34.0822 4.2622 34.7321 3.64341 36.1813 3.64341C37.3745 3.6131 38.2512 3.89992 38.9153 4.18693L39.2473 4.33766L39.7465 1.27243Z" fill="#00579F"/>
        <path d="M45.4248 9.83429C45.727 9.01881 46.8901 5.86265 46.8901 5.86265C46.8749 5.89296 47.1918 5.03212 47.3731 4.50365L47.6296 5.72677C47.6296 5.72677 48.3246 9.12459 48.4755 9.83429C47.9019 9.83429 46.1497 9.83429 45.4248 9.83429ZM49.9554 0.668091H47.1163C46.2408 0.668091 45.5757 0.924598 45.198 1.84585L39.7461 14.8629H43.5973C43.5973 14.8629 44.2313 13.1109 44.3676 12.7335C44.7901 12.7335 48.5366 12.7335 49.0801 12.7335C49.1855 13.2319 49.518 14.8629 49.518 14.8629H52.9164L49.9554 0.668091Z" fill="#00579F"/>
    </symbol>

    <symbol id="icon-checkout-mastercard" viewBox="0 0 27 20">
        <g clip-path="url(#clip0_1318_177000)">
        <path d="M5.58422 19.9564V18.629C5.58422 18.1213 5.27494 17.7888 4.74401 17.7888C4.47855 17.7888 4.18989 17.8765 3.99143 18.1651C3.83679 17.9228 3.61514 17.7888 3.28267 17.7888C3.06102 17.7888 2.83937 17.8558 2.66411 18.0981V17.8326H2.2002V19.9564H2.66411V18.7837C2.66411 18.4074 2.86257 18.2295 3.17184 18.2295C3.48112 18.2295 3.63576 18.428 3.63576 18.7837V19.9564H4.09968V18.7837C4.09968 18.4074 4.32133 18.2295 4.60741 18.2295C4.91669 18.2295 5.07133 18.428 5.07133 18.7837V19.9564H5.58422ZM12.4657 17.8326H11.7131V17.1909H11.2492V17.8326H10.8291V18.2527H11.2492V19.227C11.2492 19.7141 11.4476 20.0002 11.9785 20.0002C12.177 20.0002 12.3986 19.9332 12.5533 19.8455L12.4193 19.446C12.2852 19.5337 12.1306 19.5569 12.0198 19.5569C11.7981 19.5569 11.7105 19.4228 11.7105 19.2038V18.2527H12.4631V17.8326H12.4657ZM16.4038 17.7862C16.1383 17.7862 15.9605 17.9203 15.8497 18.0955V17.8301H15.3858V19.9538H15.8497V18.7579C15.8497 18.4048 16.0043 18.2038 16.293 18.2038C16.3806 18.2038 16.4914 18.227 16.5816 18.2476L16.7157 17.8043C16.6229 17.7862 16.4914 17.7862 16.4038 17.7862ZM10.4528 18.0079C10.2311 17.8533 9.92184 17.7862 9.58937 17.7862C9.05844 17.7862 8.70535 18.0517 8.70535 18.4718C8.70535 18.8249 8.97081 19.0259 9.43473 19.0904L9.65638 19.1136C9.89865 19.1574 10.0327 19.2244 10.0327 19.3352C10.0327 19.4899 9.85483 19.6007 9.54556 19.6007C9.23628 19.6007 8.99143 19.4899 8.83679 19.379L8.61514 19.7321C8.85741 19.91 9.18989 19.9976 9.52236 19.9976C10.1409 19.9976 10.4966 19.7089 10.4966 19.312C10.4966 18.9357 10.2079 18.7373 9.76721 18.6703L9.54556 18.6471C9.3471 18.6239 9.19246 18.5801 9.19246 18.4486C9.19246 18.294 9.3471 18.2064 9.59195 18.2064C9.85741 18.2064 10.1229 18.3172 10.2569 18.3842L10.4528 18.0079ZM22.7956 17.7862C22.5301 17.7862 22.3523 17.9203 22.2414 18.0955V17.8301H21.7775V19.9538H22.2414V18.7579C22.2414 18.4048 22.3961 18.2038 22.6847 18.2038C22.7724 18.2038 22.8832 18.227 22.9734 18.2476L23.1074 17.8094C23.0172 17.7862 22.8858 17.7862 22.7956 17.7862ZM16.8677 18.8945C16.8677 19.5362 17.311 20.0002 17.9966 20.0002C18.3059 20.0002 18.5275 19.9332 18.7492 19.7579L18.5275 19.3816C18.3497 19.5156 18.1744 19.5801 17.9734 19.5801C17.5971 19.5801 17.3316 19.3146 17.3316 18.8945C17.3316 18.495 17.5971 18.2295 17.9734 18.2089C18.1718 18.2089 18.3497 18.2759 18.5275 18.4074L18.7492 18.0311C18.5275 17.8533 18.3059 17.7888 17.9966 17.7888C17.311 17.7862 16.8677 18.2527 16.8677 18.8945ZM21.159 18.8945V17.8326H20.695V18.0981C20.5404 17.8996 20.3188 17.7888 20.0301 17.7888C19.4322 17.7888 18.9682 18.2527 18.9682 18.8945C18.9682 19.5362 19.4322 20.0002 20.0301 20.0002C20.3394 20.0002 20.561 19.8893 20.695 19.6909V19.9564H21.159V18.8945ZM19.4553 18.8945C19.4553 18.5182 19.6976 18.2089 20.0971 18.2089C20.4734 18.2089 20.7389 18.4976 20.7389 18.8945C20.7389 19.2708 20.4734 19.5801 20.0971 19.5801C19.7002 19.5569 19.4553 19.2682 19.4553 18.8945ZM13.9038 17.7862C13.2852 17.7862 12.8419 18.2295 12.8419 18.8919C12.8419 19.5569 13.2852 19.9976 13.927 19.9976C14.2363 19.9976 14.5456 19.91 14.7904 19.7089L14.5688 19.3765C14.3909 19.5105 14.1693 19.5981 13.9502 19.5981C13.6615 19.5981 13.3755 19.4641 13.3084 19.0904H14.878C14.878 19.0234 14.878 18.9795 14.878 18.9125C14.8986 18.2295 14.4992 17.7862 13.9038 17.7862ZM13.9038 18.1857C14.1925 18.1857 14.3909 18.3636 14.4347 18.6935H13.3291C13.3729 18.4074 13.5713 18.1857 13.9038 18.1857ZM25.4296 18.8945V16.9924H24.9657V18.0981C24.811 17.8996 24.5894 17.7888 24.3007 17.7888C23.7028 17.7888 23.2389 18.2527 23.2389 18.8945C23.2389 19.5362 23.7028 20.0002 24.3007 20.0002C24.61 20.0002 24.8316 19.8893 24.9657 19.6909V19.9564H25.4296V18.8945ZM23.726 18.8945C23.726 18.5182 23.9682 18.2089 24.3677 18.2089C24.744 18.2089 25.0095 18.4976 25.0095 18.8945C25.0095 19.2708 24.744 19.5801 24.3677 19.5801C23.9682 19.5569 23.726 19.2682 23.726 18.8945ZM8.19504 18.8945V17.8326H7.73112V18.0981C7.57648 17.8996 7.35483 17.7888 7.06617 17.7888C6.46824 17.7888 6.00432 18.2527 6.00432 18.8945C6.00432 19.5362 6.46824 20.0002 7.06617 20.0002C7.37545 20.0002 7.5971 19.8893 7.73112 19.6909V19.9564H8.19504V18.8945ZM6.47081 18.8945C6.47081 18.5182 6.71308 18.2089 7.11257 18.2089C7.48885 18.2089 7.75432 18.4976 7.75432 18.8945C7.75432 19.2708 7.48885 19.5801 7.11257 19.5801C6.71308 19.5569 6.47081 19.2682 6.47081 18.8945Z" fill="black"/>
        <path d="M17.2669 1.70404H10.2979V14.2247H17.2669V1.70404Z" fill="#FF5A00"/>
        <path d="M10.7619 7.96392C10.7619 5.4201 11.9577 3.16237 13.7928 1.70361C12.4423 0.641752 10.7387 0 8.88042 0C4.47836 0 0.916504 3.56186 0.916504 7.96392C0.916504 12.366 4.47836 15.9278 8.88042 15.9278C10.7387 15.9278 12.4423 15.2861 13.7928 14.2242C11.9552 12.7861 10.7619 10.5077 10.7619 7.96392Z" fill="#EB001B"/>
        <path d="M26.6693 7.96392C26.6693 12.366 23.1074 15.9278 18.7053 15.9278C16.8471 15.9278 15.1435 15.2861 13.793 14.2242C15.6512 12.7629 16.8239 10.5077 16.8239 7.96392C16.8239 5.4201 15.628 3.16237 13.793 1.70361C15.1409 0.641752 16.8445 0 18.7028 0C23.1074 0 26.6693 3.58505 26.6693 7.96392Z" fill="#F79E1B"/>
        </g>
        <defs>
        <clipPath id="clip0_1318_177000">
        <rect width="25.7526" height="20" fill="white" transform="translate(0.916504)"/>
        </clipPath>
        </defs>
    </symbol>

    <symbol id="icon-checkout-vnpay" viewBox="0 0 77 20">
        <path fill-rule="evenodd" clip-rule="evenodd" d="M66.3725 9.44223H64.4919L65.4039 6.84363L66.3725 9.44223ZM14.3732 6.5149L12.4721 8.41602L12.3773 8.50941L11.3229 9.56518L10.3619 10.5264L10.2683 10.6211H10.2673L9.37625 11.5109V11.5121L9.28274 11.6055C9.01568 11.8727 8.72043 12.0917 8.40668 12.2651C8.24786 12.3526 8.08551 12.4274 7.91938 12.4914C7.549 12.6342 7.16024 12.7179 6.76897 12.7426C6.52909 12.7587 6.28544 12.7524 6.0467 12.7229C5.52995 12.6611 5.02289 12.4964 4.56026 12.2283C4.36217 12.1139 4.15917 11.9945 3.9904 11.8271C3.98927 11.8271 3.98927 11.8271 3.98801 11.8259L0.342067 8.18018C0.281783 8.11347 0.227667 8.04136 0.182234 7.96371C0.0664501 7.76788 0 7.54097 0 7.29783C0 7.25957 0.00138438 7.22144 0.00490824 7.18443C0.00981648 7.12805 0.0185003 7.07343 0.0295753 7.0207L0.0515995 6.93336C0.100808 6.77088 0.18085 6.61734 0.291726 6.47916C0.321175 6.44405 0.351883 6.40943 0.385108 6.37483L0.44665 6.31417L4.13437 2.62518H4.13576L6.37027 0.391053C6.86864 -0.107448 7.66239 -0.12985 8.18518 0.326743L14.3732 6.5149ZM56.9563 4.95093L58.7363 4.94426H60.8977C62.0863 4.94426 63.0591 5.91698 63.0591 7.10565V7.37183C63.0591 8.56101 62.0857 9.46702 60.8977 9.50289L59.9116 9.53322C60.7042 9.16875 61.036 8.24814 60.9371 7.41915C60.8576 6.75326 60.5149 6.11343 59.9437 6.10135L59.5835 6.09342V12.0178C59.5835 12.1331 59.6035 12.1811 59.6642 12.2823C59.7606 12.4435 59.8898 12.6048 60.0226 12.7657C60.0577 12.8075 60.0923 12.8493 60.1269 12.8911H57.0614C57.1075 12.8348 57.1524 12.7777 57.1955 12.7192C57.2882 12.5921 57.3708 12.458 57.4326 12.3084C57.4726 12.212 57.492 12.1407 57.492 12.0383V5.67433C57.4796 5.34271 57.1498 5.15406 56.9563 4.95093ZM71.6769 9.1948L68.8933 5.2039L68.6101 4.94439H71.3542L73.2136 7.96144L73.3633 7.83949L74.4871 6.16881C74.7636 5.75828 74.7261 5.28155 74.3324 4.94439H76.9249L73.9279 9.1943L73.9266 12.2778L74.4548 12.9058H71.234L71.6876 12.2872C71.6879 11.2593 71.6509 10.2197 71.6769 9.1948ZM64.119 4.94426C64.341 5.24933 64.4071 5.35668 64.4318 5.62777C64.4488 5.81692 64.4361 5.9249 64.3755 6.10135L62.3051 12.105C62.208 12.3518 62.0079 12.6245 61.7162 12.8893H63.9758C63.8077 12.7407 63.701 12.5635 63.6616 12.3526C63.6265 12.1599 63.6277 12.0876 63.6696 11.9023L64.1287 10.4762H66.7582L67.1681 11.5749C67.2112 11.6901 67.2355 11.797 67.2464 11.9205C67.2822 12.3308 67.1506 12.6687 66.8249 12.9072H70.3672C70.0197 12.5977 69.7007 12.2736 69.5206 11.8804L66.9347 4.94414H64.119V4.94426Z" fill="#005AAA"/>
        <path fill-rule="evenodd" clip-rule="evenodd" d="M34.9747 6.25608L37.8807 4.58955L38.4537 5.64167L35.6529 6.67077L34.9747 6.25608ZM35.7172 11.7289V8.3665C35.7172 8.10939 35.686 7.91469 35.6237 7.78192C35.5651 7.65329 35.4638 7.52115 35.3196 7.38473V7.33804H36.7697C36.9958 7.33804 37.1868 7.32771 37.3428 7.30833C37.487 7.29323 37.6235 7.24591 37.7521 7.16826H37.7989V11.7757C37.7989 12.041 37.8261 12.2435 37.8807 12.384C37.9351 12.5438 38.0482 12.6861 38.2198 12.8107V12.8575H35.2961V12.8107C35.4794 12.6548 35.5964 12.4989 35.6468 12.3427C35.6938 12.1909 35.7172 11.9863 35.7172 11.7289ZM40.336 4.90909H42.8108L44.8879 10.8644L46.6496 5.93151C46.6817 5.73984 46.6539 5.67741 46.5805 5.51242C46.4828 5.31232 46.3785 5.11762 46.2815 4.91752H48.1299C48.0201 5.32025 47.8582 5.76224 47.7187 6.16799L45.3318 13.104C44.6805 12.9741 43.954 12.7162 43.3924 12.1839C42.9697 11.7833 42.8193 11.3278 42.6107 10.7846L40.615 5.49908C40.5361 5.29055 40.439 5.10378 40.336 4.90909ZM29.7415 11.007L27.9929 6.18082C27.9501 6.06743 27.9072 5.95404 27.8644 5.84128C27.798 5.67754 27.7415 5.54892 27.6949 5.45503C27.6246 5.31496 27.5116 5.16092 27.3556 4.99291V4.96924H30.0746V5.01656L30.0512 5.09233C30.0824 5.30703 30.1429 5.57082 30.2324 5.88318L31.941 10.8493L33.3644 6.49508L33.4351 6.28641L33.5083 6.03408C33.5195 5.98311 33.5268 5.94611 33.5306 5.92245C33.5344 5.89879 33.536 5.86368 33.536 5.81636C33.536 5.4792 33.3568 5.20509 32.9981 4.99278V4.96912H35.1383V4.99882L32.3844 13.1072L31.4547 12.7856C31.2946 12.727 31.1506 12.6685 31.0219 12.6102C30.8933 12.5516 30.7782 12.4892 30.6769 12.4227C30.4938 12.3018 30.3269 12.1333 30.177 11.9168C30.0271 11.7003 29.8818 11.3972 29.7415 11.007ZM50.2166 7.69999V11.9553C50.2166 12.1281 50.2566 12.1591 50.3627 12.2975L50.8503 12.9329H48.521C48.6527 12.7327 48.7836 12.5325 48.9146 12.3324C49.0159 12.1671 49.0595 12.111 49.0595 11.9194V5.97418L48.4046 4.90921H50.8188L54.7273 9.94318V5.93164C54.7273 5.73996 54.689 5.67754 54.5879 5.51255C54.4568 5.31244 54.3198 5.11775 54.1888 4.91764H56.5157L56.0305 5.5532C55.9244 5.69151 55.8844 5.72234 55.8844 5.89526V13.1364C55.0033 13.0203 54.1821 12.8047 53.4519 11.8719L50.2166 7.69999ZM3.95407 11.7922C3.96565 11.8037 3.97723 11.815 3.98868 11.8261C4.1572 11.9932 4.36158 12.1139 4.5608 12.2284C5.02344 12.4966 5.5305 12.6615 6.04725 12.7231C6.28586 12.7526 6.52951 12.7587 6.76951 12.7426C7.16079 12.7181 7.54967 12.6343 7.91993 12.4917C8.08605 12.4278 8.24853 12.3526 8.4071 12.2654C8.72098 12.0917 9.0161 11.8727 9.28329 11.6058L9.3768 11.5123V11.5112L10.2677 10.6215H10.2688L10.7193 10.1697L11.7739 9.11545L12.378 8.5096L12.4728 8.41621L16.3032 4.58602L17.8832 2.87405L17.978 2.78067C18.4603 2.29853 19.243 2.29853 19.7251 2.78067L20.5902 3.6454H20.5915L20.6197 3.67385C20.2371 3.6556 19.8507 3.79328 19.5615 4.07657L16.6342 6.95595L16.6046 6.99169L11.5105 12.0044L11.5031 11.9982L9.62686 13.8416L9.50139 13.9744C9.35364 14.1183 9.0448 14.3906 8.63125 14.586C8.44423 14.6746 8.25356 14.7385 8.06541 14.778C7.9534 14.8001 7.83888 14.8149 7.727 14.8198H7.64192C7.34428 14.8198 7.05142 14.7534 6.7709 14.6254L5.88855 13.7458L5.52924 13.3851L3.87793 11.7153L3.95407 11.7922ZM25.2762 10.0797L21.0334 14.3864L16.6764 18.8101C16.5373 18.9492 16.3921 19.0745 16.2384 19.1878C16.2334 19.1928 16.2272 19.1976 16.221 19.2025C16.2001 19.2174 16.1792 19.2333 16.1571 19.2481C16.1546 19.2506 16.1522 19.2516 16.1498 19.2542C15.4926 19.7244 14.6866 20 13.8179 20C12.7449 20 11.7703 19.5792 11.0494 18.8938L10.9497 18.8052L10.2001 18.0559L8.09486 15.9494L7.29381 15.1483C7.40821 15.1667 7.52387 15.1752 7.63953 15.1752L7.73681 15.1741C7.87097 15.1691 8.00513 15.1532 8.13665 15.1262C8.35198 15.0817 8.5697 15.0079 8.78378 14.9072C9.24402 14.6892 9.58735 14.3879 9.75095 14.2278C9.81501 14.1649 9.86296 14.1122 9.88272 14.0888L11.5021 12.4979L11.5082 12.5052L17.0761 7.0273L17.1056 6.99156L19.8103 4.32991C20.1745 3.97388 20.7431 3.92719 21.1564 4.21161L21.7975 4.85258C21.7989 4.85258 21.7989 4.85384 21.7989 4.85384L25.2762 8.33114C25.3069 8.3621 25.3365 8.39419 25.3636 8.42691C25.7574 8.91345 25.7278 9.62968 25.2762 10.0797Z" fill="#ED1C24"/>
        <path d="M13.7995 7.08861L13.4425 7.44515L12.8163 6.81501C12.7178 6.71558 12.719 6.5555 12.8174 6.45847C12.9172 6.36017 13.0759 6.36018 13.1743 6.45973L13.7995 7.08861ZM12.7437 8.14438L12.3868 8.49979L10.4181 6.51611C9.6871 5.7805 8.62025 5.52213 7.63218 5.84179C7.50054 5.88483 7.35795 5.81272 7.31466 5.68108C7.27162 5.54767 7.34423 5.40521 7.47701 5.36204C8.64593 4.98297 9.91099 5.2893 10.7761 6.1607L12.7437 8.14438ZM10.6334 10.2545L10.2765 10.6115L8.29908 8.61922C8.20053 8.52093 8.20204 8.36085 8.30021 8.26205C8.40001 8.16376 8.55984 8.16502 8.65713 8.26382L10.6334 10.2545ZM11.6879 9.20016L11.331 9.55669L9.3585 7.56823C8.87749 7.08244 8.08978 7.07942 7.605 7.56093C7.12022 8.04307 7.11657 8.82965 7.59883 9.31418L8.86982 10.5966C8.96836 10.695 8.96836 10.8549 8.86868 10.9535C8.77014 11.0518 8.61018 11.0506 8.51177 10.9521L7.23978 9.67009C6.56294 8.98721 6.56659 7.88047 7.24959 7.2025C7.93247 6.52517 9.03997 6.52995 9.71668 7.21282L11.6879 9.20016ZM8.41725 12.259C8.41373 12.2615 8.40995 12.2625 8.40618 12.2652C8.25113 12.35 8.09356 12.424 7.93121 12.4868L6.18136 10.7223C5.08632 9.61874 4.93001 7.88978 5.80859 6.60961C5.88724 6.49559 6.04468 6.46589 6.15921 6.54467C6.27487 6.62346 6.30318 6.78115 6.2244 6.89643C5.4825 7.97586 5.6154 9.435 6.53954 10.3666L8.41725 12.259ZM11.8357 5.46939C11.7372 5.56642 11.576 5.56403 11.4776 5.46574C9.83598 3.81204 7.15609 3.80172 5.50239 5.44208C3.84982 7.0837 3.83874 9.7636 5.48024 11.4172L6.76481 12.7129C6.77349 12.7215 6.78205 12.7313 6.78696 12.7414C6.78079 12.7414 6.77475 12.7424 6.76859 12.7424C6.53475 12.7585 6.2984 12.7522 6.06583 12.7252L5.12206 11.7728C3.28499 9.9223 3.29607 6.9211 5.14673 5.08365C6.99864 3.24671 9.99859 3.25892 11.8357 5.1097L11.8392 5.11335C11.9378 5.21164 11.9352 5.37047 11.8357 5.46939ZM54.2306 15.3113C54.2306 15.4567 54.1166 15.5698 53.9699 15.5698C53.8177 15.5698 53.6982 15.4567 53.6982 15.3113C53.6982 15.1656 53.8176 15.0471 53.9699 15.0471C54.1166 15.047 54.2306 15.1656 54.2306 15.3113ZM45.0559 15.8392C44.9528 15.8392 44.9419 15.8016 44.9255 15.7369C44.9091 15.5862 45.0074 15.5212 45.1705 15.3489C45.2136 15.3058 45.2409 15.268 45.2409 15.225C45.2409 15.1331 45.1972 15.0902 45.1426 15.0849C45.0886 15.0795 44.9801 15.0956 44.9036 15.1332C44.8442 15.155 44.795 15.155 44.7569 15.0739L44.7356 15.0309C44.7029 14.9503 44.7569 14.9229 44.8113 14.8962C44.9417 14.8425 45.0284 14.8313 45.1315 14.8313C45.3437 14.8313 45.5178 14.9502 45.5123 15.2251C45.5123 15.4619 45.197 15.5595 45.1806 15.7371C45.1806 15.7801 45.1376 15.8289 45.0829 15.8394H45.0559V15.8392ZM61.7384 15.2626C61.6571 15.1386 61.679 15.1062 61.8257 15.1062H61.8797C62.0264 15.1062 62.0811 15.1386 62.1514 15.2679L62.3801 15.7045C62.4341 15.8123 62.4177 15.8391 62.2982 15.8391H62.2435C62.1405 15.8391 62.0646 15.7961 62.0101 15.7099L61.7384 15.2626ZM39.678 15.7101C39.624 15.7963 39.5476 15.8394 39.4445 15.8394H39.3905C39.2759 15.8394 39.2492 15.8126 39.3087 15.7047L39.5368 15.2679C39.6077 15.1389 39.6622 15.1063 39.8091 15.1063H39.8631C40.0098 15.1063 40.0317 15.1388 39.9498 15.2627L39.678 15.7101ZM52.7267 17.02C52.7267 16.6371 52.4872 16.4486 52.0148 16.4486C51.5315 16.4486 51.2925 16.637 51.2925 17.02V17.0844C51.2925 17.4724 51.4659 17.6665 52.0148 17.6665C52.5636 17.6665 52.7267 17.4724 52.7267 17.0844V17.02ZM59.392 17.7206C59.392 18.2381 59.5714 18.4698 60.1749 18.4698C60.7668 18.4698 60.9572 18.2381 60.9572 17.7206V17.2192C60.9572 16.702 60.7668 16.47 60.1749 16.47C59.5824 16.47 59.392 16.702 59.392 17.2192V17.7206ZM48.4131 17.5754H47.7776C47.2937 17.5754 47.071 17.7045 47.071 18.0439C47.071 18.3514 47.2718 18.5023 47.6793 18.5023C48.179 18.5023 48.4131 18.3889 48.4131 17.9845V17.5754ZM56.5066 17.5754H55.871C55.3877 17.5754 55.1645 17.7045 55.1645 18.0439C55.1645 18.3514 55.3658 18.5023 55.7733 18.5023C56.2731 18.5023 56.5066 18.3889 56.5066 17.9845V17.5754ZM53.7637 16.3137C53.7637 16.179 53.791 16.141 53.9378 16.141H53.9972C54.133 16.141 54.1712 16.1792 54.1712 16.3137V18.6264C54.1712 18.7717 54.133 18.7984 53.9972 18.7984H53.9378C53.791 18.7984 53.7637 18.7717 53.7637 18.6264V16.3137ZM62.0536 16.3137C62.0536 16.179 62.0919 16.141 62.2277 16.141H62.2871C62.4338 16.141 62.4611 16.1792 62.4611 16.3137V18.6264C62.4611 18.7717 62.4338 18.7984 62.2871 18.7984H62.2277C62.0919 18.7984 62.0536 18.7717 62.0536 18.6264V16.3137ZM39.2492 16.3138C39.2492 16.1792 39.2868 16.1412 39.4226 16.1412H39.4826C39.6294 16.1412 39.6561 16.1793 39.6561 16.3138V18.6264C39.6561 18.7719 39.6294 18.7987 39.4826 18.7987H39.4226C39.2868 18.7987 39.2492 18.772 39.2492 18.6264V16.3138ZM66.1107 15.1979C66.1107 15.0525 66.1495 15.0255 66.2848 15.0255H66.3448C66.4916 15.0255 66.5189 15.0525 66.5189 15.1979V16.4538C66.6813 16.2111 66.964 16.0874 67.3715 16.0874C68.0398 16.0874 68.3763 16.3999 68.3763 17.0306V18.6264C68.3763 18.7719 68.3496 18.7985 68.2023 18.7985H68.1373C67.9906 18.7985 67.9633 18.7719 67.9633 18.6264V17.0791C67.9633 16.6534 67.7735 16.4698 67.2683 16.4698C66.7468 16.4698 66.5187 16.675 66.5187 17.171V18.6264C66.5187 18.7719 66.4914 18.7985 66.3447 18.7985H66.2846C66.1494 18.7985 66.1106 18.7719 66.1106 18.6264V15.1979H66.1107ZM63.5582 18.6264C63.5582 18.7717 63.5309 18.7985 63.3841 18.7985H63.3241C63.1883 18.7985 63.1507 18.7717 63.1507 18.6264V17.0954C63.1507 16.4213 63.5309 16.0873 64.2865 16.0873C65.0845 16.0873 65.4163 16.4428 65.4163 17.0954V18.6264C65.4163 18.7717 65.389 18.7985 65.2422 18.7985H65.1768C65.0307 18.7985 65.0033 18.7717 65.0033 18.6264V17.0954C65.0033 16.664 64.8347 16.4698 64.2865 16.4698C63.737 16.4698 63.5582 16.6694 63.5582 17.0954V18.6264ZM38.1252 18.055C38.0438 18.3621 37.9567 18.5723 37.8535 18.6856C37.7502 18.7931 37.5872 18.8471 37.3536 18.8471C37.1201 18.8471 36.9516 18.7931 36.8484 18.6856C36.7453 18.5723 36.6583 18.3621 36.5768 18.055L35.914 15.478C35.8758 15.3326 35.9031 15.2951 36.055 15.2951H36.115C36.267 15.2951 36.3159 15.3324 36.3541 15.478L37.0167 18.1031C37.0874 18.3997 37.1637 18.4697 37.3536 18.4697C37.5332 18.4697 37.6146 18.3997 37.6851 18.1031L38.3479 15.478C38.3858 15.3326 38.4347 15.2951 38.5871 15.2951H38.6465C38.7986 15.2951 38.8259 15.3324 38.7878 15.478L38.1252 18.055ZM61.8426 15.6883C61.8426 15.8019 61.8043 15.8394 61.6903 15.8394H61.3641V17.7263C61.3641 18.4755 60.9675 18.8524 60.1749 18.8524C59.3543 18.8524 58.9851 18.4755 58.9851 17.7263V17.2248C58.9851 16.4647 59.3599 16.0876 60.1095 16.0876C60.5279 16.0876 60.8105 16.2165 60.9572 16.481V15.8392H60.2179C60.093 15.8392 60.0657 15.8017 60.0657 15.6882V15.6452C60.0657 15.532 60.093 15.4942 60.2179 15.4942H60.9572V15.1978C60.9572 15.0524 60.9839 15.0254 61.1306 15.0254H61.1907C61.3264 15.0254 61.3641 15.0524 61.3641 15.1978V15.4942H61.6903C61.8043 15.4942 61.8426 15.532 61.8426 15.6452V15.6883ZM41.6173 17.203C41.6173 16.4968 42.0031 16.0874 42.8291 16.0874C43.0085 16.0874 43.1662 16.1087 43.3075 16.1575C43.4373 16.2006 43.47 16.2384 43.47 16.3623V16.4164C43.47 16.5511 43.4373 16.5886 43.3075 16.5457C43.1717 16.4971 43.0134 16.47 42.84 16.47C42.2318 16.47 42.025 16.7072 42.025 17.2086V17.7316C42.025 18.2763 42.2694 18.4701 42.8727 18.4701C43.0571 18.4701 43.2202 18.4484 43.3615 18.4002C43.4865 18.3568 43.5246 18.4002 43.5246 18.535V18.5886C43.5246 18.7019 43.4864 18.7452 43.3506 18.7828C43.1984 18.8314 43.0304 18.8527 42.8454 18.8527C42.014 18.8527 41.6173 18.4969 41.6173 17.7372V17.203ZM48.82 18.0009C48.82 18.5991 48.4671 18.8524 47.6848 18.8524C47.0602 18.8524 46.6635 18.6046 46.6635 18.0438C46.6635 17.4834 47.0329 17.257 47.772 17.257H48.413V16.9334C48.413 16.5669 48.1632 16.4428 47.701 16.4428C47.462 16.4428 47.2614 16.4646 47.1037 16.502C46.9734 16.529 46.9297 16.4966 46.9297 16.3673V16.3243C46.9297 16.2002 46.9624 16.1678 47.0928 16.1408C47.2718 16.1034 47.4676 16.0872 47.6793 16.0872C48.4398 16.0872 48.82 16.3672 48.82 16.9333V18.0009ZM56.9141 18.0009C56.9141 18.5991 56.5612 18.8524 55.7788 18.8524C55.1541 18.8524 54.7575 18.6046 54.7575 18.0438C54.7575 17.4834 55.1268 17.257 55.8655 17.257H56.5064V16.9334C56.5064 16.5669 56.2566 16.4428 55.7951 16.4428C55.5561 16.4428 55.3549 16.4646 55.1972 16.502C55.0668 16.529 55.0231 16.4966 55.0231 16.3673V16.3243C55.0231 16.2002 55.0559 16.1678 55.1862 16.1408C55.3657 16.1034 55.5617 16.0872 55.7732 16.0872C56.5337 16.0872 56.9139 16.3672 56.9139 16.9333V18.0009H56.9141ZM44.3173 17.8448C44.3173 18.2705 44.4961 18.4699 45.0449 18.4699C45.5938 18.4699 45.7678 18.276 45.7678 17.8448V16.3137C45.7678 16.179 45.8055 16.141 45.9412 16.141H46.0013C46.148 16.141 46.1753 16.1792 46.1753 16.3137V17.8448C46.1753 18.4967 45.8436 18.8525 45.0449 18.8525C44.2899 18.8525 43.9096 18.5185 43.9096 17.8448V16.3137C43.9096 16.179 43.9479 16.141 44.0837 16.141H44.1431C44.2898 16.141 44.3171 16.1792 44.3171 16.3137V17.8448H44.3173ZM51.4823 18.7395C51.3143 18.8204 51.2269 18.9711 51.2269 19.1813C51.2269 19.5316 51.4283 19.6235 52.0146 19.6235C52.5798 19.6235 52.7969 19.5316 52.7969 19.1655C52.7969 18.8256 52.5962 18.7664 52.0146 18.7664C51.7812 18.7663 51.6017 18.7556 51.4823 18.7395ZM53.1396 17.0844C53.1396 17.7099 52.7642 18.0225 52.0146 18.0225C51.7211 18.0225 51.5314 18.0386 51.4391 18.0656C51.3518 18.0926 51.3087 18.1461 51.3087 18.2273C51.3087 18.3028 51.3518 18.3514 51.444 18.3781C51.5368 18.3998 51.7266 18.4105 52.0146 18.4105C52.4658 18.4105 52.7752 18.4643 52.9437 18.5778C53.1177 18.6858 53.2044 18.8742 53.2044 19.1492C53.2044 19.4564 53.1177 19.6665 52.9383 19.7908C52.7642 19.9147 52.455 19.974 52.0146 19.974C51.5641 19.974 51.2487 19.9147 51.0746 19.7908C50.906 19.6722 50.8193 19.4832 50.8193 19.2248C50.8193 18.9658 50.9224 18.772 51.1237 18.6478C50.977 18.5779 50.9006 18.4594 50.9006 18.2922C50.9006 18.0551 51.0473 17.9149 51.3408 17.8718C51.0364 17.7477 50.8847 17.4838 50.8847 17.0847V17.0202C50.8847 16.4326 51.3032 16.0878 52.0145 16.0878C52.2267 16.0878 52.4111 16.1252 52.5743 16.1954L52.8841 15.9205C52.9763 15.8396 53.0194 15.8396 53.1067 15.9205L53.1443 15.958C53.2316 16.039 53.2316 16.082 53.1443 16.1682L52.8999 16.4165C53.0576 16.5619 53.1394 16.7615 53.1394 17.0202V17.0844H53.1396Z" fill="#009EDB"/>
    </symbol>

    <symbol id="icon-checkout-shoppe" viewBox="0 0 47 20">
        <path d="M15.1757 0.00431367L1.52827 1.82318C1.52827 1.82318 0.924805 1.89607 0.924805 2.61989V15.5808C0.924805 15.5808 1.00448 17.1064 2.74198 17.1064H18.2083C18.2083 17.1064 19.5881 16.7674 19.5881 15.3977V4.69133C19.5881 4.69133 19.6152 3.17419 17.7947 3.17419H2.87759C2.70211 3.13681 2.54076 3.05062 2.41211 2.92557C2.28345 2.80052 2.19273 2.64167 2.15038 2.46733C2.10631 2.22662 2.20293 2.20289 2.4572 2.20289H16.1538V0.728132C16.1538 0.728132 16.1063 -0.0651864 15.1757 0.00431367Z" fill="#ED4C2F"/>
        <path d="M10.533 14.8994C9.40234 14.8994 8.56834 14.4383 7.33938 13.2212C7.28729 13.1697 7.24586 13.1084 7.21746 13.0409C7.18905 12.9733 7.17423 12.9008 7.17384 12.8276C7.17304 12.6796 7.23106 12.5373 7.33514 12.4321C7.43922 12.3269 7.58082 12.2674 7.7288 12.2666C7.87678 12.2658 8.01902 12.3238 8.12422 12.4279C9.4193 13.7077 10.0194 14.0264 11.0534 13.745C11.6535 13.5755 12.1942 12.8161 12.2247 11.938C12.2502 11.26 11.767 10.8091 10.794 10.6141C9.04467 10.2649 8.01234 9.59705 7.72587 8.62574C7.49533 7.84429 7.79706 6.973 8.55648 6.23392L8.58699 6.2068C10.2177 4.8507 12.1112 5.8593 12.8841 6.58651C12.9899 6.68816 13.0514 6.82742 13.0553 6.97411C13.0591 7.12079 13.005 7.26308 12.9046 7.37013C12.8043 7.47718 12.6658 7.54037 12.5191 7.54599C12.3725 7.55161 12.2296 7.49922 12.1213 7.40017C12.0552 7.33914 10.5957 6.00847 9.31928 7.04928C8.88533 7.47984 8.69039 7.94939 8.79719 8.31045C8.95144 8.83594 9.73798 9.2648 11.0127 9.52077C13.1774 9.95302 13.3622 11.3854 13.3401 11.9787C13.2943 13.2738 12.2112 14.7248 11.1941 14.8604C10.9747 14.8869 10.7539 14.8999 10.533 14.8994V14.8994Z" fill="white"/>
        <path d="M25.3276 3.09793C25.0806 2.94773 24.8135 2.83357 24.5343 2.7589C23.9596 2.58939 23.5426 2.38258 23.3477 2.11306C23.1782 1.87913 23.1782 1.57401 23.3816 1.18583C23.5036 0.951899 23.7935 0.802728 24.1698 0.773911C24.6423 0.755512 25.111 0.865652 25.5259 1.0926C25.5556 1.10751 25.588 1.11642 25.6212 1.11883C25.6543 1.12124 25.6876 1.11709 25.7192 1.10662C25.7507 1.09615 25.7799 1.07957 25.8051 1.05782C25.8302 1.03608 25.8509 1.00959 25.8658 0.979869C25.8807 0.950151 25.8896 0.917787 25.892 0.884623C25.8944 0.85146 25.8903 0.818146 25.8798 0.786586C25.8693 0.755026 25.8528 0.725838 25.831 0.700686C25.8093 0.675534 25.7828 0.654911 25.7531 0.639996C25.2537 0.368911 24.69 0.238824 24.1223 0.263679C23.5697 0.306057 23.1375 0.546764 22.9256 0.941728C22.6069 1.52994 22.6272 2.01305 22.9256 2.41649C23.2019 2.77755 23.7053 3.05385 24.3919 3.2454C24.6292 3.30987 24.8572 3.40503 25.0699 3.52849C25.3024 3.6535 25.4889 3.84948 25.6022 4.08788C25.6842 4.28108 25.6968 4.4967 25.6378 4.69812C25.6047 4.80264 25.5592 4.90281 25.5022 4.99646C25.5022 5.01002 25.4886 5.02359 25.4751 5.04562C25.3699 5.19603 25.2282 5.31724 25.0634 5.39789C24.8985 5.47854 24.7159 5.51598 24.5326 5.5067C24.0851 5.5067 23.5392 5.33718 22.9595 4.97443C22.8799 4.92908 22.8029 4.87928 22.729 4.82526C22.6725 4.78749 22.6034 4.77369 22.5368 4.78688C22.4702 4.80007 22.4116 4.83918 22.3738 4.8956C22.3361 4.95203 22.3223 5.02114 22.3354 5.08774C22.3486 5.15434 22.3878 5.21297 22.4442 5.25073C22.5374 5.31515 22.6137 5.36431 22.6866 5.42024C23.3528 5.82538 23.9833 6.02371 24.5207 6.02371C24.7876 6.03661 25.0534 5.9811 25.2928 5.86243C25.5322 5.74376 25.7373 5.56588 25.8887 5.34566C25.9008 5.32132 25.9149 5.29807 25.931 5.27616C26.0127 5.14048 26.076 4.99455 26.1192 4.84221C26.2145 4.52926 26.1947 4.19253 26.0633 3.89294C25.9071 3.55762 25.6498 3.27961 25.3276 3.09793Z" fill="#ED4C2F"/>
        <path d="M29.2332 2.53853C28.9429 2.46643 28.6383 2.47641 28.3534 2.56735C28.0285 2.66807 27.729 2.83745 27.4753 3.06402V0.504387C27.4681 0.44201 27.4382 0.38446 27.3913 0.342687C27.3445 0.300914 27.2839 0.277832 27.2211 0.277832C27.1583 0.277832 27.0977 0.300914 27.0508 0.342687C27.0039 0.38446 26.974 0.44201 26.9668 0.504387V5.76944C26.974 5.83182 27.0039 5.88937 27.0508 5.93114C27.0977 5.97291 27.1583 5.99599 27.2211 5.99599C27.2839 5.99599 27.3445 5.97291 27.3913 5.93114C27.4382 5.88937 27.4681 5.83182 27.4753 5.76944V3.80818L27.4889 3.79462C27.7488 3.45493 28.1023 3.19862 28.506 3.05724C28.7006 2.99354 28.9093 2.98649 29.1077 3.0369C29.2672 3.07734 29.4085 3.1698 29.5095 3.29964C29.6192 3.47004 29.6736 3.67012 29.6654 3.8726V5.75757C29.6613 5.79343 29.6648 5.82976 29.6757 5.86417C29.6865 5.89859 29.7046 5.93031 29.7286 5.95726C29.7526 5.98421 29.782 6.00578 29.815 6.02054C29.8479 6.03531 29.8836 6.04295 29.9197 6.04295C29.9558 6.04295 29.9915 6.03531 30.0244 6.02054C30.0574 6.00578 30.0868 5.98421 30.1108 5.95726C30.1348 5.93031 30.1529 5.89859 30.1637 5.86417C30.1746 5.82976 30.1781 5.79343 30.174 5.75757V3.87768C30.1823 3.56969 30.0926 3.267 29.918 3.01317C29.752 2.78004 29.5098 2.61217 29.2332 2.53853V2.53853Z" fill="#ED4C2F"/>
        <path d="M32.6764 2.4894C32.268 2.49129 31.8729 2.63479 31.5584 2.89542C31.244 3.15605 31.0297 3.51768 30.9521 3.91864C30.8745 4.31961 30.9383 4.73508 31.1328 5.09422C31.3273 5.45336 31.6403 5.73393 32.0185 5.88809C32.3967 6.04225 32.8166 6.06045 33.2068 5.93959C33.5969 5.81873 33.933 5.56629 34.1578 5.22532C34.3826 4.88435 34.4822 4.47596 34.4395 4.06978C34.3969 3.6636 34.2147 3.28479 33.924 2.99793C33.5916 2.67024 33.1431 2.48742 32.6764 2.4894ZM33.5782 5.14735C33.3397 5.38166 33.0192 5.51363 32.6848 5.51519C32.3936 5.51431 32.1116 5.4125 31.8869 5.22708C31.6623 5.04167 31.5088 4.78411 31.4527 4.49828C31.3966 4.21245 31.4414 3.916 31.5793 3.65943C31.7172 3.40286 31.9397 3.20202 32.2091 3.09111C32.4784 2.9802 32.7779 2.96608 33.0565 3.05116C33.3351 3.13623 33.5756 3.31524 33.737 3.5577C33.8984 3.80016 33.9708 4.09108 33.9419 4.38093C33.9129 4.67077 33.7844 4.94162 33.5782 5.14735V5.14735Z" fill="#ED4C2F"/>
        <path d="M36.9783 2.48934C36.5115 2.48681 36.0628 2.66972 35.7307 2.99788C35.7104 3.01479 35.6917 3.03352 35.6748 3.05382V2.73514C35.6676 2.67276 35.6377 2.61521 35.5908 2.57344C35.5439 2.53166 35.4833 2.50858 35.4205 2.50858C35.3577 2.50858 35.2971 2.53166 35.2502 2.57344C35.2034 2.61521 35.1735 2.67276 35.1662 2.73514V7.7527C35.1621 7.78856 35.1656 7.82489 35.1765 7.8593C35.1874 7.89372 35.2054 7.92544 35.2294 7.95239C35.2534 7.97934 35.2829 8.00091 35.3158 8.01567C35.3487 8.03044 35.3844 8.03807 35.4205 8.03807C35.4566 8.03807 35.4923 8.03044 35.5252 8.01567C35.5582 8.00091 35.5876 7.97934 35.6116 7.95239C35.6356 7.92544 35.6537 7.89372 35.6646 7.8593C35.6754 7.82489 35.6789 7.78856 35.6748 7.7527V5.44394C35.6951 5.46147 35.7138 5.48076 35.7307 5.50158C35.9359 5.70682 36.1886 5.85829 36.4663 5.94256C36.744 6.02683 37.0382 6.04131 37.3228 5.9847C37.6075 5.9281 37.8738 5.80216 38.0981 5.61805C38.3225 5.43395 38.4979 5.19735 38.609 4.92922C38.72 4.66109 38.7632 4.3697 38.7348 4.08089C38.7063 3.79207 38.6071 3.51473 38.4458 3.27344C38.2845 3.03215 38.0662 2.83436 37.8103 2.69759C37.5543 2.56082 37.2686 2.48929 36.9783 2.48934V2.48934ZM37.8649 5.1473C37.6274 5.38311 37.3062 5.51544 36.9716 5.51544C36.6369 5.51544 36.3157 5.38311 36.0782 5.1473C35.9023 4.97075 35.7826 4.74602 35.7343 4.5015C35.686 4.25697 35.7112 4.00362 35.8068 3.77342C35.9024 3.54323 36.064 3.34652 36.2713 3.20813C36.4786 3.06975 36.7223 2.99589 36.9716 2.99589C37.2208 2.99589 37.4645 3.06975 37.6718 3.20813C37.8791 3.34652 38.0407 3.54323 38.1363 3.77342C38.2319 4.00362 38.2571 4.25697 38.2088 4.5015C38.1605 4.74602 38.0408 4.97075 37.8649 5.1473Z" fill="#ED4C2F"/>
        <path d="M42.2586 2.96064C42.1128 2.81138 41.9385 2.69303 41.746 2.61265C41.5534 2.53226 41.3467 2.4915 41.1381 2.49279C40.9294 2.48913 40.7222 2.52882 40.5296 2.60935C40.3371 2.68989 40.1633 2.8095 40.0193 2.96064C39.4091 3.62004 39.4158 4.3286 39.6566 5.04395C39.7644 5.34903 39.9755 5.60684 40.2532 5.77285C40.5347 5.94987 40.8635 6.0368 41.1957 6.02203C41.6012 6.00608 42.0002 5.91468 42.3721 5.75251C42.4316 5.72453 42.478 5.6746 42.5014 5.6132C42.5249 5.5518 42.5237 5.4837 42.498 5.42318C42.4724 5.36267 42.4243 5.31443 42.3638 5.28861C42.3034 5.26278 42.2353 5.26136 42.1738 5.28465C41.8635 5.42669 41.5283 5.50618 41.1873 5.51858C40.9541 5.52693 40.7234 5.46809 40.5228 5.34907C40.3432 5.22723 40.2043 5.05418 40.1244 4.8524C40.0707 4.70072 40.0327 4.54395 40.0108 4.38454H42.3569C42.4857 4.38454 42.9027 4.41336 42.684 3.70649C42.6071 3.42611 42.4607 3.16961 42.2586 2.96064V2.96064ZM40.0397 3.86753C40.1055 3.66024 40.2221 3.47264 40.3787 3.3217C40.4788 3.22145 40.5977 3.14192 40.7286 3.08765C40.8595 3.03339 40.9998 3.00546 41.1415 3.00546C41.2832 3.00546 41.4235 3.03339 41.5544 3.08765C41.6853 3.14192 41.8042 3.22145 41.9043 3.3217C42.056 3.47651 42.1718 3.66288 42.2433 3.86753H40.0397Z" fill="#ED4C2F"/>
        <path d="M46.5523 3.69461C46.4735 3.41731 46.3253 3.16469 46.1217 2.96062C45.9764 2.81125 45.8024 2.69281 45.6101 2.61242C45.4179 2.53202 45.2113 2.49132 45.0029 2.49276C44.794 2.48928 44.5866 2.52905 44.3938 2.60956C44.201 2.69008 44.0269 2.8096 43.8825 2.96062C43.2739 3.62002 43.2807 4.32858 43.5214 5.04392C43.6292 5.34853 43.8395 5.6062 44.1164 5.77283C44.3981 5.94945 44.7267 6.03635 45.0589 6.02201C45.4644 6.00606 45.8633 5.91466 46.2353 5.75249C46.2673 5.74036 46.2965 5.7219 46.3212 5.69821C46.3459 5.67452 46.3656 5.64609 46.379 5.61463C46.3925 5.58316 46.3994 5.5493 46.3995 5.51508C46.3995 5.48086 46.3927 5.44698 46.3793 5.41548C46.3659 5.38397 46.3464 5.35548 46.3217 5.33173C46.2971 5.30797 46.2679 5.28942 46.236 5.2772C46.204 5.26499 46.1699 5.25935 46.1357 5.26062C46.1015 5.2619 46.0679 5.27007 46.037 5.28463C45.7273 5.42662 45.3926 5.50612 45.0521 5.51856C44.8184 5.52686 44.5872 5.46803 44.3859 5.34905C44.2068 5.22711 44.0686 5.05403 43.9893 4.85238C43.9356 4.7007 43.8975 4.54393 43.8757 4.38452H46.2217C46.354 4.38113 46.7726 4.40995 46.5523 3.69461ZM43.9096 3.86412C43.9753 3.65677 44.0919 3.46914 44.2486 3.31829C44.3487 3.21804 44.4676 3.1385 44.5985 3.08424C44.7294 3.02998 44.8697 3.00205 45.0114 3.00205C45.1531 3.00205 45.2934 3.02998 45.4243 3.08424C45.5552 3.1385 45.6741 3.21804 45.7742 3.31829C45.9259 3.47317 46.0416 3.65952 46.1132 3.86412H43.9096Z" fill="#ED4C2F"/>
        <path d="M26.1719 7.28315H22.502V17.0979H23.992V14.1687H26.3312C27.117 14.1763 27.8904 13.9726 28.5705 13.5788C29.3723 13.1042 30.1758 12.2668 30.1758 10.8192C30.1822 10.2754 30.0525 9.73869 29.7985 9.25787C29.5445 8.77705 29.1742 8.36743 28.7214 8.0663C27.9728 7.54821 27.0822 7.27464 26.1719 7.28315ZM26.6397 12.5974H23.992V8.75113H26.3804C26.4216 8.74855 26.4629 8.74855 26.5041 8.75113C26.8686 8.79181 28.4586 9.06642 28.4586 10.7717C28.4586 12.5974 26.6397 12.5974 26.6397 12.5974Z" fill="#ED4C2F"/>
        <path d="M36.075 10.1225V10.8124C35.5599 10.3944 34.9369 10.1308 34.2782 10.0523C33.6195 9.97374 32.952 10.0835 32.3531 10.3687C31.7542 10.654 31.2483 11.1031 30.8942 11.664C30.54 12.225 30.3521 12.8748 30.3521 13.5382C30.3521 14.2016 30.54 14.8514 30.8942 15.4123C31.2483 15.9733 31.7542 16.4224 32.3531 16.7077C32.952 16.9929 33.6195 17.1026 34.2782 17.0241C34.9369 16.9456 35.5599 16.682 36.075 16.2639V17.0505H37.5633V10.1225H36.075ZM33.8714 15.7469C33.4359 15.7469 33.0102 15.6179 32.648 15.3761C32.2857 15.1344 32.0033 14.7907 31.8363 14.3885C31.6692 13.9864 31.6251 13.5437 31.7094 13.1165C31.7938 12.6892 32.0028 12.2966 32.3102 11.988C32.6175 11.6795 33.0094 11.469 33.4363 11.383C33.8632 11.297 34.306 11.3394 34.7088 11.5049C35.1116 11.6704 35.4564 11.9516 35.6995 12.3128C35.9427 12.6741 36.0733 13.0993 36.075 13.5348C36.0761 13.8253 36.0198 14.1132 35.9092 14.3819C35.7987 14.6506 35.6361 14.8947 35.4308 15.1003C35.2255 15.3059 34.9816 15.4689 34.7131 15.5799C34.4446 15.6908 34.1568 15.7476 33.8663 15.7469H33.8714Z" fill="#ED4C2F"/>
        <path d="M38.2329 10.0276H40.2247L42.5606 14.4993L44.8151 10.0276H46.6153L41.257 20H39.5043L41.5469 16.2978L38.2329 10.0276Z" fill="#ED4C2F"/>
    </symbol>

    <symbol id="icon-free-gift" viewBox="0 0 75 78">
        <path fill-rule="evenodd" clip-rule="evenodd" d="M6.02457 35.2696C7.10428 35.2696 7.97955 36.1392 7.97955 37.2119V68.2885C7.97955 71.5066 10.6054 74.1154 13.8445 74.1154H60.7642C64.0033 74.1154 66.6292 71.5066 66.6292 68.2885V37.2119C66.6292 36.1392 67.5045 35.2696 68.5842 35.2696C69.6639 35.2696 70.5391 36.1392 70.5391 37.2119V68.2885C70.5391 73.652 66.1628 78 60.7642 78H13.8445C8.44597 78 4.06958 73.652 4.06958 68.2885V37.2119C4.06958 36.1392 4.94486 35.2696 6.02457 35.2696Z" />
        <path fill-rule="evenodd" clip-rule="evenodd" d="M12.2087 11.8696C12.2087 5.31419 17.4144 0 23.836 0C32.3981 0 39.3391 7.08558 39.3391 15.8261V21.7609C39.3391 22.8534 38.4715 23.7391 37.4012 23.7391H23.836C17.4144 23.7391 12.2087 18.4249 12.2087 11.8696ZM23.836 3.95652C19.5549 3.95652 16.0845 7.49931 16.0845 11.8696C16.0845 16.2398 19.5549 19.7826 23.836 19.7826H35.4633V15.8261C35.4633 9.27071 30.2576 3.95652 23.836 3.95652Z" />
        <path fill-rule="evenodd" clip-rule="evenodd" d="M63.0782 11.8696C63.0782 5.31419 57.7424 0 51.1602 0C42.3841 0 35.2696 7.08558 35.2696 15.8261V21.7609C35.2696 22.8534 36.1589 23.7391 37.2559 23.7391H51.1602C57.7424 23.7391 63.0782 18.4249 63.0782 11.8696ZM51.1602 3.95652C55.5483 3.95652 59.1056 7.49931 59.1056 11.8696C59.1056 16.2398 55.5483 19.7826 51.1602 19.7826H39.2422V15.8261C39.2422 9.27071 44.5781 3.95652 51.1602 3.95652Z" />
        <path fill-rule="evenodd" clip-rule="evenodd" d="M0 21.6365C0 20.5502 0.879038 19.6696 1.96339 19.6696H72.6453C73.7297 19.6696 74.6087 20.5502 74.6087 21.6365V37.3722C74.6087 38.4585 73.7297 39.3391 72.6453 39.3391H1.96339C0.879038 39.3391 0 38.4585 0 37.3722V21.6365ZM3.92677 23.6035V35.4052H70.6819V23.6035H3.92677Z"/>
        <path fill-rule="evenodd" clip-rule="evenodd" d="M37.3044 35.2696C38.4282 35.2696 39.3392 36.1392 39.3392 37.2119V76.0577C39.3392 77.1304 38.4282 78 37.3044 78C36.1806 78 35.2696 77.1304 35.2696 76.0577V37.2119C35.2696 36.1392 36.1806 35.2696 37.3044 35.2696Z" />
    </symbol>

    <symbol id="icon-theme-checked" viewBox="0 0 15 15">
        <rect x="0.25" y="0.25" width="14.5" height="14.5" rx="4.75"   stroke-width="0.5"/>
        <path d="M9.283 5.17083C9.39033 5.06255 9.53619 5.00114 9.68869 5.00002C9.84119 4.99889 9.98793 5.05815 10.0968 5.16484C10.2058 5.27152 10.268 5.41696 10.27 5.56937C10.2719 5.72178 10.2134 5.86876 10.1073 5.9782L7.03586 9.81575C6.98309 9.87253 6.91942 9.9181 6.84864 9.94974C6.77787 9.98138 6.70144 9.99844 6.62392 9.9999C6.5464 10.0014 6.46938 9.98719 6.39746 9.95825C6.32554 9.9293 6.26019 9.88616 6.20532 9.83141L4.16895 7.79693C4.06074 7.68873 3.99996 7.54199 4 7.389C4.00004 7.23601 4.06088 7.0893 4.16915 6.98114C4.27741 6.87299 4.42423 6.81225 4.5773 6.81229C4.73038 6.81232 4.87717 6.87313 4.98538 6.98134L6.59591 8.59138L9.26772 5.18884C9.27257 5.18265 9.27781 5.17676 9.28339 5.17122L9.283 5.17083Z" fill="white"/>
    </symbol>

    <symbol id="icon-theme-close" viewBox="0 0 14 14">
        <path d="M1 1L13 13M1 13L13 1" stroke="black" stroke-linecap="round" stroke-linejoin="round"/>
    </symbol>

    <symbol id="icon-theme-check" viewBox="0 0 15 16">
        <path d="M7.09654 0.5H7.76618C7.81473 0.50971 7.86295 0.522433 7.91183 0.528795C8.24833 0.575 8.58783 0.604464 8.92098 0.667076C11.9625 1.23828 14.1948 3.49498 14.7305 6.54018C14.7864 6.85759 14.8212 7.17868 14.8644 7.49777V8.50223C14.855 8.54509 14.843 8.58761 14.8363 8.6308C14.778 9.01618 14.7449 9.40692 14.6595 9.78594C13.9858 12.7725 11.7295 14.891 8.72377 15.3694C8.40569 15.42 8.0856 15.4568 7.76618 15.5H7.09654L6.56886 15.433C5.44922 15.2954 4.38985 14.973 3.4279 14.3747C1.59275 13.2326 0.540737 11.5592 0.133929 9.45848C0.0729911 9.14275 0.0428571 8.82232 0 8.50156V7.49777C0.0545759 7.12946 0.0964287 6.75882 0.165402 6.39286C0.732924 3.38181 3.09107 1.10268 6.12522 0.633929C6.44598 0.582701 6.77176 0.544196 7.09654 0.5ZM1.049 8.17377C1.08583 8.46406 1.11395 8.93984 1.20937 9.40156C1.53716 10.9879 2.31864 12.3065 3.66127 13.2359C5.19241 14.2956 6.89498 14.6388 8.72511 14.2826C10.2291 13.9896 11.5041 13.2845 12.4416 12.0544C13.7327 10.3585 14.0823 8.44163 13.6035 6.38683C13.1719 4.53862 12.1148 3.13504 10.3992 2.28359C9.15502 1.66652 7.83583 1.44453 6.44833 1.6635C5.26641 1.85067 4.18929 2.27422 3.27522 3.05536C1.76417 4.34844 1.10525 6.03292 1.049 8.17377Z" />
        <path d="M5.99521 9.88883C6.06987 9.78838 6.10637 9.72142 6.15693 9.6722C7.69007 8.13704 9.22858 6.60724 10.7554 5.06572C11.1274 4.69039 11.5439 4.92309 11.6731 5.21639C11.7518 5.39452 11.7351 5.56461 11.6138 5.71863C11.5714 5.77032 11.5259 5.8194 11.4776 5.86561C9.80548 7.5386 8.13304 9.21093 6.46028 10.8826C6.1211 11.2218 5.85525 11.2207 5.51508 10.8806C4.78561 10.1511 4.05615 9.42142 3.32668 8.69151C3.02534 8.38849 3.11139 7.95925 3.50314 7.79351C3.73517 7.69541 3.923 7.77075 4.09209 7.94017C4.67802 8.52945 5.26519 9.1174 5.85358 9.70401C5.90396 9.76311 5.95124 9.82481 5.99521 9.88883Z" />
    </symbol>

    <symbol id="icon-theme-warning" viewBox="0 0 18 16">
        <path d="M1.63631 15.4992C1.56835 15.4796 1.50078 15.4599 1.43203 15.4407C1.14124 15.3677 0.871934 15.2268 0.646306 15.0294C0.420679 14.8319 0.245181 14.5838 0.134269 14.3052C0.0233575 14.0267 -0.0197942 13.7258 0.00836919 13.4273C0.0365326 13.1289 0.135205 12.8414 0.296258 12.5885C1.55656 10.5603 2.81988 8.53414 4.08621 6.51011C5.14301 4.81635 6.20033 3.12298 7.25818 1.43C7.87184 0.452165 9.11446 0.203876 10.0141 0.884315C10.211 1.03489 10.3795 1.21943 10.5115 1.42922C12.8393 5.14465 15.1598 8.86441 17.473 12.5885C17.6262 12.836 17.6836 13.1432 17.7873 13.4225V13.7761C17.7736 13.8315 17.759 13.8873 17.748 13.9431C17.5885 14.6793 17.1524 15.17 16.4398 15.4151C16.3424 15.4485 16.2434 15.4721 16.142 15.5L1.63631 15.4992ZM8.88621 14.2452H14.5686C15.0062 14.2452 15.4439 14.2479 15.8811 14.2452C16.1876 14.2424 16.4115 14.0739 16.5011 13.7977C16.5722 13.5789 16.5058 13.3907 16.3899 13.2057C15.2283 11.3461 14.0677 9.48658 12.9079 7.62702C11.7673 5.79995 10.6255 3.97444 9.48257 2.15051C9.38645 1.99819 9.24971 1.87573 9.08775 1.79694C8.79114 1.66415 8.50356 1.80361 8.30202 2.12773C7.20908 3.87544 6.11718 5.62434 5.02633 7.37441C3.81395 9.31725 2.60132 11.2597 1.38842 13.2018C1.25917 13.4084 1.19827 13.6158 1.29099 13.8496C1.39274 14.1069 1.62256 14.2448 1.94982 14.2452H8.88621Z" />
        <path d="M9.70189 6.36785C9.62686 7.19993 9.56282 7.92791 9.49525 8.65549C9.45596 9.09746 9.41196 9.53904 9.3601 9.97944C9.34243 10.0955 9.30802 10.2084 9.25796 10.3146C9.17939 10.4949 9.03049 10.5793 8.83406 10.5687C8.64666 10.5585 8.50209 10.4682 8.45455 10.2847C8.38623 10.047 8.33877 9.80383 8.31273 9.5579C8.23102 8.5231 8.15925 7.48764 8.09744 6.45153C8.08069 6.21765 8.0983 5.98258 8.14969 5.7538C8.26009 5.29651 8.75313 5.04901 9.19746 5.20105C9.37503 5.26194 9.50704 5.37862 9.5475 5.56641C9.61193 5.86459 9.66497 6.16553 9.70189 6.36785Z" />
        <path d="M8.90112 13.0416C8.74881 13.0418 8.59985 12.9969 8.47297 12.9126C8.34608 12.8284 8.24692 12.7085 8.18795 12.568C8.12898 12.4276 8.11283 12.2729 8.14152 12.1233C8.17021 11.9737 8.24247 11.8359 8.34922 11.7273C8.45597 11.6186 8.59244 11.5439 8.7415 11.5126C8.89056 11.4813 9.04555 11.4947 9.18701 11.5512C9.32846 11.6077 9.45007 11.7047 9.53656 11.8301C9.62304 11.9555 9.67055 12.1036 9.6731 12.2559C9.67482 12.3584 9.65613 12.4602 9.61811 12.5554C9.5801 12.6506 9.52352 12.7373 9.45168 12.8104C9.37983 12.8836 9.29415 12.9417 9.19963 12.9814C9.10511 13.021 9.00364 13.0415 8.90112 13.0416Z" />
    </symbol>

    <symbol id="icon-theme-error" viewBox="0 0 80 80">
        <path d="M41.4523 80H37.887C36.9486 79.8818 36.0085 79.7618 35.0701 79.6418C29.089 78.913 23.4356 77.1975 18.3033 73.9974C8.50966 67.9088 2.90281 58.9748 0.725253 47.7647C0.399336 46.0778 0.23817 44.3622 0 42.6574V37.2959C0.0501411 37.0667 0.11103 36.8375 0.148636 36.6065C0.519321 34.2892 0.718089 31.929 1.28397 29.6619C3.76416 19.7161 9.08628 11.6667 17.8771 6.24964C27.5006 0.318667 37.9335 -1.39508 49.0004 1.1263C57.861 3.14627 65.3571 7.48168 70.8887 14.7629C78.7931 25.1672 81.0011 36.9234 78.2147 49.5644C74.7066 65.4842 62.5707 76.7587 46.5667 79.3016C44.8709 79.572 43.1571 79.769 41.4523 80ZM5.60864 40.9222C5.80383 42.4622 5.95426 44.9997 6.46462 47.4638C8.21598 55.9305 12.3866 62.9646 19.5532 67.9232C27.7262 73.5766 36.8125 75.4067 46.5793 73.5014C54.6054 71.9362 61.4139 68.1703 66.4101 61.6054C73.2973 52.5531 75.1633 42.3244 72.6007 31.3596C70.2996 21.5051 64.6533 14.009 55.4972 9.46762C48.8571 6.17622 41.8159 4.99074 34.4201 6.16368C28.113 7.16292 22.3647 9.42643 17.4903 13.5971C9.41398 20.4987 5.90232 29.4882 5.60864 40.9222Z" />
        <path d="M39.5524 36.071C43.7409 31.8771 47.711 27.8909 51.6937 23.9154C53.1263 22.4828 55.0782 22.6923 56.1849 24.3631C56.9818 25.5629 56.8492 26.8182 55.7605 27.9159C53.0373 30.6618 50.3028 33.3998 47.557 36.1301C46.3035 37.3837 45.0267 38.6372 43.7212 39.9355C43.9952 40.2292 44.2065 40.4727 44.4375 40.6948C48.2184 44.4864 52.0041 48.278 55.7945 52.0696C56.7579 53.0384 56.9424 54.1361 56.3908 55.2446C55.8214 56.3925 54.6001 57.1858 53.4235 56.9369C52.7406 56.7696 52.1156 56.4206 51.6149 55.9269C47.8543 52.2326 44.1421 48.4935 40.4227 44.7598C40.2009 44.496 40.0004 44.2152 39.8228 43.9199C39.4145 44.3013 39.1745 44.5144 38.9489 44.7401C35.1573 48.5281 31.365 52.3161 27.5722 56.1042C26.6052 57.0676 25.5039 57.2503 24.3972 56.6987C23.2493 56.1275 22.4578 54.908 22.7067 53.7314C22.8741 53.0485 23.2231 52.4235 23.7167 51.9228C27.4128 48.1622 31.1501 44.45 34.8839 40.7306C35.148 40.5082 35.4287 40.3065 35.7237 40.1271C35.3459 39.7224 35.1328 39.4842 34.9071 39.2568C31.1191 35.4664 27.3311 31.6753 23.543 27.8837C22.5796 26.9149 22.3916 25.8136 22.9413 24.7105C23.5162 23.559 24.7321 22.7657 25.9068 23.0147C26.5909 23.1809 27.2171 23.5293 27.7191 24.0228C31.4796 27.7172 35.1919 31.4563 38.9113 35.19C39.1459 35.4679 39.3601 35.7623 39.5524 36.071Z" />
    </symbol>

    <symbol id="icon-theme-info" viewBox="0 0 80 80">
        <path d="M43.0826 45.3011C43.0826 49.2656 43.0987 53.23 43.0826 57.1945C43.0872 58.0232 42.7878 58.8249 42.2409 59.4476C41.6941 60.0703 40.9379 60.4709 40.1155 60.5734C39.2932 60.6814 38.4597 60.4866 37.7705 60.0254C37.0812 59.5641 36.5833 58.8679 36.3695 58.0665C36.2808 57.6906 36.2411 57.3048 36.2513 56.9187C36.2442 49.139 36.2442 41.3587 36.2513 33.5778C36.2513 31.4094 37.6606 29.9232 39.6732 29.9232C41.6859 29.9232 43.088 31.4076 43.0933 33.5778C43.1041 37.4832 43.0933 41.3886 43.0933 45.2939L43.0826 45.3011Z" />
        <path d="M43.3315 22.929C43.2491 23.4858 43.2939 24.109 43.0504 24.5817C42.7871 25.0921 42.3019 25.751 41.8256 25.8352C40.5596 26.0572 39.2471 26.0142 37.9524 26.0554C37.8328 26.0498 37.7159 26.0174 37.6104 25.9605C35.6855 25.0867 36.0311 23.3659 36.0902 21.783C36.1385 20.4794 36.7617 19.7721 38.0993 19.5644C39.0086 19.4151 39.9322 19.3718 40.8515 19.4354C42.6081 19.5769 43.353 20.7068 43.3315 22.929Z" />
        <path d="M41.4496 80H37.8683C36.93 79.8818 35.9899 79.7618 35.0516 79.6419C29.0781 78.9077 23.425 77.1869 18.2931 73.9924C8.50013 67.9043 2.89366 58.9708 0.716253 47.7615C0.390358 46.0747 0.229201 44.3593 0 42.6546V37.2934C0.0501377 37.0642 0.111011 36.835 0.148615 36.604C0.519275 34.2869 0.718051 31.9269 1.28389 29.66C3.76392 19.7148 9.08567 11.6659 17.8759 6.24923C27.4987 0.318654 37.931 -1.39499 48.9971 1.12622C57.8571 3.14605 65.3527 7.48118 70.884 14.7619C78.7878 25.1655 80.9957 36.921 78.2094 49.561C74.7016 65.4798 62.5665 76.7536 46.5636 79.2963C44.8643 79.572 43.1542 79.769 41.4496 80ZM5.60826 40.9248C5.80344 42.4648 5.95385 45.0021 6.46418 47.466C8.21542 55.9321 12.3858 62.9657 19.5519 67.924C27.7244 73.577 36.81 75.407 46.5761 73.5018C54.6017 71.9368 61.4097 68.1711 66.4056 61.6066C73.2924 52.555 75.1582 42.3269 72.5958 31.3628C70.2913 21.5 64.649 14.0134 55.4935 9.47237C48.8538 6.18118 41.8131 4.99578 34.4177 6.16865C28.1111 7.16782 22.3632 9.43118 17.4891 13.6016C9.42051 20.5027 5.90193 29.4916 5.60826 40.9248Z" />
    </symbol>
   <!--  <symbol>
        <path d="M8.72701 79.9958C8.36453 79.891 8.00414 79.7863 7.63747 79.6836C6.08659 79.2946 4.65032 78.5427 3.44697 77.4899C2.24362 76.437 1.30763 75.1133 0.716103 73.6279C0.124573 72.1424 -0.105569 70.5376 0.0446357 68.9458C0.194841 67.3539 0.721093 65.8206 1.58004 64.472C8.30167 53.6548 15.0394 42.8488 21.7931 32.0539C27.4294 23.0205 33.0685 13.9892 38.7103 4.96001C41.9831 -0.255119 48.6105 -1.57933 53.4086 2.04968C54.4588 2.85277 55.3571 3.83693 56.0612 4.95582C68.4764 24.7715 80.8525 44.6102 93.1894 64.472C94.0066 65.792 94.3125 67.4305 94.8656 68.9202V70.806C94.7923 71.1014 94.7148 71.3989 94.6561 71.6964C93.8054 75.623 91.4797 78.24 87.6789 79.5474C87.1592 79.7255 86.6312 79.8512 86.0906 80L8.72701 79.9958ZM47.3931 73.3077H77.6991C80.0332 73.3077 82.3674 73.3224 84.6994 73.3077C86.3337 73.293 87.528 72.3942 88.0057 70.9212C88.385 69.7541 88.0309 68.7505 87.4128 67.7636C81.2177 57.846 75.0276 47.9284 68.8424 38.0108C62.7591 28.2664 56.6696 18.5304 50.5737 8.80273C50.0611 7.99035 49.3318 7.33725 48.468 6.91699C46.8861 6.20879 45.3523 6.95261 44.2774 8.68121C38.4484 18.0024 32.625 27.3298 26.8071 36.6635C20.3411 47.0253 13.8737 57.3851 7.40489 67.7427C6.71555 68.8448 6.39078 69.9511 6.88527 71.1978C7.42794 72.5702 8.65367 73.3056 10.399 73.3077H47.3931Z" fill="#B22E1C"/>
        <path d="M51.7429 31.2955C51.3427 35.7332 51.0011 39.6158 50.6408 43.4962C50.4312 45.8534 50.1966 48.2085 49.92 50.5573C49.8257 51.1762 49.6422 51.7782 49.3752 52.3445C48.9562 53.3063 48.162 53.7567 47.1144 53.7002C46.115 53.6457 45.3439 53.1638 45.0904 52.1853C44.726 50.9177 44.4729 49.6207 44.334 48.309C43.8982 42.7901 43.5154 37.2677 43.1858 31.7417C43.0965 30.4944 43.1903 29.2407 43.4645 28.0205C44.0532 25.5817 46.6828 24.2616 49.0525 25.0725C49.9996 25.3973 50.7036 26.0196 50.9194 27.0211C51.2631 28.6114 51.5459 30.2164 51.7429 31.2955Z" fill="#B22E1C"/>
        <path d="M47.4728 66.8878C46.6604 66.8885 45.866 66.6492 45.1893 66.1998C44.5125 65.7504 43.9837 65.1111 43.6692 64.3621C43.3547 63.6131 43.2685 62.7878 43.4216 61.99C43.5746 61.1922 43.96 60.4574 44.5293 59.878C45.0986 59.2985 45.8265 58.9002 46.6215 58.7331C47.4164 58.5661 48.2431 58.6376 48.9975 58.9389C49.7519 59.2401 50.4005 59.7576 50.8618 60.4263C51.323 61.095 51.5764 61.885 51.59 62.6973C51.5992 63.2439 51.4995 63.787 51.2967 64.2947C51.094 64.8025 50.7922 65.2648 50.4091 65.6548C50.0259 66.0448 49.5689 66.3547 49.0648 66.5664C48.5607 66.7781 48.0195 66.8873 47.4728 66.8878Z" fill="#B22E1C"/>

    </symbol> -->

    <symbol id="icon-theme-checked-radio" viewBox="0 0 7 5">
        <path xmlns="http://www.w3.org/2000/svg" d="M5.283 0.170828C5.39033 0.06255 5.53619 0.00113935 5.68869 1.67031e-05C5.84119 -0.00110595 5.98793 0.0581507 6.09685 0.164836C6.20577 0.271522 6.268 0.416961 6.26995 0.56937C6.2719 0.721778 6.21341 0.868761 6.10726 0.978198L3.03586 4.81575C2.98309 4.87253 2.91942 4.9181 2.84864 4.94974C2.77787 4.98138 2.70144 4.99844 2.62392 4.9999C2.5464 5.00136 2.46938 4.98719 2.39746 4.95825C2.32554 4.9293 2.26019 4.88616 2.20532 4.83141L0.16895 2.79693C0.0607362 2.68873 -3.68247e-05 2.54199 -8.35555e-08 2.389C3.66576e-05 2.23601 0.0608801 2.0893 0.169145 1.98114C0.277411 1.87299 0.424229 1.81225 0.577303 1.81229C0.730377 1.81232 0.877166 1.87313 0.985379 1.98134L2.59591 3.59138L5.26772 0.188839C5.27257 0.182648 5.27781 0.176763 5.28339 0.171219L5.283 0.170828Z" fill-rule="evenodd"/>
    </symbol>

    <symbol id="icon-theme-calendar" viewBox="0 0 16 19">
        <path d="M14.0625 2.5C14.5312 2.5 14.9297 2.66406 15.2578 2.99219C15.5859 3.32031 15.75 3.71875 15.75 4.1875V16.5625C15.75 17.0312 15.5859 17.4297 15.2578 17.7578C14.9297 18.0859 14.5312 18.25 14.0625 18.25H1.6875C1.21875 18.25 0.820312 18.0859 0.492188 17.7578C0.164063 17.4297 0 17.0312 0 16.5625V4.1875C0 3.71875 0.164063 3.32031 0.492188 2.99219C0.820312 2.66406 1.21875 2.5 1.6875 2.5H3.375V0.671875C3.375 0.390625 3.51562 0.25 3.79688 0.25H4.07812C4.35938 0.25 4.5 0.390625 4.5 0.671875V2.5H11.25V0.671875C11.25 0.390625 11.3906 0.25 11.6719 0.25H11.9531C12.2344 0.25 12.375 0.390625 12.375 0.671875V2.5H14.0625ZM1.6875 3.625C1.52344 3.625 1.38281 3.68359 1.26562 3.80078C1.17188 3.89453 1.125 4.02344 1.125 4.1875V5.875H14.625V4.1875C14.625 4.02344 14.5664 3.89453 14.4492 3.80078C14.3555 3.68359 14.2266 3.625 14.0625 3.625H1.6875ZM14.0625 17.125C14.2266 17.125 14.3555 17.0664 14.4492 16.9492C14.5664 16.8555 14.625 16.7266 14.625 16.5625V7H1.125V16.5625C1.125 16.7266 1.17188 16.8555 1.26562 16.9492C1.38281 17.0664 1.52344 17.125 1.6875 17.125H14.0625ZM5.20312 11.5H3.79688C3.51562 11.5 3.375 11.3594 3.375 11.0781V9.67188C3.375 9.39062 3.51562 9.25 3.79688 9.25H5.20312C5.48438 9.25 5.625 9.39062 5.625 9.67188V11.0781C5.625 11.3594 5.48438 11.5 5.20312 11.5ZM8.57812 11.5H7.17188C6.89062 11.5 6.75 11.3594 6.75 11.0781V9.67188C6.75 9.39062 6.89062 9.25 7.17188 9.25H8.57812C8.85938 9.25 9 9.39062 9 9.67188V11.0781C9 11.3594 8.85938 11.5 8.57812 11.5ZM11.9531 11.5H10.5469C10.2656 11.5 10.125 11.3594 10.125 11.0781V9.67188C10.125 9.39062 10.2656 9.25 10.5469 9.25H11.9531C12.2344 9.25 12.375 9.39062 12.375 9.67188V11.0781C12.375 11.3594 12.2344 11.5 11.9531 11.5ZM8.57812 14.875H7.17188C6.89062 14.875 6.75 14.7344 6.75 14.4531V13.0469C6.75 12.7656 6.89062 12.625 7.17188 12.625H8.57812C8.85938 12.625 9 12.7656 9 13.0469V14.4531C9 14.7344 8.85938 14.875 8.57812 14.875ZM5.20312 14.875H3.79688C3.51562 14.875 3.375 14.7344 3.375 14.4531V13.0469C3.375 12.7656 3.51562 12.625 3.79688 12.625H5.20312C5.48438 12.625 5.625 12.7656 5.625 13.0469V14.4531C5.625 14.7344 5.48438 14.875 5.20312 14.875ZM11.9531 14.875H10.5469C10.2656 14.875 10.125 14.7344 10.125 14.4531V13.0469C10.125 12.7656 10.2656 12.625 10.5469 12.625H11.9531C12.2344 12.625 12.375 12.7656 12.375 13.0469V14.4531C12.375 14.7344 12.2344 14.875 11.9531 14.875Z"/>
    </symbol>

    <view id="icon-header-category-view" viewBox="0 0 30 30" />
    <view id="icon-header-location-view" viewBox="30 0 30 30" />
    <view id="icon-header-search-view" viewBox="60 0 30 30" />
    <view id="icon-header-cart-view" viewBox="90 0 30 30" />
    <view id="icon-header-order-view" viewBox="120 0 30 30" />
    <view id="icon-header-wishlist-view" viewBox="150 0 30 30" />
    <view id="icon-header-account-view" viewBox="180 0 30 30" />
    <view id="icon-theme-mess-view" viewBox="210 0 30 30" />
    <view id="icon-theme-arr-up-view" viewBox="240 0 30 30" />
    <view id="icon-theme-arr-right-view" viewBox="270 0 30 30" />
    <view id="icon-theme-arr-down-view" viewBox="300 0 30 30"/>
    <view id="icon-theme-edit-view" viewBox="0 30 30 30"/>

    <view id="icon-theme-trash-view" viewBox="30 30 30 30"/>
    <view id="icon-theme-flash-view" viewBox="60 30 30 30"/>
    <view id="icon-checkout-shipping-view" viewBox="90 30 30 30" />
    <view id="icon-checkout-wallet-view" viewBox="120 30 30 30" />
    <view id="icon-checkout-circle-view" viewBox="150 30 30 30" />
    <view id="icon-checkout-cash-view" viewBox="180 30 30 30" />
    <view id="icon-checkout-atm-view" viewBox="210 30 30 30" />
    <view id="icon-checkout-visa-view" viewBox="240 30 30 30" />
    <view id="icon-checkout-mastercard-view" viewBox="270 30 30 30" />
    <view id="icon-checkout-vnpay-view" viewBox="300 30 30 30" />

    <view id="icon-checkout-shoppe-view" viewBox="0 60 30 30"/>
    <view id="icon-free-gift-view" viewBox="30 60 30 30"/>
    <view id="icon-theme-checked-view" viewBox="60 60 30 30"/>
    <view id="icon-theme-close-view" viewBox="90 60 30 30"/>
    <view id="icon-theme-check-view" viewBox="120 60 30 30"/>
    <view id="icon-theme-warning-view" viewBox="150 60 30 30"/>
    <view id="icon-theme-error-view" viewBox="180 60 30 30"/>
    <view id="icon-theme-info-view" viewBox="210 60 30 30"/>
    <view id="icon-theme-checked-radio-view" viewBox="240 60 30 30"/>
    <view id="icon-theme-calendar-view" viewBox=" 270 60 30 30"/>


    <use xlink:href="#icon-header-category" width="30" height="30" x="0" y="0"></use>
    <use xlink:href="#icon-header-location" width="30" height="30" x="30" y="0"></use>
    <use xlink:href="#icon-header-search" width="30" height="30" x="60" y="0"></use>
    <use xlink:href="#icon-header-cart" width="30" height="30" x="90" y="0"></use>
    <use xlink:href="#icon-header-order" width="30" height="30" x="120" y="0"></use>
    <use xlink:href="#icon-header-wishlist" width="30" height="30" x="150" y="0"></use>
    <use xlink:href="#icon-header-account" width="30" height="30" x="180" y="0"></use>
    <use xlink:href="#icon-theme-mess" width="30" height="30" x="210" y="0"></use>
    <use xlink:href="#icon-theme-arr-up" width="30" height="30" x="240" y="0"></use>
    <use xlink:href="#icon-theme-arr-right" width="30" height="30" x="270" y="0"></use>
    <use xlink:href="#icon-theme-arr-down" width="30" height="30" x="300" y="0"></use>
    <use xlink:href="#icon-theme-edit" width="30" height="30" x="0" y="30"></use>
    <use xlink:href="#icon-theme-trash" width="30" height="30" x="30" y="30"></use>
    <use xlink:href="#icon-theme-flash" width="30" height="30" x="60" y="30"></use>

    <use xlink:href="#icon-checkout-shipping" width="30" height="30" x="90" y="30"></use>
    <use xlink:href="#icon-checkout-wallet" width="30" height="30" x="120" y="30"></use>
    <use xlink:href="#icon-checkout-circle" width="30" height="30" x="150" y="30"></use>
    <use xlink:href="#icon-checkout-cash" width="30" height="30" x="180" y="30"></use>
    <use xlink:href="#icon-checkout-atm" width="30" height="30" x="210" y="30"></use>
    <use xlink:href="#icon-checkout-visa" width="30" height="30" x="240" y="30"></use>
    <use xlink:href="#icon-checkout-mastercard" width="30" height="30" x="270" y="30"></use>
    <use xlink:href="#icon-checkout-vnpay" width="30" height="30" x="300" y="30"></use>

    <use xlink:href="#icon-checkout-shoppe" width="30" height="30" x="0" y="60"></use>
    <use xlink:href="#icon-free-gift" width="30" height="30" x="30" y="60"></use>
    <use xlink:href="#icon-theme-checked" width="30" height="30" x="60" y="60"></use>
    <use xlink:href="#icon-theme-close" width="30" height="30" x="90" y="60"></use>
    <use xlink:href="#icon-theme-check" width="30" height="30" x="120" y="60"></use>
    <use xlink:href="#icon-theme-warning" width="30" height="30" x="150" y="60"></use>
    <use xlink:href="#icon-theme-error" width="30" height="30" x="180" y="60"></use>
    <use xlink:href="#icon-theme-info" width="30" height="30" x="210" y="60"></use>
    <use xlink:href="#icon-theme-checked-radio" width="30" height="30" x="240" y="60"></use>
    <use xlink:href="#icon-theme-calendar" width="30" height="30" x="270" y="60"></use>

</svg>